{"glyphs":{"0":{"ha":900,"x_min":0,"x_max":0,"o":"m 82 486 b 450 -14 82 163 218 -14 b 818 486 682 -14 818 163 b 450 986 818 810 682 986 b 82 486 218 986 82 810 z m 443 77 b 317 115 399 77 357 90 b 216 244 277 140 243 183 b 176 486 190 305 176 386 b 216 728 176 587 190 667 b 317 858 243 789 277 833 b 443 896 357 883 399 896 l 457 896 b 583 858 501 896 543 883 b 684 728 623 833 657 789 b 724 486 710 667 724 587 b 684 244 724 386 710 305 b 583 115 657 183 623 140 b 457 77 543 90 501 77 z "},"1":{"ha":501,"x_min":0,"x_max":0,"o":"m 294 972 l 40 725 l 40 611 l 275 834 l 275 0 l 366 0 l 366 972 z "},"2":{"ha":772,"x_min":0,"x_max":0,"o":"m 189 93 l 543 449 b 669 624 606 511 646 562 b 686 728 680 656 686 690 b 386 986 689 874 560 988 b 81 689 209 988 79 862 l 175 689 b 382 896 178 813 258 896 l 396 896 b 591 728 504 898 593 817 b 545 586 591 671 581 634 b 461 493 526 562 498 531 l 71 97 l 71 0 l 700 0 l 700 93 z "},"3":{"ha":793,"x_min":0,"x_max":0,"o":"m 69 248 b 387 -14 89 80 201 -14 b 707 258 557 -15 709 84 b 541 486 707 375 632 456 b 700 720 630 524 700 614 b 389 986 702 888 563 987 b 87 722 224 989 93 871 l 182 722 b 382 896 191 821 273 896 l 396 896 b 606 708 515 896 606 825 b 414 530 606 610 530 530 l 339 530 l 339 440 l 401 440 b 612 262 521 440 612 372 b 395 77 612 144 515 77 l 380 77 b 164 248 263 77 185 139 l 69 248 z "},"4":{"ha":819,"x_min":0,"x_max":0,"o":"m 615 322 l 615 972 l 510 972 l 40 338 l 40 235 l 525 235 l 525 0 l 615 0 l 615 235 l 775 235 l 775 322 z m 128 322 l 525 861 l 525 322 z "},"5":{"ha":787,"x_min":0,"x_max":0,"o":"m 710 313 b 412 608 713 478 589 611 b 210 532 332 608 258 581 l 284 879 l 700 879 l 700 972 l 207 972 l 90 407 l 183 407 b 275 489 205 442 237 469 b 392 518 315 509 353 518 l 406 518 b 615 306 529 518 615 430 b 390 77 617 176 521 75 l 376 77 b 149 250 260 77 163 138 l 54 250 b 383 -14 65 81 211 -15 b 710 313 565 -16 713 125 z "},"6":{"ha":842,"x_min":0,"x_max":0,"o":"m 755 325 b 441 639 758 505 623 642 b 164 465 327 639 212 583 b 458 896 174 718 299 899 l 472 896 b 675 743 570 896 652 834 l 770 743 b 667 922 754 820 720 880 b 465 986 613 965 546 986 b 81 461 244 990 77 766 b 435 -14 79 169 212 -16 b 755 325 614 -16 758 121 z m 661 313 b 440 77 663 179 564 75 l 427 77 b 196 314 297 75 193 180 b 427 549 193 446 297 551 l 440 549 b 661 313 572 549 661 447 z "},"7":{"ha":721,"x_min":0,"x_max":0,"o":"m 32 972 l 32 879 l 583 879 b 210 40 359 750 208 452 l 210 0 l 304 0 l 304 28 b 397 541 304 236 336 407 b 677 861 459 675 553 782 l 677 972 z "},"8":{"ha":783,"x_min":0,"x_max":0,"o":"m 102 244 b 392 -14 99 92 223 -15 b 682 244 560 -15 684 92 b 518 475 682 362 604 445 b 701 715 612 502 703 602 b 392 986 703 875 573 988 b 82 715 211 988 79 875 b 265 475 80 602 172 502 b 102 244 180 446 102 362 z m 385 526 b 176 708 271 524 174 610 b 385 896 176 817 266 896 l 399 896 b 607 708 517 896 607 817 b 399 526 609 610 513 524 z m 385 77 b 195 252 277 77 195 150 b 385 429 195 350 278 429 l 399 429 b 589 252 505 431 591 349 b 399 77 589 150 507 77 z "},"9":{"ha":840,"x_min":0,"x_max":0,"o":"m 761 511 b 407 986 762 804 629 988 b 86 647 228 989 83 850 b 400 334 84 468 218 331 b 677 507 515 334 629 390 b 383 77 667 254 543 73 l 370 77 b 167 229 273 77 190 138 l 72 229 b 175 50 87 153 121 93 b 376 -14 229 7 296 -14 b 761 511 597 -18 764 206 z m 646 659 b 415 424 648 526 545 422 l 401 424 b 180 660 269 422 179 526 b 401 896 178 793 277 898 l 415 896 b 646 659 545 898 648 792 z "},"\r":{"ha":347,"x_min":0,"x_max":0,"o":""}," ":{"ha":347,"x_min":0,"x_max":0,"o":""},"A":{"ha":940,"x_min":0,"x_max":0,"o":"m 825 0 l 928 0 l 532 972 l 410 972 l 11 0 l 111 0 l 220 268 l 717 268 z m 256 358 l 469 883 l 681 358 z "},"Á":{"ha":940,"x_min":0,"x_max":0,"o":"m 825 0 l 928 0 l 532 972 l 410 972 l 11 0 l 111 0 l 220 268 l 717 268 z m 256 358 l 469 883 l 681 358 z m 429 1063 l 512 1063 l 627 1236 l 503 1236 z "},"Ă":{"ha":940,"x_min":0,"x_max":0,"o":"m 825 0 l 928 0 l 532 972 l 410 972 l 11 0 l 111 0 l 220 268 l 717 268 z m 256 358 l 469 883 l 681 358 z m 269 1236 b 471 1048 269 1116 351 1048 b 672 1236 590 1048 672 1116 l 596 1236 b 471 1125 589 1160 544 1125 b 346 1236 398 1125 352 1160 z "},"Â":{"ha":940,"x_min":0,"x_max":0,"o":"m 825 0 l 928 0 l 532 972 l 410 972 l 11 0 l 111 0 l 220 268 l 717 268 z m 256 358 l 469 883 l 681 358 z m 693 1063 l 533 1236 l 408 1236 l 248 1063 l 343 1063 l 471 1162 l 599 1063 z "},"Ä":{"ha":940,"x_min":0,"x_max":0,"o":"m 825 0 l 928 0 l 532 972 l 410 972 l 11 0 l 111 0 l 220 268 l 717 268 z m 256 358 l 469 883 l 681 358 z m 286 1083 l 397 1083 l 397 1194 l 286 1194 z m 544 1083 l 655 1083 l 655 1194 l 544 1194 z "},"Ȧ":{"ha":940,"x_min":0,"x_max":0,"o":"m 825 0 l 928 0 l 532 972 l 410 972 l 11 0 l 111 0 l 220 268 l 717 268 z m 256 358 l 469 883 l 681 358 z m 418 1083 l 522 1083 l 522 1202 l 418 1202 z "},"Ạ":{"ha":940,"x_min":0,"x_max":0,"o":"m 825 0 l 928 0 l 532 972 l 410 972 l 11 0 l 111 0 l 220 268 l 717 268 z m 256 358 l 469 883 l 681 358 z m 422 -229 l 513 -229 l 513 -125 l 422 -125 z "},"À":{"ha":940,"x_min":0,"x_max":0,"o":"m 825 0 l 928 0 l 532 972 l 410 972 l 11 0 l 111 0 l 220 268 l 717 268 z m 256 358 l 469 883 l 681 358 z m 429 1063 l 512 1063 l 439 1236 l 313 1236 z "},"Ā":{"ha":940,"x_min":0,"x_max":0,"o":"m 825 0 l 928 0 l 532 972 l 410 972 l 11 0 l 111 0 l 220 268 l 717 268 z m 256 358 l 469 883 l 681 358 z m 279 1083 l 661 1083 l 661 1160 l 279 1160 z "},"Ą":{"ha":940,"x_min":0,"x_max":0,"o":"m 875 -195 b 804 -135 835 -195 804 -178 b 928 0 804 -84 857 -37 l 532 972 l 410 972 l 11 0 l 111 0 l 220 268 l 717 268 l 825 1 b 717 -153 765 -35 717 -87 b 856 -271 717 -231 772 -271 l 912 -271 l 912 -195 z m 256 358 l 469 883 l 681 358 z "},"Å":{"ha":940,"x_min":0,"x_max":0,"o":"m 825 0 l 928 0 l 532 972 l 410 972 l 11 0 l 111 0 l 220 268 l 717 268 z m 256 358 l 469 883 l 681 358 z m 361 1164 b 471 1054 361 1103 413 1054 b 581 1164 528 1054 581 1103 b 471 1274 581 1225 528 1274 b 361 1164 413 1274 361 1225 z m 517 1164 b 472 1117 517 1139 496 1117 b 425 1164 447 1117 425 1139 b 472 1211 425 1189 447 1211 b 517 1164 496 1211 517 1189 z "},"Ǻ":{"ha":940,"x_min":0,"x_max":0,"o":"m 825 0 l 928 0 l 532 972 l 410 972 l 11 0 l 111 0 l 220 268 l 717 268 z m 256 358 l 469 883 l 681 358 z m 441 1289 l 509 1289 l 592 1411 l 495 1411 z m 376 1150 b 473 1054 376 1095 422 1054 b 568 1150 522 1054 568 1095 b 473 1246 568 1204 522 1246 b 376 1150 422 1246 376 1204 z m 506 1150 b 474 1117 506 1132 490 1117 b 441 1150 456 1117 441 1132 b 474 1183 441 1168 456 1183 b 506 1150 490 1183 506 1167 z "},"Ã":{"ha":940,"x_min":0,"x_max":0,"o":"m 825 0 l 928 0 l 532 972 l 410 972 l 11 0 l 111 0 l 220 268 l 717 268 z m 256 358 l 469 883 l 681 358 z m 468 1105 b 579 1055 519 1068 547 1055 b 699 1190 645 1055 699 1114 l 699 1222 l 629 1222 b 575 1132 629 1162 611 1132 b 515 1160 554 1132 538 1141 b 500 1171 511 1162 507 1166 l 453 1206 b 364 1236 426 1226 396 1236 b 241 1101 292 1236 241 1178 l 241 1069 l 311 1069 b 368 1160 311 1130 328 1160 b 424 1137 390 1160 404 1153 z "},"Æ":{"ha":1367,"x_min":0,"x_max":0,"o":"m -4 0 l 106 0 l 264 268 l 717 268 l 753 0 l 1329 0 l 1329 90 l 835 90 l 786 456 l 1204 456 l 1204 546 l 774 546 l 728 882 l 1246 882 l 1246 972 l 572 972 z m 317 358 l 631 892 l 704 358 z "},"Ǽ":{"ha":1367,"x_min":0,"x_max":0,"o":"m -4 0 l 106 0 l 264 268 l 717 268 l 753 0 l 1329 0 l 1329 90 l 835 90 l 786 456 l 1204 456 l 1204 546 l 774 546 l 728 882 l 1246 882 l 1246 972 l 572 972 z m 317 358 l 631 892 l 704 358 z m 819 1063 l 903 1063 l 1018 1236 l 893 1236 z "},"Ǣ":{"ha":1367,"x_min":0,"x_max":0,"o":"m -4 0 l 106 0 l 264 268 l 717 268 l 753 0 l 1329 0 l 1329 90 l 835 90 l 786 456 l 1204 456 l 1204 546 l 774 546 l 728 882 l 1246 882 l 1246 972 l 572 972 z m 317 358 l 631 892 l 704 358 z m 669 1083 l 1052 1083 l 1052 1160 l 669 1160 z "},"B":{"ha":911,"x_min":0,"x_max":0,"o":"m 135 0 l 550 0 b 829 268 705 -2 832 106 b 653 493 831 406 734 479 b 808 718 736 517 808 610 b 541 972 810 874 693 974 l 135 972 z m 232 538 l 232 882 l 530 882 b 711 710 636 882 711 819 b 530 538 711 600 636 538 z m 232 90 l 232 447 l 530 447 b 677 401 591 447 640 431 b 732 269 713 370 732 327 b 529 90 732 153 648 90 z "},"C":{"ha":964,"x_min":0,"x_max":0,"o":"m 75 486 b 519 -14 73 202 250 -18 b 895 298 730 -16 886 120 l 798 298 b 526 77 783 178 694 77 l 513 77 b 172 486 296 73 170 260 b 513 896 170 712 296 899 l 526 896 b 798 673 694 896 783 793 l 895 673 b 519 986 886 853 730 989 b 75 486 250 990 73 770 z "},"Ć":{"ha":964,"x_min":0,"x_max":0,"o":"m 75 486 b 519 -14 73 202 250 -18 b 895 298 730 -16 886 120 l 798 298 b 526 77 783 178 694 77 l 513 77 b 172 486 296 73 170 260 b 513 896 170 712 296 899 l 526 896 b 798 673 694 896 783 793 l 895 673 b 519 986 886 853 730 989 b 75 486 250 990 73 770 z m 477 1063 l 561 1063 l 676 1236 l 551 1236 z "},"Č":{"ha":964,"x_min":0,"x_max":0,"o":"m 75 486 b 519 -14 73 202 250 -18 b 895 298 730 -16 886 120 l 798 298 b 526 77 783 178 694 77 l 513 77 b 172 486 296 73 170 260 b 513 896 170 712 296 899 l 526 896 b 798 673 694 896 783 793 l 895 673 b 519 986 886 853 730 989 b 75 486 250 990 73 770 z m 648 1236 l 519 1136 l 392 1236 l 297 1236 l 457 1063 l 582 1063 l 742 1236 z "},"Ç":{"ha":964,"x_min":0,"x_max":0,"o":"m 798 298 b 526 77 783 178 694 77 l 513 77 b 172 486 296 73 170 260 b 513 896 170 712 296 899 l 526 896 b 798 673 694 896 783 793 l 895 673 b 519 986 886 853 730 989 b 75 486 250 990 73 770 b 488 -13 73 214 236 0 l 488 -115 l 526 -115 b 595 -175 567 -115 595 -135 b 526 -236 595 -215 566 -236 l 439 -236 l 439 -313 l 525 -313 b 664 -175 614 -313 664 -253 b 550 -62 664 -107 610 -61 l 550 -13 b 895 298 745 -3 888 128 l 798 298 z "},"Ĉ":{"ha":964,"x_min":0,"x_max":0,"o":"m 75 486 b 519 -14 73 202 250 -18 b 895 298 730 -16 886 120 l 798 298 b 526 77 783 178 694 77 l 513 77 b 172 486 296 73 170 260 b 513 896 170 712 296 899 l 526 896 b 798 673 694 896 783 793 l 895 673 b 519 986 886 853 730 989 b 75 486 250 990 73 770 z m 742 1063 l 582 1236 l 457 1236 l 297 1063 l 392 1063 l 519 1162 l 648 1063 z "},"Ċ":{"ha":964,"x_min":0,"x_max":0,"o":"m 75 486 b 519 -14 73 202 250 -18 b 895 298 730 -16 886 120 l 798 298 b 526 77 783 178 694 77 l 513 77 b 172 486 296 73 170 260 b 513 896 170 712 296 899 l 526 896 b 798 673 694 896 783 793 l 895 673 b 519 986 886 853 730 989 b 75 486 250 990 73 770 z m 467 1083 l 571 1083 l 571 1202 l 467 1202 z "},"D":{"ha":982,"x_min":0,"x_max":0,"o":"m 135 0 l 468 0 b 905 484 730 -3 908 182 b 468 972 907 785 730 975 l 135 972 z m 232 90 l 232 882 l 454 882 b 808 486 680 882 808 741 b 454 90 808 233 680 90 z "},"Ð":{"ha":1004,"x_min":0,"x_max":0,"o":"m 928 484 b 490 972 930 785 752 975 l 157 972 l 157 528 l 18 528 l 18 444 l 157 444 l 157 0 l 490 0 b 928 484 753 -3 930 182 z m 831 486 b 477 90 831 233 703 90 l 254 90 l 254 444 l 463 444 l 463 528 l 254 528 l 254 882 l 477 882 b 831 486 703 882 831 741 z "},"Ď":{"ha":982,"x_min":0,"x_max":0,"o":"m 135 0 l 468 0 b 905 484 730 -3 908 182 b 468 972 907 785 730 975 l 135 972 z m 232 90 l 232 882 l 454 882 b 808 486 680 882 808 741 b 454 90 808 233 680 90 z m 597 1236 l 469 1136 l 342 1236 l 247 1236 l 407 1063 l 532 1063 l 692 1236 z "},"Đ":{"ha":1004,"x_min":0,"x_max":0,"o":"m 928 484 b 490 972 930 785 752 975 l 157 972 l 157 528 l 18 528 l 18 444 l 157 444 l 157 0 l 490 0 b 928 484 753 -3 930 182 z m 831 486 b 477 90 831 233 703 90 l 254 90 l 254 444 l 463 444 l 463 528 l 254 528 l 254 882 l 477 882 b 831 486 703 882 831 741 z "},"E":{"ha":892,"x_min":0,"x_max":0,"o":"m 135 0 l 828 0 l 828 90 l 232 90 l 232 456 l 730 456 l 730 546 l 232 546 l 232 882 l 814 882 l 814 972 l 135 972 z "},"É":{"ha":892,"x_min":0,"x_max":0,"o":"m 135 0 l 828 0 l 828 90 l 232 90 l 232 456 l 730 456 l 730 546 l 232 546 l 232 882 l 814 882 l 814 972 l 135 972 z m 433 1063 l 517 1063 l 632 1236 l 507 1236 z "},"Ĕ":{"ha":892,"x_min":0,"x_max":0,"o":"m 135 0 l 828 0 l 828 90 l 232 90 l 232 456 l 730 456 l 730 546 l 232 546 l 232 882 l 814 882 l 814 972 l 135 972 z m 273 1236 b 475 1048 273 1116 355 1048 b 676 1236 594 1048 676 1116 l 600 1236 b 475 1125 593 1160 548 1125 b 350 1236 402 1125 356 1160 z "},"Ě":{"ha":892,"x_min":0,"x_max":0,"o":"m 135 0 l 828 0 l 828 90 l 232 90 l 232 456 l 730 456 l 730 546 l 232 546 l 232 882 l 814 882 l 814 972 l 135 972 z m 603 1236 l 475 1136 l 347 1236 l 252 1236 l 412 1063 l 537 1063 l 697 1236 z "},"Ê":{"ha":892,"x_min":0,"x_max":0,"o":"m 135 0 l 828 0 l 828 90 l 232 90 l 232 456 l 730 456 l 730 546 l 232 546 l 232 882 l 814 882 l 814 972 l 135 972 z m 697 1063 l 537 1236 l 412 1236 l 252 1063 l 347 1063 l 475 1162 l 603 1063 z "},"Ë":{"ha":892,"x_min":0,"x_max":0,"o":"m 135 0 l 828 0 l 828 90 l 232 90 l 232 456 l 730 456 l 730 546 l 232 546 l 232 882 l 814 882 l 814 972 l 135 972 z m 290 1083 l 401 1083 l 401 1194 l 290 1194 z m 549 1083 l 660 1083 l 660 1194 l 549 1194 z "},"Ė":{"ha":892,"x_min":0,"x_max":0,"o":"m 135 0 l 828 0 l 828 90 l 232 90 l 232 456 l 730 456 l 730 546 l 232 546 l 232 882 l 814 882 l 814 972 l 135 972 z m 422 1083 l 526 1083 l 526 1202 l 422 1202 z "},"Ẹ":{"ha":892,"x_min":0,"x_max":0,"o":"m 135 0 l 828 0 l 828 90 l 232 90 l 232 456 l 730 456 l 730 546 l 232 546 l 232 882 l 814 882 l 814 972 l 135 972 z m 436 -229 l 527 -229 l 527 -125 l 436 -125 z "},"È":{"ha":892,"x_min":0,"x_max":0,"o":"m 135 0 l 828 0 l 828 90 l 232 90 l 232 456 l 730 456 l 730 546 l 232 546 l 232 882 l 814 882 l 814 972 l 135 972 z m 433 1063 l 517 1063 l 444 1236 l 318 1236 z "},"Ē":{"ha":892,"x_min":0,"x_max":0,"o":"m 135 0 l 828 0 l 828 90 l 232 90 l 232 456 l 730 456 l 730 546 l 232 546 l 232 882 l 814 882 l 814 972 l 135 972 z m 283 1083 l 665 1083 l 665 1160 l 283 1160 z "},"Ę":{"ha":892,"x_min":0,"x_max":0,"o":"m 705 -135 b 828 0 705 -84 757 -37 l 828 90 l 232 90 l 232 456 l 730 456 l 730 546 l 232 546 l 232 882 l 814 882 l 814 972 l 135 972 l 135 0 l 724 0 b 617 -153 665 -36 617 -87 b 756 -271 617 -231 672 -271 l 812 -271 l 812 -195 l 775 -195 b 705 -135 735 -195 705 -178 z "},"F":{"ha":819,"x_min":0,"x_max":0,"o":"m 135 0 l 232 0 l 232 427 l 710 427 l 710 517 l 232 517 l 232 882 l 781 882 l 781 972 l 135 972 z "},"G":{"ha":1013,"x_min":0,"x_max":0,"o":"m 75 486 b 528 -14 73 195 249 -17 b 707 24 593 -14 653 -1 b 832 126 760 49 802 83 l 832 0 l 922 0 l 922 396 b 832 486 922 456 892 486 l 533 486 l 533 396 l 832 396 l 832 346 b 541 77 835 179 693 75 l 526 77 b 172 486 317 75 171 227 b 522 896 170 745 317 898 l 536 896 b 818 660 690 896 796 808 l 916 660 b 529 986 896 854 749 987 b 75 486 247 989 73 777 z "},"Ğ":{"ha":1013,"x_min":0,"x_max":0,"o":"m 75 486 b 528 -14 73 195 249 -17 b 707 24 593 -14 653 -1 b 832 126 760 49 802 83 l 832 0 l 922 0 l 922 396 b 832 486 922 456 892 486 l 533 486 l 533 396 l 832 396 l 832 346 b 541 77 835 179 693 75 l 526 77 b 172 486 317 75 171 227 b 522 896 170 745 317 898 l 536 896 b 818 660 690 896 796 808 l 916 660 b 529 986 896 854 749 987 b 75 486 247 989 73 777 z m 333 1236 b 534 1048 333 1116 415 1048 b 736 1236 654 1048 736 1116 l 660 1236 b 534 1125 652 1160 608 1125 b 410 1236 462 1125 416 1160 z "},"Ĝ":{"ha":1013,"x_min":0,"x_max":0,"o":"m 75 486 b 528 -14 73 195 249 -17 b 707 24 593 -14 653 -1 b 832 126 760 49 802 83 l 832 0 l 922 0 l 922 396 b 832 486 922 456 892 486 l 533 486 l 533 396 l 832 396 l 832 346 b 541 77 835 179 693 75 l 526 77 b 172 486 317 75 171 227 b 522 896 170 745 317 898 l 536 896 b 818 660 690 896 796 808 l 916 660 b 529 986 896 854 749 987 b 75 486 247 989 73 777 z m 757 1063 l 597 1236 l 472 1236 l 312 1063 l 407 1063 l 534 1162 l 663 1063 z "},"Ģ":{"ha":1013,"x_min":0,"x_max":0,"o":"m 75 486 b 528 -14 73 195 249 -17 b 707 24 593 -14 653 -1 b 832 126 760 49 802 83 l 832 0 l 922 0 l 922 396 b 832 486 922 456 892 486 l 533 486 l 533 396 l 832 396 l 832 346 b 541 77 835 179 693 75 l 526 77 b 172 486 317 75 171 227 b 522 896 170 745 317 898 l 536 896 b 818 660 690 896 796 808 l 916 660 b 529 986 896 854 749 987 b 75 486 247 989 73 777 z m 460 -347 l 473 -347 b 578 -243 536 -347 578 -307 l 578 -125 l 488 -125 l 488 -229 l 529 -229 l 529 -243 b 467 -298 529 -281 509 -298 l 460 -298 z "},"Ġ":{"ha":1013,"x_min":0,"x_max":0,"o":"m 75 486 b 528 -14 73 195 249 -17 b 707 24 593 -14 653 -1 b 832 126 760 49 802 83 l 832 0 l 922 0 l 922 396 b 832 486 922 456 892 486 l 533 486 l 533 396 l 832 396 l 832 346 b 541 77 835 179 693 75 l 526 77 b 172 486 317 75 171 227 b 522 896 170 745 317 898 l 536 896 b 818 660 690 896 796 808 l 916 660 b 529 986 896 854 749 987 b 75 486 247 989 73 777 z m 481 1083 l 586 1083 l 586 1202 l 481 1202 z "},"H":{"ha":1013,"x_min":0,"x_max":0,"o":"m 135 0 l 232 0 l 232 441 l 781 441 l 781 0 l 878 0 l 878 972 l 781 972 l 781 532 l 232 532 l 232 972 l 135 972 z "},"Ħ":{"ha":1029,"x_min":0,"x_max":0,"o":"m 983 806 l 886 806 l 886 972 l 789 972 l 789 806 l 240 806 l 240 972 l 143 972 l 143 806 l 45 806 l 45 722 l 143 722 l 143 0 l 240 0 l 240 441 l 789 441 l 789 0 l 886 0 l 886 722 l 983 722 z m 789 532 l 240 532 l 240 722 l 789 722 z "},"Ĥ":{"ha":1013,"x_min":0,"x_max":0,"o":"m 135 0 l 232 0 l 232 441 l 781 441 l 781 0 l 878 0 l 878 972 l 781 972 l 781 532 l 232 532 l 232 972 l 135 972 z m 729 1063 l 569 1236 l 444 1236 l 284 1063 l 379 1063 l 507 1162 l 635 1063 z "},"I":{"ha":367,"x_min":0,"x_max":0,"o":"m 135 0 l 232 0 l 232 972 l 135 972 z "},"Ĳ":{"ha":762,"x_min":0,"x_max":0,"o":"m 100 0 l 414 0 b 635 254 555 0 635 87 l 635 972 l 538 972 l 538 250 b 412 90 538 147 497 90 l 100 90 z m 100 257 l 197 257 l 197 972 l 100 972 z "},"Í":{"ha":367,"x_min":0,"x_max":0,"o":"m 135 0 l 232 0 l 232 972 l 135 972 z m 141 1063 l 224 1063 l 340 1236 l 215 1236 z "},"Ĭ":{"ha":367,"x_min":0,"x_max":0,"o":"m 135 0 l 232 0 l 232 972 l 135 972 z m -18 1236 b 183 1048 -18 1116 64 1048 b 385 1236 302 1048 385 1116 l 309 1236 b 183 1125 301 1160 256 1125 b 58 1236 111 1125 64 1160 z "},"Î":{"ha":367,"x_min":0,"x_max":0,"o":"m 135 0 l 232 0 l 232 972 l 135 972 z m 406 1063 l 245 1236 l 121 1236 l -39 1063 l 56 1063 l 183 1162 l 311 1063 z "},"Ï":{"ha":367,"x_min":0,"x_max":0,"o":"m 135 0 l 232 0 l 232 972 l 135 972 z m -1 1083 l 110 1083 l 110 1194 l -1 1194 z m 257 1083 l 368 1083 l 368 1194 l 257 1194 z "},"İ":{"ha":367,"x_min":0,"x_max":0,"o":"m 135 0 l 232 0 l 232 972 l 135 972 z m 130 1083 l 235 1083 l 235 1202 l 130 1202 z "},"Ị":{"ha":367,"x_min":0,"x_max":0,"o":"m 135 0 l 232 0 l 232 972 l 135 972 z m 137 -229 l 228 -229 l 228 -125 l 137 -125 z "},"Ì":{"ha":367,"x_min":0,"x_max":0,"o":"m 135 0 l 232 0 l 232 972 l 135 972 z m 141 1063 l 224 1063 l 151 1236 l 26 1236 z "},"Ī":{"ha":367,"x_min":0,"x_max":0,"o":"m 135 0 l 232 0 l 232 972 l 135 972 z m -9 1083 l 374 1083 l 374 1160 l -9 1160 z "},"Į":{"ha":367,"x_min":0,"x_max":0,"o":"m 109 -135 b 232 0 109 -84 161 -37 l 232 972 l 135 972 l 135 4 b 54 -62 103 -14 77 -37 b 21 -153 32 -88 21 -118 b 160 -271 21 -231 76 -271 l 216 -271 l 216 -195 l 179 -195 b 109 -135 139 -195 109 -178 z "},"Ĩ":{"ha":367,"x_min":0,"x_max":0,"o":"m 135 0 l 232 0 l 232 972 l 135 972 z m 180 1105 b 292 1055 232 1068 259 1055 b 411 1190 357 1055 411 1114 l 411 1222 l 342 1222 b 288 1132 342 1162 323 1132 b 227 1160 267 1132 251 1141 b 212 1171 224 1162 220 1166 l 165 1206 b 77 1236 138 1226 109 1236 b -46 1101 5 1236 -46 1178 l -46 1069 l 24 1069 b 81 1160 24 1130 41 1160 b 136 1137 102 1160 117 1153 z "},"J":{"ha":538,"x_min":0,"x_max":0,"o":"m 36 0 l 189 0 b 410 254 331 0 410 87 l 410 972 l 313 972 l 313 250 b 187 90 313 144 271 90 l 36 90 z "},"Ĵ":{"ha":538,"x_min":0,"x_max":0,"o":"m 36 0 l 189 0 b 410 254 331 0 410 87 l 410 972 l 313 972 l 313 250 b 187 90 313 144 271 90 l 36 90 z m 583 1063 l 423 1236 l 298 1236 l 138 1063 l 233 1063 l 361 1162 l 489 1063 z "},"K":{"ha":929,"x_min":0,"x_max":0,"o":"m 791 0 l 913 0 l 511 580 l 907 972 l 778 972 l 232 431 l 232 972 l 135 972 l 135 0 l 232 0 l 232 303 l 441 511 z "},"Ķ":{"ha":929,"x_min":0,"x_max":0,"o":"m 791 0 l 913 0 l 511 580 l 907 972 l 778 972 l 232 431 l 232 972 l 135 972 l 135 0 l 232 0 l 232 303 l 441 511 z m 408 -347 l 422 -347 b 526 -243 484 -347 526 -307 l 526 -125 l 436 -125 l 436 -229 l 477 -229 l 477 -243 b 415 -298 477 -281 458 -298 l 408 -298 z "},"L":{"ha":836,"x_min":0,"x_max":0,"o":"m 135 0 l 814 0 l 814 90 l 232 90 l 232 972 l 135 972 z "},"Ĺ":{"ha":836,"x_min":0,"x_max":0,"o":"m 135 0 l 814 0 l 814 90 l 232 90 l 232 972 l 135 972 z m 146 1063 l 229 1063 l 345 1236 l 220 1236 z "},"Ľ":{"ha":836,"x_min":0,"x_max":0,"o":"m 135 0 l 814 0 l 814 90 l 232 90 l 232 972 l 135 972 z m 390 750 l 404 750 b 508 854 466 750 508 790 l 508 972 l 418 972 l 418 868 l 459 868 l 459 854 b 397 799 459 817 439 799 l 390 799 z "},"Ļ":{"ha":836,"x_min":0,"x_max":0,"o":"m 135 0 l 814 0 l 814 90 l 232 90 l 232 972 l 135 972 z m 401 -347 l 415 -347 b 519 -243 477 -347 519 -307 l 519 -125 l 429 -125 l 429 -229 l 471 -229 l 471 -243 b 408 -298 471 -281 451 -298 l 401 -298 z "},"Ŀ":{"ha":839,"x_min":0,"x_max":0,"o":"m 135 0 l 814 0 l 814 90 l 232 90 l 232 972 l 135 972 z m 546 437 l 671 437 l 671 563 l 546 563 z "},"Ł":{"ha":869,"x_min":0,"x_max":0,"o":"m 265 90 l 265 441 l 535 595 l 535 692 l 265 539 l 265 972 l 168 972 l 168 484 l 36 410 l 36 311 l 168 387 l 168 0 l 847 0 l 847 90 z "},"M":{"ha":1276,"x_min":0,"x_max":0,"o":"m 981 972 l 642 73 l 300 972 l 135 972 l 135 0 l 231 0 l 231 895 l 572 0 l 707 0 l 1046 892 l 1046 0 l 1141 0 l 1141 972 z "},"N":{"ha":1026,"x_min":0,"x_max":0,"o":"m 794 972 l 794 149 l 260 972 l 135 972 l 135 0 l 232 0 l 232 837 l 774 0 l 892 0 l 892 972 z "},"Ń":{"ha":1026,"x_min":0,"x_max":0,"o":"m 794 972 l 794 149 l 260 972 l 135 972 l 135 0 l 232 0 l 232 837 l 774 0 l 892 0 l 892 972 z m 486 1063 l 569 1063 l 684 1236 l 559 1236 z "},"Ň":{"ha":1026,"x_min":0,"x_max":0,"o":"m 794 972 l 794 149 l 260 972 l 135 972 l 135 0 l 232 0 l 232 837 l 774 0 l 892 0 l 892 972 z m 656 1236 l 528 1136 l 400 1236 l 305 1236 l 465 1063 l 590 1063 l 750 1236 z "},"Ņ":{"ha":1026,"x_min":0,"x_max":0,"o":"m 794 972 l 794 149 l 260 972 l 135 972 l 135 0 l 232 0 l 232 837 l 774 0 l 892 0 l 892 972 z m 440 -347 l 454 -347 b 558 -243 516 -347 558 -307 l 558 -125 l 468 -125 l 468 -229 l 509 -229 l 509 -243 b 447 -298 509 -281 490 -298 l 440 -298 z "},"Ŋ":{"ha":1026,"x_min":0,"x_max":0,"o":"m 586 -243 l 746 -243 b 892 -97 843 -243 892 -194 l 892 972 l 794 972 l 794 171 l 244 972 l 135 972 l 135 0 l 232 0 l 232 821 l 794 0 l 794 -90 b 732 -153 794 -139 781 -153 l 586 -153 z "},"Ñ":{"ha":1026,"x_min":0,"x_max":0,"o":"m 794 972 l 794 149 l 260 972 l 135 972 l 135 0 l 232 0 l 232 837 l 774 0 l 892 0 l 892 972 z m 525 1105 b 636 1055 576 1068 604 1055 b 755 1190 702 1055 755 1114 l 755 1222 l 686 1222 b 632 1132 686 1162 668 1132 b 572 1160 611 1132 595 1141 b 557 1171 568 1162 564 1166 l 510 1206 b 421 1236 483 1226 453 1236 b 298 1101 349 1236 298 1178 l 298 1069 l 368 1069 b 425 1160 368 1130 385 1160 b 481 1137 447 1160 461 1153 z "},"O":{"ha":1039,"x_min":0,"x_max":0,"o":"m 75 486 b 519 -14 73 180 265 -16 b 964 486 774 -16 966 180 b 519 986 966 792 774 989 b 75 486 265 989 73 792 z m 513 77 b 172 486 316 75 170 237 b 513 896 170 735 316 898 l 526 896 b 867 486 723 898 869 735 b 526 77 869 237 723 75 z "},"Ó":{"ha":1039,"x_min":0,"x_max":0,"o":"m 75 486 b 519 -14 73 180 265 -16 b 964 486 774 -16 966 180 b 519 986 966 792 774 989 b 75 486 265 989 73 792 z m 513 77 b 172 486 316 75 170 237 b 513 896 170 735 316 898 l 526 896 b 867 486 723 898 869 735 b 526 77 869 237 723 75 z m 477 1063 l 561 1063 l 676 1236 l 551 1236 z "},"Ŏ":{"ha":1039,"x_min":0,"x_max":0,"o":"m 75 486 b 519 -14 73 180 265 -16 b 964 486 774 -16 966 180 b 519 986 966 792 774 989 b 75 486 265 989 73 792 z m 513 77 b 172 486 316 75 170 237 b 513 896 170 735 316 898 l 526 896 b 867 486 723 898 869 735 b 526 77 869 237 723 75 z m 318 1236 b 519 1048 318 1116 400 1048 b 721 1236 639 1048 721 1116 l 645 1236 b 519 1125 637 1160 593 1125 b 395 1236 447 1125 401 1160 z "},"Ô":{"ha":1039,"x_min":0,"x_max":0,"o":"m 75 486 b 519 -14 73 180 265 -16 b 964 486 774 -16 966 180 b 519 986 966 792 774 989 b 75 486 265 989 73 792 z m 513 77 b 172 486 316 75 170 237 b 513 896 170 735 316 898 l 526 896 b 867 486 723 898 869 735 b 526 77 869 237 723 75 z m 742 1063 l 582 1236 l 457 1236 l 297 1063 l 392 1063 l 519 1162 l 648 1063 z "},"Ö":{"ha":1039,"x_min":0,"x_max":0,"o":"m 75 486 b 519 -14 73 180 265 -16 b 964 486 774 -16 966 180 b 519 986 966 792 774 989 b 75 486 265 989 73 792 z m 513 77 b 172 486 316 75 170 237 b 513 896 170 735 316 898 l 526 896 b 867 486 723 898 869 735 b 526 77 869 237 723 75 z m 334 1083 l 446 1083 l 446 1194 l 334 1194 z m 593 1083 l 704 1083 l 704 1194 l 593 1194 z "},"Ọ":{"ha":1039,"x_min":0,"x_max":0,"o":"m 75 486 b 519 -14 73 180 265 -16 b 964 486 774 -16 966 180 b 519 986 966 792 774 989 b 75 486 265 989 73 792 z m 513 77 b 172 486 316 75 170 237 b 513 896 170 735 316 898 l 526 896 b 867 486 723 898 869 735 b 526 77 869 237 723 75 z m 473 -229 l 564 -229 l 564 -125 l 473 -125 z "},"Ò":{"ha":1039,"x_min":0,"x_max":0,"o":"m 75 486 b 519 -14 73 180 265 -16 b 964 486 774 -16 966 180 b 519 986 966 792 774 989 b 75 486 265 989 73 792 z m 513 77 b 172 486 316 75 170 237 b 513 896 170 735 316 898 l 526 896 b 867 486 723 898 869 735 b 526 77 869 237 723 75 z m 477 1063 l 561 1063 l 488 1236 l 362 1236 z "},"Ő":{"ha":1039,"x_min":0,"x_max":0,"o":"m 75 486 b 519 -14 73 180 265 -16 b 964 486 774 -16 966 180 b 519 986 966 792 774 989 b 75 486 265 989 73 792 z m 513 77 b 172 486 316 75 170 237 b 513 896 170 735 316 898 l 526 896 b 867 486 723 898 869 735 b 526 77 869 237 723 75 z m 368 1063 l 451 1063 l 566 1236 l 441 1236 z m 595 1063 l 679 1063 l 794 1236 l 669 1236 z "},"Ō":{"ha":1039,"x_min":0,"x_max":0,"o":"m 75 486 b 519 -14 73 180 265 -16 b 964 486 774 -16 966 180 b 519 986 966 792 774 989 b 75 486 265 989 73 792 z m 513 77 b 172 486 316 75 170 237 b 513 896 170 735 316 898 l 526 896 b 867 486 723 898 869 735 b 526 77 869 237 723 75 z m 328 1083 l 710 1083 l 710 1160 l 328 1160 z "},"Ø":{"ha":1050,"x_min":0,"x_max":0,"o":"m 969 486 b 859 835 969 629 930 748 l 953 954 l 881 1011 l 793 899 b 525 986 720 956 627 986 b 81 486 271 989 78 792 b 191 138 81 343 120 225 l 96 18 l 168 -39 l 257 73 b 525 -14 331 16 422 -14 b 969 486 779 -16 972 180 z m 252 216 b 178 486 203 286 178 378 b 518 896 176 735 321 898 l 532 896 b 735 827 610 896 679 872 z m 872 486 b 532 77 874 237 728 75 l 518 77 b 315 146 440 77 371 101 l 798 758 b 872 486 846 688 872 595 z "},"Ǿ":{"ha":1050,"x_min":0,"x_max":0,"o":"m 969 486 b 859 835 969 629 930 748 l 953 954 l 881 1011 l 793 899 b 525 986 720 956 627 986 b 81 486 271 989 78 792 b 191 138 81 343 120 225 l 96 18 l 168 -39 l 257 73 b 525 -14 331 16 422 -14 b 969 486 779 -16 972 180 z m 252 216 b 178 486 203 286 178 378 b 518 896 176 735 321 898 l 532 896 b 735 827 610 896 679 872 z m 872 486 b 532 77 874 237 728 75 l 518 77 b 315 146 440 77 371 101 l 798 758 b 872 486 846 688 872 595 z m 490 1063 l 574 1063 l 689 1236 l 564 1236 z "},"Õ":{"ha":1039,"x_min":0,"x_max":0,"o":"m 75 486 b 519 -14 73 180 265 -16 b 964 486 774 -16 966 180 b 519 986 966 792 774 989 b 75 486 265 989 73 792 z m 513 77 b 172 486 316 75 170 237 b 513 896 170 735 316 898 l 526 896 b 867 486 723 898 869 735 b 526 77 869 237 723 75 z m 517 1105 b 628 1055 568 1068 595 1055 b 747 1190 694 1055 747 1114 l 747 1222 l 678 1222 b 624 1132 678 1162 660 1132 b 564 1160 603 1132 587 1141 b 549 1171 560 1162 556 1166 l 502 1206 b 413 1236 475 1226 445 1236 b 290 1101 341 1236 290 1178 l 290 1069 l 360 1069 b 417 1160 360 1130 377 1160 b 473 1137 439 1160 453 1153 z "},"Œ":{"ha":1622,"x_min":0,"x_max":0,"o":"m 75 486 b 519 -14 73 180 265 -16 b 865 153 663 -14 786 46 l 865 0 l 1558 0 l 1558 90 l 962 90 l 962 456 l 1461 456 l 1461 546 l 962 546 l 962 882 l 1544 882 l 1544 972 l 865 972 l 865 819 b 519 986 786 927 663 986 b 75 486 265 989 73 792 z m 513 77 b 172 486 316 75 170 237 b 513 896 170 735 316 898 l 526 896 b 867 486 723 898 869 735 b 526 77 869 237 723 75 z "},"P":{"ha":880,"x_min":0,"x_max":0,"o":"m 135 0 l 232 0 l 232 400 l 524 400 b 829 685 692 398 831 503 b 524 972 832 867 692 974 l 135 972 z m 232 490 l 232 882 l 503 882 b 669 831 572 882 628 865 b 732 685 711 798 732 749 b 503 490 732 557 644 490 z "},"Þ":{"ha":900,"x_min":0,"x_max":0,"o":"m 135 0 l 232 0 l 232 208 l 539 208 b 829 488 713 208 829 311 b 539 764 829 665 713 764 l 232 764 l 232 972 l 135 972 z m 232 298 l 232 673 l 511 673 b 732 488 655 673 732 617 b 511 298 732 361 659 298 z "},"Q":{"ha":1039,"x_min":0,"x_max":0,"o":"m 639 -153 b 570 -83 590 -153 570 -132 l 570 -11 b 964 486 799 10 966 201 b 519 986 966 792 774 989 b 75 486 265 989 73 792 b 472 -12 73 199 241 8 l 472 -96 b 618 -243 472 -194 521 -243 l 844 -243 l 844 -153 z m 513 77 b 172 486 316 75 170 237 b 513 896 170 735 316 898 l 526 896 b 867 486 723 898 869 735 b 526 77 869 237 723 75 z "},"R":{"ha":937,"x_min":0,"x_max":0,"o":"m 135 0 l 232 0 l 232 410 l 656 410 b 718 347 697 410 718 389 l 718 0 l 815 0 l 815 347 b 682 479 815 443 779 479 b 789 568 728 498 763 527 b 829 713 816 610 829 658 b 532 972 832 860 699 975 l 135 972 z m 232 500 l 232 882 l 518 882 b 732 699 652 882 732 813 b 518 500 734 581 629 498 z "},"Ŕ":{"ha":937,"x_min":0,"x_max":0,"o":"m 135 0 l 232 0 l 232 410 l 656 410 b 718 347 697 410 718 389 l 718 0 l 815 0 l 815 347 b 682 479 815 443 779 479 b 789 568 728 498 763 527 b 829 713 816 610 829 658 b 532 972 832 860 699 975 l 135 972 z m 232 500 l 232 882 l 518 882 b 732 699 652 882 732 813 b 518 500 734 581 629 498 z m 410 1063 l 493 1063 l 608 1236 l 484 1236 z "},"Ř":{"ha":937,"x_min":0,"x_max":0,"o":"m 135 0 l 232 0 l 232 410 l 656 410 b 718 347 697 410 718 389 l 718 0 l 815 0 l 815 347 b 682 479 815 443 779 479 b 789 568 728 498 763 527 b 829 713 816 610 829 658 b 532 972 832 860 699 975 l 135 972 z m 232 500 l 232 882 l 518 882 b 732 699 652 882 732 813 b 518 500 734 581 629 498 z m 579 1236 l 451 1136 l 323 1236 l 229 1236 l 389 1063 l 513 1063 l 673 1236 z "},"Ŗ":{"ha":937,"x_min":0,"x_max":0,"o":"m 135 0 l 232 0 l 232 410 l 656 410 b 718 347 697 410 718 389 l 718 0 l 815 0 l 815 347 b 682 479 815 443 779 479 b 789 568 728 498 763 527 b 829 713 816 610 829 658 b 532 972 832 860 699 975 l 135 972 z m 232 500 l 232 882 l 518 882 b 732 699 652 882 732 813 b 518 500 734 581 629 498 z m 407 -347 l 420 -347 b 525 -243 483 -347 525 -307 l 525 -125 l 435 -125 l 435 -229 l 476 -229 l 476 -243 b 414 -298 476 -281 456 -298 l 407 -298 z "},"S":{"ha":859,"x_min":0,"x_max":0,"o":"m 58 306 b 433 -14 58 104 197 -14 b 772 262 639 -15 774 93 b 521 522 772 402 688 489 l 366 553 b 204 710 263 574 204 625 b 433 896 204 815 300 896 l 447 896 b 690 688 582 896 682 814 l 787 688 b 440 986 783 869 646 988 b 107 708 239 989 104 861 b 339 456 107 572 184 488 l 494 424 b 675 257 617 399 675 347 b 446 77 675 155 591 77 l 432 77 b 155 306 268 77 155 160 l 58 306 z "},"Ś":{"ha":859,"x_min":0,"x_max":0,"o":"m 58 306 b 433 -14 58 104 197 -14 b 772 262 639 -15 774 93 b 521 522 772 402 688 489 l 366 553 b 204 710 263 574 204 625 b 433 896 204 815 300 896 l 447 896 b 690 688 582 896 682 814 l 787 688 b 440 986 783 869 646 988 b 107 708 239 989 104 861 b 339 456 107 572 184 488 l 494 424 b 675 257 617 399 675 347 b 446 77 675 155 591 77 l 432 77 b 155 306 268 77 155 160 z m 398 1063 l 481 1063 l 597 1236 l 472 1236 z "},"Š":{"ha":859,"x_min":0,"x_max":0,"o":"m 58 306 b 433 -14 58 104 197 -14 b 772 262 639 -15 774 93 b 521 522 772 402 688 489 l 366 553 b 204 710 263 574 204 625 b 433 896 204 815 300 896 l 447 896 b 690 688 582 896 682 814 l 787 688 b 440 986 783 869 646 988 b 107 708 239 989 104 861 b 339 456 107 572 184 488 l 494 424 b 675 257 617 399 675 347 b 446 77 675 155 591 77 l 432 77 b 155 306 268 77 155 160 z m 568 1236 l 440 1136 l 313 1236 l 218 1236 l 378 1063 l 503 1063 l 663 1236 z "},"Ş":{"ha":859,"x_min":0,"x_max":0,"o":"m 772 262 b 521 522 772 402 688 489 l 366 553 b 204 710 263 574 204 625 b 433 896 204 815 300 896 l 447 896 b 690 688 582 896 682 814 l 787 688 b 440 986 783 869 646 988 b 107 708 239 989 104 861 b 339 456 107 572 184 488 l 494 424 b 675 257 617 399 675 347 b 446 77 675 155 591 77 l 432 77 b 155 306 268 77 155 160 l 58 306 b 401 -13 58 115 186 -3 l 401 -115 l 440 -115 b 509 -175 481 -115 509 -135 b 440 -236 509 -215 480 -236 l 353 -236 l 353 -313 l 439 -313 b 578 -175 528 -313 578 -253 b 464 -62 578 -107 524 -61 l 464 -13 b 772 262 654 -3 772 102 z "},"Ŝ":{"ha":859,"x_min":0,"x_max":0,"o":"m 58 306 b 433 -14 58 104 197 -14 b 772 262 639 -15 774 93 b 521 522 772 402 688 489 l 366 553 b 204 710 263 574 204 625 b 433 896 204 815 300 896 l 447 896 b 690 688 582 896 682 814 l 787 688 b 440 986 783 869 646 988 b 107 708 239 989 104 861 b 339 456 107 572 184 488 l 494 424 b 675 257 617 399 675 347 b 446 77 675 155 591 77 l 432 77 b 155 306 268 77 155 160 z m 663 1063 l 503 1236 l 378 1236 l 218 1063 l 313 1063 l 440 1162 l 568 1063 z "},"Ș":{"ha":859,"x_min":0,"x_max":0,"o":"m 58 306 b 433 -14 58 104 197 -14 b 772 262 639 -15 774 93 b 521 522 772 402 688 489 l 366 553 b 204 710 263 574 204 625 b 433 896 204 815 300 896 l 447 896 b 690 688 582 896 682 814 l 787 688 b 440 986 783 869 646 988 b 107 708 239 989 104 861 b 339 456 107 572 184 488 l 494 424 b 675 257 617 399 675 347 b 446 77 675 155 591 77 l 432 77 b 155 306 268 77 155 160 z m 359 -347 l 373 -347 b 477 -243 435 -347 477 -307 l 477 -125 l 387 -125 l 387 -229 l 429 -229 l 429 -243 b 366 -298 429 -281 409 -298 l 359 -298 z "},"ẞ":{"ha":893,"x_min":0,"x_max":0,"o":"m 135 0 l 232 0 l 232 882 l 481 882 b 611 838 534 882 578 867 b 661 714 644 809 661 768 b 489 538 661 604 589 538 l 385 538 l 385 447 l 524 447 b 670 401 585 447 633 431 b 725 269 707 370 725 327 b 522 90 725 153 642 90 l 385 90 l 385 0 l 543 0 b 822 268 698 -2 824 106 b 629 504 822 387 745 479 b 758 718 709 547 758 629 b 497 972 761 873 643 974 l 135 972 z "},"T":{"ha":847,"x_min":0,"x_max":0,"o":"m 375 0 l 472 0 l 472 882 l 827 882 l 827 972 l 21 972 l 21 882 l 375 882 z "},"Ŧ":{"ha":892,"x_min":0,"x_max":0,"o":"m 849 882 l 849 972 l 43 972 l 43 882 l 397 882 l 397 568 l 133 568 l 133 485 l 397 485 l 397 0 l 494 0 l 494 485 l 758 485 l 758 568 l 494 568 l 494 882 z "},"Ť":{"ha":847,"x_min":0,"x_max":0,"o":"m 375 0 l 472 0 l 472 882 l 827 882 l 827 972 l 21 972 l 21 882 l 375 882 z m 552 1236 l 424 1136 l 296 1236 l 201 1236 l 361 1063 l 486 1063 l 646 1236 z "},"Ţ":{"ha":847,"x_min":0,"x_max":0,"o":"m 472 0 l 472 882 l 827 882 l 827 972 l 21 972 l 21 882 l 375 882 l 375 0 l 391 0 l 391 -115 l 430 -115 b 498 -175 471 -115 498 -135 b 430 -236 498 -215 470 -236 l 342 -236 l 342 -313 l 429 -313 b 568 -175 518 -313 568 -253 b 454 -62 568 -107 513 -61 l 454 0 z "},"Ț":{"ha":847,"x_min":0,"x_max":0,"o":"m 375 0 l 472 0 l 472 882 l 827 882 l 827 972 l 21 972 l 21 882 l 375 882 z m 350 -347 l 363 -347 b 468 -243 426 -347 468 -307 l 468 -125 l 378 -125 l 378 -229 l 419 -229 l 419 -243 b 357 -298 419 -281 399 -298 l 350 -298 z "},"U":{"ha":958,"x_min":0,"x_max":0,"o":"m 125 347 b 479 -14 125 130 243 -14 b 833 347 709 -14 833 130 l 833 972 l 736 972 l 736 361 b 486 77 736 181 648 77 l 472 77 b 222 361 310 77 222 181 l 222 972 l 125 972 l 125 347 z "},"Ú":{"ha":958,"x_min":0,"x_max":0,"o":"m 125 347 b 479 -14 125 130 243 -14 b 833 347 709 -14 833 130 l 833 972 l 736 972 l 736 361 b 486 77 736 181 648 77 l 472 77 b 222 361 310 77 222 181 l 222 972 l 125 972 z m 437 1063 l 521 1063 l 636 1236 l 511 1236 z "},"Ŭ":{"ha":958,"x_min":0,"x_max":0,"o":"m 125 347 b 479 -14 125 130 243 -14 b 833 347 709 -14 833 130 l 833 972 l 736 972 l 736 361 b 486 77 736 181 648 77 l 472 77 b 222 361 310 77 222 181 l 222 972 l 125 972 z m 277 1236 b 479 1048 277 1116 359 1048 b 680 1236 598 1048 680 1116 l 604 1236 b 479 1125 597 1160 552 1125 b 354 1236 406 1125 360 1160 z "},"Û":{"ha":958,"x_min":0,"x_max":0,"o":"m 125 347 b 479 -14 125 130 243 -14 b 833 347 709 -14 833 130 l 833 972 l 736 972 l 736 361 b 486 77 736 181 648 77 l 472 77 b 222 361 310 77 222 181 l 222 972 l 125 972 z m 701 1063 l 541 1236 l 416 1236 l 256 1063 l 351 1063 l 479 1162 l 607 1063 z "},"Ü":{"ha":958,"x_min":0,"x_max":0,"o":"m 125 347 b 479 -14 125 130 243 -14 b 833 347 709 -14 833 130 l 833 972 l 736 972 l 736 361 b 486 77 736 181 648 77 l 472 77 b 222 361 310 77 222 181 l 222 972 l 125 972 z m 294 1083 l 406 1083 l 406 1194 l 294 1194 z m 553 1083 l 664 1083 l 664 1194 l 553 1194 z "},"Ụ":{"ha":958,"x_min":0,"x_max":0,"o":"m 125 347 b 479 -14 125 130 243 -14 b 833 347 709 -14 833 130 l 833 972 l 736 972 l 736 361 b 486 77 736 181 648 77 l 472 77 b 222 361 310 77 222 181 l 222 972 l 125 972 z m 433 -229 l 524 -229 l 524 -125 l 433 -125 z "},"Ù":{"ha":958,"x_min":0,"x_max":0,"o":"m 125 347 b 479 -14 125 130 243 -14 b 833 347 709 -14 833 130 l 833 972 l 736 972 l 736 361 b 486 77 736 181 648 77 l 472 77 b 222 361 310 77 222 181 l 222 972 l 125 972 z m 437 1063 l 521 1063 l 448 1236 l 322 1236 z "},"Ű":{"ha":958,"x_min":0,"x_max":0,"o":"m 125 347 b 479 -14 125 130 243 -14 b 833 347 709 -14 833 130 l 833 972 l 736 972 l 736 361 b 486 77 736 181 648 77 l 472 77 b 222 361 310 77 222 181 l 222 972 l 125 972 z m 328 1063 l 411 1063 l 526 1236 l 401 1236 z m 555 1063 l 639 1063 l 754 1236 l 629 1236 z "},"Ū":{"ha":958,"x_min":0,"x_max":0,"o":"m 125 347 b 479 -14 125 130 243 -14 b 833 347 709 -14 833 130 l 833 972 l 736 972 l 736 361 b 486 77 736 181 648 77 l 472 77 b 222 361 310 77 222 181 l 222 972 l 125 972 z m 287 1083 l 669 1083 l 669 1160 l 287 1160 z "},"Ų":{"ha":958,"x_min":0,"x_max":0,"o":"m 736 972 l 736 361 b 486 77 736 181 648 77 l 472 77 b 222 361 310 77 222 181 l 222 972 l 125 972 l 125 347 b 471 -14 125 133 239 -11 b 384 -153 413 -54 384 -100 b 523 -271 384 -231 439 -271 l 579 -271 l 579 -195 l 542 -195 b 471 -135 502 -195 471 -178 b 595 0 471 -84 524 -37 l 594 0 b 772 121 672 20 731 61 b 833 347 813 182 833 258 l 833 972 z "},"Ů":{"ha":958,"x_min":0,"x_max":0,"o":"m 125 347 b 479 -14 125 130 243 -14 b 833 347 709 -14 833 130 l 833 972 l 736 972 l 736 361 b 486 77 736 181 648 77 l 472 77 b 222 361 310 77 222 181 l 222 972 l 125 972 z m 369 1164 b 479 1054 369 1103 421 1054 b 589 1164 536 1054 589 1103 b 479 1274 589 1225 536 1274 b 369 1164 421 1274 369 1225 z m 525 1164 b 480 1117 525 1139 505 1117 b 433 1164 455 1117 433 1139 b 480 1211 433 1189 455 1211 b 525 1164 505 1211 525 1189 z "},"Ũ":{"ha":958,"x_min":0,"x_max":0,"o":"m 125 347 b 479 -14 125 130 243 -14 b 833 347 709 -14 833 130 l 833 972 l 736 972 l 736 361 b 486 77 736 181 648 77 l 472 77 b 222 361 310 77 222 181 l 222 972 l 125 972 z m 476 1105 b 587 1055 528 1068 555 1055 b 707 1190 653 1055 707 1114 l 707 1222 l 637 1222 b 583 1132 637 1162 619 1132 b 523 1160 562 1132 547 1141 b 508 1171 519 1162 515 1166 l 461 1206 b 372 1236 434 1226 404 1236 b 250 1101 300 1236 250 1178 l 250 1069 l 319 1069 b 376 1160 319 1130 336 1160 b 432 1137 398 1160 412 1153 z "},"V":{"ha":945,"x_min":0,"x_max":0,"o":"m 827 972 l 477 108 l 111 972 l 7 972 l 422 0 l 530 0 l 930 972 z "},"W":{"ha":1274,"x_min":0,"x_max":0,"o":"m 1141 972 l 929 83 l 711 972 l 567 972 l 352 75 l 134 972 l 35 972 l 275 0 l 422 0 l 637 873 l 851 0 l 999 0 l 1239 972 z "},"Ẃ":{"ha":1274,"x_min":0,"x_max":0,"o":"m 1141 972 l 929 83 l 711 972 l 567 972 l 352 75 l 134 972 l 35 972 l 275 0 l 422 0 l 637 873 l 851 0 l 999 0 l 1239 972 z m 595 1063 l 679 1063 l 794 1236 l 669 1236 z "},"Ŵ":{"ha":1274,"x_min":0,"x_max":0,"o":"m 1141 972 l 929 83 l 711 972 l 567 972 l 352 75 l 134 972 l 35 972 l 275 0 l 422 0 l 637 873 l 851 0 l 999 0 l 1239 972 z m 860 1063 l 700 1236 l 575 1236 l 415 1063 l 510 1063 l 637 1162 l 766 1063 z "},"Ẅ":{"ha":1274,"x_min":0,"x_max":0,"o":"m 1141 972 l 929 83 l 711 972 l 567 972 l 352 75 l 134 972 l 35 972 l 275 0 l 422 0 l 637 873 l 851 0 l 999 0 l 1239 972 z m 452 1083 l 564 1083 l 564 1194 l 452 1194 z m 711 1083 l 822 1083 l 822 1194 l 711 1194 z "},"Ẁ":{"ha":1274,"x_min":0,"x_max":0,"o":"m 1141 972 l 929 83 l 711 972 l 567 972 l 352 75 l 134 972 l 35 972 l 275 0 l 422 0 l 637 873 l 851 0 l 999 0 l 1239 972 z m 595 1063 l 679 1063 l 606 1236 l 480 1236 z "},"X":{"ha":865,"x_min":0,"x_max":0,"o":"m 847 0 l 489 498 l 832 972 l 720 972 l 433 576 l 149 972 l 33 972 l 376 496 l 17 0 l 129 0 l 431 418 l 732 0 z "},"Y":{"ha":825,"x_min":0,"x_max":0,"o":"m 708 972 l 414 492 l 119 972 l 9 972 l 364 403 l 364 0 l 461 0 l 461 403 l 815 972 z "},"Ý":{"ha":825,"x_min":0,"x_max":0,"o":"m 708 972 l 414 492 l 119 972 l 9 972 l 364 403 l 364 0 l 461 0 l 461 403 l 815 972 z m 372 1063 l 455 1063 l 570 1236 l 446 1236 z "},"Ŷ":{"ha":825,"x_min":0,"x_max":0,"o":"m 708 972 l 414 492 l 119 972 l 9 972 l 364 403 l 364 0 l 461 0 l 461 403 l 815 972 z m 636 1063 l 476 1236 l 351 1236 l 191 1063 l 286 1063 l 414 1162 l 542 1063 z "},"Ÿ":{"ha":825,"x_min":0,"x_max":0,"o":"m 708 972 l 414 492 l 119 972 l 9 972 l 364 403 l 364 0 l 461 0 l 461 403 l 815 972 z m 229 1083 l 340 1083 l 340 1194 l 229 1194 z m 487 1083 l 598 1083 l 598 1194 l 487 1194 z "},"Ỳ":{"ha":825,"x_min":0,"x_max":0,"o":"m 708 972 l 414 492 l 119 972 l 9 972 l 364 403 l 364 0 l 461 0 l 461 403 l 815 972 z m 372 1063 l 455 1063 l 382 1236 l 256 1236 z "},"Ȳ":{"ha":825,"x_min":0,"x_max":0,"o":"m 708 972 l 414 492 l 119 972 l 9 972 l 364 403 l 364 0 l 461 0 l 461 403 l 815 972 z m 222 1083 l 604 1083 l 604 1160 l 222 1160 z "},"Z":{"ha":828,"x_min":0,"x_max":0,"o":"m 57 0 l 772 0 l 772 90 l 163 90 l 758 876 l 758 972 l 71 972 l 71 882 l 648 882 l 57 103 z "},"Ź":{"ha":828,"x_min":0,"x_max":0,"o":"m 57 0 l 772 0 l 772 90 l 163 90 l 758 876 l 758 972 l 71 972 l 71 882 l 648 882 l 57 103 z m 373 1063 l 456 1063 l 572 1236 l 447 1236 z "},"Ž":{"ha":828,"x_min":0,"x_max":0,"o":"m 57 0 l 772 0 l 772 90 l 163 90 l 758 876 l 758 972 l 71 972 l 71 882 l 648 882 l 57 103 z m 543 1236 l 415 1136 l 288 1236 l 193 1236 l 353 1063 l 477 1063 l 637 1236 z "},"Ż":{"ha":828,"x_min":0,"x_max":0,"o":"m 57 0 l 772 0 l 772 90 l 163 90 l 758 876 l 758 972 l 71 972 l 71 882 l 648 882 l 57 103 z m 362 1083 l 467 1083 l 467 1202 l 362 1202 z "},"a":{"ha":724,"x_min":0,"x_max":0,"o":"m 627 0 b 619 153 622 33 619 83 l 619 444 b 351 708 619 590 526 708 b 85 500 205 710 91 622 l 175 500 b 230 597 180 542 198 574 b 349 632 262 621 302 632 l 355 632 b 529 444 463 632 529 563 l 529 416 l 310 400 b 141 344 244 395 188 376 b 71 192 94 312 71 261 b 290 -14 68 77 170 -16 b 536 111 408 -14 508 47 b 543 0 536 62 538 25 z m 529 250 b 314 62 532 152 408 60 l 300 62 b 161 197 222 62 161 121 b 328 329 161 273 227 321 l 529 343 z "},"á":{"ha":724,"x_min":0,"x_max":0,"o":"m 627 0 b 619 153 622 33 619 83 l 619 444 b 351 708 619 590 526 708 b 85 500 205 710 91 622 l 175 500 b 230 597 180 542 198 574 b 349 632 262 621 302 632 l 355 632 b 529 444 463 632 529 563 l 529 416 l 310 400 b 141 344 244 395 188 376 b 71 192 94 312 71 261 b 290 -14 68 77 170 -16 b 536 111 408 -14 508 47 b 543 0 536 62 538 25 z m 529 250 b 314 62 532 152 408 60 l 300 62 b 161 197 222 62 161 121 b 328 329 161 273 227 321 l 529 343 z m 321 791 l 389 791 l 511 972 l 400 972 z "},"ă":{"ha":724,"x_min":0,"x_max":0,"o":"m 627 0 b 619 153 622 33 619 83 l 619 444 b 351 708 619 590 526 708 b 85 500 205 710 91 622 l 175 500 b 230 597 180 542 198 574 b 349 632 262 621 302 632 l 355 632 b 529 444 463 632 529 563 l 529 416 l 310 400 b 141 344 244 395 188 376 b 71 192 94 312 71 261 b 290 -14 68 77 170 -16 b 536 111 408 -14 508 47 b 543 0 536 62 538 25 z m 529 250 b 314 62 532 152 408 60 l 300 62 b 161 197 222 62 161 121 b 328 329 161 273 227 321 l 529 343 z m 161 972 b 355 778 161 848 243 778 b 550 972 468 778 550 848 l 480 972 b 355 848 474 891 427 848 b 231 972 284 848 237 891 z "},"â":{"ha":724,"x_min":0,"x_max":0,"o":"m 627 0 b 619 153 622 33 619 83 l 619 444 b 351 708 619 590 526 708 b 85 500 205 710 91 622 l 175 500 b 230 597 180 542 198 574 b 349 632 262 621 302 632 l 355 632 b 529 444 463 632 529 563 l 529 416 l 310 400 b 141 344 244 395 188 376 b 71 192 94 312 71 261 b 290 -14 68 77 170 -16 b 536 111 408 -14 508 47 b 543 0 536 62 538 25 z m 529 250 b 314 62 532 152 408 60 l 300 62 b 161 197 222 62 161 121 b 328 329 161 273 227 321 l 529 343 z m 578 791 l 401 972 l 310 972 l 133 791 l 216 791 l 355 896 l 494 791 z "},"ä":{"ha":724,"x_min":0,"x_max":0,"o":"m 627 0 b 619 153 622 33 619 83 l 619 444 b 351 708 619 590 526 708 b 85 500 205 710 91 622 l 175 500 b 230 597 180 542 198 574 b 349 632 262 621 302 632 l 355 632 b 529 444 463 632 529 563 l 529 416 l 310 400 b 141 344 244 395 188 376 b 71 192 94 312 71 261 b 290 -14 68 77 170 -16 b 536 111 408 -14 508 47 b 543 0 536 62 538 25 z m 529 250 b 314 62 532 152 408 60 l 300 62 b 161 197 222 62 161 121 b 328 329 161 273 227 321 l 529 343 z m 182 819 l 286 819 l 286 930 l 182 930 z m 425 819 l 529 819 l 529 930 l 425 930 z "},"ȧ":{"ha":724,"x_min":0,"x_max":0,"o":"m 627 0 b 619 153 622 33 619 83 l 619 444 b 351 708 619 590 526 708 b 85 500 205 710 91 622 l 175 500 b 230 597 180 542 198 574 b 349 632 262 621 302 632 l 355 632 b 529 444 463 632 529 563 l 529 416 l 310 400 b 141 344 244 395 188 376 b 71 192 94 312 71 261 b 290 -14 68 77 170 -16 b 536 111 408 -14 508 47 b 543 0 536 62 538 25 z m 529 250 b 314 62 532 152 408 60 l 300 62 b 161 197 222 62 161 121 b 328 329 161 273 227 321 l 529 343 z m 302 819 l 407 819 l 407 937 l 302 937 z "},"ạ":{"ha":724,"x_min":0,"x_max":0,"o":"m 627 0 b 619 153 622 33 619 83 l 619 444 b 351 708 619 590 526 708 b 85 500 205 710 91 622 l 175 500 b 230 597 180 542 198 574 b 349 632 262 621 302 632 l 355 632 b 529 444 463 632 529 563 l 529 416 l 310 400 b 141 344 244 395 188 376 b 71 192 94 312 71 261 b 290 -14 68 77 170 -16 b 536 111 408 -14 508 47 b 543 0 536 62 538 25 z m 529 250 b 314 62 532 152 408 60 l 300 62 b 161 197 222 62 161 121 b 328 329 161 273 227 321 l 529 343 z m 289 -229 l 380 -229 l 380 -125 l 289 -125 z "},"à":{"ha":724,"x_min":0,"x_max":0,"o":"m 627 0 b 619 153 622 33 619 83 l 619 444 b 351 708 619 590 526 708 b 85 500 205 710 91 622 l 175 500 b 230 597 180 542 198 574 b 349 632 262 621 302 632 l 355 632 b 529 444 463 632 529 563 l 529 416 l 310 400 b 141 344 244 395 188 376 b 71 192 94 312 71 261 b 290 -14 68 77 170 -16 b 536 111 408 -14 508 47 b 543 0 536 62 538 25 z m 529 250 b 314 62 532 152 408 60 l 300 62 b 161 197 222 62 161 121 b 328 329 161 273 227 321 l 529 343 z m 321 791 l 389 791 l 309 972 l 198 972 z "},"ā":{"ha":724,"x_min":0,"x_max":0,"o":"m 627 0 b 619 153 622 33 619 83 l 619 444 b 351 708 619 590 526 708 b 85 500 205 710 91 622 l 175 500 b 230 597 180 542 198 574 b 349 632 262 621 302 632 l 355 632 b 529 444 463 632 529 563 l 529 416 l 310 400 b 141 344 244 395 188 376 b 71 192 94 312 71 261 b 290 -14 68 77 170 -16 b 536 111 408 -14 508 47 b 543 0 536 62 538 25 z m 529 250 b 314 62 532 152 408 60 l 300 62 b 161 197 222 62 161 121 b 328 329 161 273 227 321 l 529 343 z m 163 819 l 546 819 l 546 896 l 163 896 z "},"ą":{"ha":724,"x_min":0,"x_max":0,"o":"m 574 -195 b 503 -135 534 -195 503 -178 b 627 0 503 -84 555 -37 b 619 153 622 33 619 83 l 619 444 b 351 708 619 590 526 708 b 85 500 205 710 91 622 l 175 500 b 230 597 180 542 198 574 b 349 632 262 621 302 632 l 355 632 b 529 444 463 632 529 563 l 529 416 l 310 400 b 141 344 244 395 188 376 b 71 192 94 312 71 261 b 290 -14 68 77 170 -16 b 536 111 408 -14 508 47 b 542 10 536 71 538 37 b 453 -57 508 -8 478 -31 b 416 -153 428 -84 416 -116 b 555 -271 416 -231 471 -271 l 611 -271 l 611 -195 z m 529 250 b 314 62 532 152 408 60 l 300 62 b 161 197 222 62 161 121 b 328 329 161 273 227 321 l 529 343 z "},"å":{"ha":724,"x_min":0,"x_max":0,"o":"m 627 0 b 619 153 622 33 619 83 l 619 444 b 351 708 619 590 526 708 b 85 500 205 710 91 622 l 175 500 b 230 597 180 542 198 574 b 349 632 262 621 302 632 l 355 632 b 529 444 463 632 529 563 l 529 416 l 310 400 b 141 344 244 395 188 376 b 71 192 94 312 71 261 b 290 -14 68 77 170 -16 b 536 111 408 -14 508 47 b 543 0 536 62 538 25 z m 529 250 b 314 62 532 152 408 60 l 300 62 b 161 197 222 62 161 121 b 328 329 161 273 227 321 l 529 343 z m 239 901 b 355 785 239 835 294 785 b 473 901 417 785 473 835 b 355 1018 473 968 417 1018 b 239 901 294 1018 239 968 z m 417 901 b 357 839 417 867 391 839 b 296 901 323 839 296 867 b 357 964 296 936 323 964 b 417 901 391 964 417 936 z "},"ǻ":{"ha":724,"x_min":0,"x_max":0,"o":"m 627 0 b 619 153 622 33 619 83 l 619 444 b 351 708 619 590 526 708 b 85 500 205 710 91 622 l 175 500 b 230 597 180 542 198 574 b 349 632 262 621 302 632 l 355 632 b 529 444 463 632 529 563 l 529 416 l 310 400 b 141 344 244 395 188 376 b 71 192 94 312 71 261 b 290 -14 68 77 170 -16 b 536 111 408 -14 508 47 b 543 0 536 62 538 25 z m 529 250 b 314 62 532 152 408 60 l 300 62 b 161 197 222 62 161 121 b 328 329 161 273 227 321 l 529 343 z m 318 1064 l 387 1064 l 509 1244 l 397 1244 z m 239 896 b 355 779 239 829 294 779 b 473 896 417 779 473 829 b 355 1013 473 962 417 1013 b 239 896 294 1013 239 962 z m 417 896 b 357 835 417 863 391 835 b 296 896 324 835 296 863 b 357 957 296 929 324 957 b 417 896 391 957 417 929 z "},"ã":{"ha":724,"x_min":0,"x_max":0,"o":"m 627 0 b 619 153 622 33 619 83 l 619 444 b 351 708 619 590 526 708 b 85 500 205 710 91 622 l 175 500 b 230 597 180 542 198 574 b 349 632 262 621 302 632 l 355 632 b 529 444 463 632 529 563 l 529 416 l 310 400 b 141 344 244 395 188 376 b 71 192 94 312 71 261 b 290 -14 68 77 170 -16 b 536 111 408 -14 508 47 b 543 0 536 62 538 25 z m 529 250 b 314 62 532 152 408 60 l 300 62 b 161 197 222 62 161 121 b 328 329 161 273 227 321 l 529 343 z m 353 828 b 464 778 404 791 431 778 b 583 913 530 778 583 836 l 583 945 l 514 945 b 460 854 514 884 496 854 b 398 883 438 854 422 864 l 385 893 l 338 928 b 249 958 311 948 281 958 b 126 823 177 958 126 900 l 126 791 l 196 791 b 253 882 196 852 213 882 b 309 860 275 882 288 874 z "},"æ":{"ha":1177,"x_min":0,"x_max":0,"o":"m 71 192 b 304 -14 68 77 176 -16 b 567 131 423 -14 516 42 b 825 -14 622 37 714 -14 b 1007 41 897 -14 958 5 b 1104 199 1057 78 1089 130 l 1014 199 b 832 62 988 108 928 62 l 823 62 b 606 340 706 62 608 151 l 1105 340 l 1105 396 b 825 708 1107 572 990 710 b 575 576 724 708 632 663 b 345 708 534 658 455 708 b 85 500 201 710 91 622 l 175 500 b 229 597 180 542 197 574 b 342 632 260 621 298 632 l 349 632 b 515 444 452 632 515 563 l 515 424 l 302 407 b 139 349 239 402 184 382 b 71 192 94 316 71 263 z m 608 416 b 817 632 627 574 722 632 l 831 632 b 1015 416 939 632 1011 541 z m 307 62 b 161 197 224 62 161 121 b 205 292 161 236 176 268 b 321 334 234 316 273 330 l 515 347 l 515 261 b 321 62 519 158 410 60 z "},"ǽ":{"ha":1177,"x_min":0,"x_max":0,"o":"m 71 192 b 304 -14 68 77 176 -16 b 567 131 423 -14 516 42 b 825 -14 622 37 714 -14 b 1007 41 897 -14 958 5 b 1104 199 1057 78 1089 130 l 1014 199 b 832 62 988 108 928 62 l 823 62 b 606 340 706 62 608 151 l 1105 340 l 1105 396 b 825 708 1107 572 990 710 b 575 576 724 708 632 663 b 345 708 534 658 455 708 b 85 500 201 710 91 622 l 175 500 b 229 597 180 542 197 574 b 342 632 260 621 298 632 l 349 632 b 515 444 452 632 515 563 l 515 424 l 302 407 b 139 349 239 402 184 382 b 71 192 94 316 71 263 z m 608 416 b 817 632 627 574 722 632 l 831 632 b 1015 416 939 632 1011 541 z m 307 62 b 161 197 224 62 161 121 b 205 292 161 236 176 268 b 321 334 234 316 273 330 l 515 347 l 515 261 b 321 62 519 158 410 60 z m 544 791 l 612 791 l 734 972 l 623 972 z "},"ǣ":{"ha":1177,"x_min":0,"x_max":0,"o":"m 71 192 b 304 -14 68 77 176 -16 b 567 131 423 -14 516 42 b 825 -14 622 37 714 -14 b 1007 41 897 -14 958 5 b 1104 199 1057 78 1089 130 l 1014 199 b 832 62 988 108 928 62 l 823 62 b 606 340 706 62 608 151 l 1105 340 l 1105 396 b 825 708 1107 572 990 710 b 575 576 724 708 632 663 b 345 708 534 658 455 708 b 85 500 201 710 91 622 l 175 500 b 229 597 180 542 197 574 b 342 632 260 621 298 632 l 349 632 b 515 444 452 632 515 563 l 515 424 l 302 407 b 139 349 239 402 184 382 b 71 192 94 316 71 263 z m 608 416 b 817 632 627 574 722 632 l 831 632 b 1015 416 939 632 1011 541 z m 307 62 b 161 197 224 62 161 121 b 205 292 161 236 176 268 b 321 334 234 316 273 330 l 515 347 l 515 261 b 321 62 519 158 410 60 z m 387 819 l 770 819 l 770 896 l 387 896 z "},"b":{"ha":812,"x_min":0,"x_max":0,"o":"m 201 111 b 433 -14 242 36 342 -14 b 743 347 612 -16 745 130 b 433 708 745 565 612 710 b 201 583 342 708 242 659 l 201 972 l 111 972 l 111 0 l 201 0 z m 424 62 b 201 347 278 60 200 195 b 424 632 200 500 278 634 l 431 632 b 652 347 574 634 653 500 b 431 62 653 195 574 60 z "},"c":{"ha":724,"x_min":0,"x_max":0,"o":"m 69 347 b 389 -14 68 142 188 -16 b 570 50 463 -14 524 7 b 660 222 617 92 647 150 l 570 222 b 509 107 560 176 540 138 b 396 62 479 77 441 62 l 382 62 b 160 347 236 60 159 193 b 382 632 159 501 236 634 l 396 632 b 511 588 441 632 480 617 b 570 472 542 559 562 520 l 660 472 b 389 708 646 617 538 708 b 69 347 188 711 68 552 z "},"ć":{"ha":724,"x_min":0,"x_max":0,"o":"m 69 347 b 389 -14 68 142 188 -16 b 570 50 463 -14 524 7 b 660 222 617 92 647 150 l 570 222 b 509 107 560 176 540 138 b 396 62 479 77 441 62 l 382 62 b 160 347 236 60 159 193 b 382 632 159 501 236 634 l 396 632 b 511 588 441 632 480 617 b 570 472 542 559 562 520 l 660 472 b 389 708 646 617 538 708 b 69 347 188 711 68 552 z m 350 791 l 418 791 l 541 972 l 429 972 z "},"č":{"ha":724,"x_min":0,"x_max":0,"o":"m 69 347 b 389 -14 68 142 188 -16 b 570 50 463 -14 524 7 b 660 222 617 92 647 150 l 570 222 b 509 107 560 176 540 138 b 396 62 479 77 441 62 l 382 62 b 160 347 236 60 159 193 b 382 632 159 501 236 634 l 396 632 b 511 588 441 632 480 617 b 570 472 542 559 562 520 l 660 472 b 389 708 646 617 538 708 b 69 347 188 711 68 552 z m 524 972 l 385 868 l 245 972 l 162 972 l 339 791 l 431 791 l 607 972 z "},"ç":{"ha":722,"x_min":0,"x_max":0,"o":"m 568 222 b 508 107 559 176 538 138 b 395 62 477 77 439 62 l 380 62 b 159 347 235 60 158 193 b 380 632 158 501 235 634 l 395 632 b 509 588 440 632 479 617 b 568 472 541 559 560 520 l 659 472 b 387 708 645 617 537 708 b 68 347 186 711 66 552 b 346 -12 66 157 171 5 l 346 -115 l 385 -115 b 453 -175 425 -115 453 -135 b 385 -236 453 -215 425 -236 l 297 -236 l 297 -313 l 383 -313 b 522 -175 473 -313 522 -253 b 408 -62 522 -107 468 -61 l 408 -13 b 659 222 545 -5 634 84 l 568 222 z "},"ĉ":{"ha":724,"x_min":0,"x_max":0,"o":"m 69 347 b 389 -14 68 142 188 -16 b 570 50 463 -14 524 7 b 660 222 617 92 647 150 l 570 222 b 509 107 560 176 540 138 b 396 62 479 77 441 62 l 382 62 b 160 347 236 60 159 193 b 382 632 159 501 236 634 l 396 632 b 511 588 441 632 480 617 b 570 472 542 559 562 520 l 660 472 b 389 708 646 617 538 708 b 69 347 188 711 68 552 z m 607 791 l 431 972 l 339 972 l 162 791 l 245 791 l 385 896 l 524 791 z "},"ċ":{"ha":724,"x_min":0,"x_max":0,"o":"m 69 347 b 389 -14 68 142 188 -16 b 570 50 463 -14 524 7 b 660 222 617 92 647 150 l 570 222 b 509 107 560 176 540 138 b 396 62 479 77 441 62 l 382 62 b 160 347 236 60 159 193 b 382 632 159 501 236 634 l 396 632 b 511 588 441 632 480 617 b 570 472 542 559 562 520 l 660 472 b 389 708 646 617 538 708 b 69 347 188 711 68 552 z m 332 819 l 436 819 l 436 937 l 332 937 z "},"d":{"ha":812,"x_min":0,"x_max":0,"o":"m 69 347 b 379 -14 67 130 200 -16 b 611 111 470 -14 570 36 l 611 0 l 701 0 l 701 972 l 611 972 l 611 583 b 379 708 570 659 470 708 b 69 347 200 710 67 565 z m 382 62 b 161 347 239 60 160 195 b 382 632 160 500 239 634 l 389 632 b 611 347 534 634 612 500 b 389 62 612 195 534 60 z "},"ð":{"ha":782,"x_min":0,"x_max":0,"o":"m 700 386 b 559 839 700 578 652 736 l 656 904 l 614 962 l 506 888 b 231 972 431 945 339 972 l 231 889 b 433 838 307 889 374 872 l 338 772 l 376 717 l 491 793 b 604 566 553 736 591 657 b 498 635 574 595 540 618 b 380 660 458 652 418 660 b 68 335 193 663 66 515 b 380 -14 65 137 192 -16 b 700 386 575 -16 702 142 z m 610 334 b 387 62 611 182 528 61 l 380 62 b 158 335 240 60 157 183 b 374 583 158 475 233 583 l 387 583 b 610 334 528 583 610 473 z "},"ď":{"ha":838,"x_min":0,"x_max":0,"o":"m 69 347 b 379 -14 67 130 200 -16 b 611 111 470 -14 570 36 l 611 0 l 701 0 l 701 972 l 611 972 l 611 583 b 379 708 570 659 470 708 b 69 347 200 710 67 565 z m 382 62 b 161 347 239 60 160 195 b 382 632 160 500 239 634 l 389 632 b 611 347 534 634 612 500 b 389 62 612 195 534 60 z m 764 750 l 777 750 b 882 854 840 750 882 790 l 882 972 l 791 972 l 791 868 l 833 868 l 833 854 b 770 799 833 817 813 799 l 764 799 z "},"đ":{"ha":812,"x_min":0,"x_max":0,"o":"m 812 868 l 701 868 l 701 972 l 611 972 l 611 868 l 389 868 l 389 799 l 611 799 l 611 583 b 379 708 570 659 470 708 b 69 347 200 710 67 565 b 379 -14 67 130 200 -16 b 611 111 470 -14 570 36 l 611 0 l 701 0 l 701 799 l 812 799 z m 611 347 b 389 62 612 195 534 60 l 382 62 b 161 347 239 60 160 195 b 382 632 160 500 239 634 l 389 632 b 611 347 534 634 612 500 z "},"e":{"ha":730,"x_min":0,"x_max":0,"o":"m 69 349 b 379 -14 67 117 205 -16 b 562 41 452 -14 512 5 b 659 199 611 78 644 130 l 568 199 b 386 62 542 106 481 62 l 378 62 b 160 340 259 62 163 150 l 660 340 l 660 396 b 379 708 662 572 545 710 b 69 349 216 710 66 582 z m 163 416 b 371 632 180 574 277 632 l 385 632 b 570 416 492 632 566 541 z "},"é":{"ha":730,"x_min":0,"x_max":0,"o":"m 69 349 b 379 -14 67 117 205 -16 b 562 41 452 -14 512 5 b 659 199 611 78 644 130 l 568 199 b 386 62 542 106 481 62 l 378 62 b 160 340 259 62 163 150 l 660 340 l 660 396 b 379 708 662 572 545 710 b 69 349 216 710 66 582 z m 163 416 b 371 632 180 574 277 632 l 385 632 b 570 416 492 632 566 541 z m 344 791 l 412 791 l 534 972 l 423 972 z "},"ĕ":{"ha":730,"x_min":0,"x_max":0,"o":"m 69 349 b 379 -14 67 117 205 -16 b 562 41 452 -14 512 5 b 659 199 611 78 644 130 l 568 199 b 386 62 542 106 481 62 l 378 62 b 160 340 259 62 163 150 l 660 340 l 660 396 b 379 708 662 572 545 710 b 69 349 216 710 66 582 z m 163 416 b 371 632 180 574 277 632 l 385 632 b 570 416 492 632 566 541 z m 184 972 b 379 778 184 848 267 778 b 574 972 492 778 574 848 l 504 972 b 379 848 498 891 450 848 b 254 972 308 848 260 891 z "},"ě":{"ha":730,"x_min":0,"x_max":0,"o":"m 69 349 b 379 -14 67 117 205 -16 b 562 41 452 -14 512 5 b 659 199 611 78 644 130 l 568 199 b 386 62 542 106 481 62 l 378 62 b 160 340 259 62 163 150 l 660 340 l 660 396 b 379 708 662 572 545 710 b 69 349 216 710 66 582 z m 163 416 b 371 632 180 574 277 632 l 385 632 b 570 416 492 632 566 541 z m 518 972 l 379 868 l 240 972 l 157 972 l 334 791 l 425 791 l 602 972 z "},"ê":{"ha":730,"x_min":0,"x_max":0,"o":"m 69 349 b 379 -14 67 117 205 -16 b 562 41 452 -14 512 5 b 659 199 611 78 644 130 l 568 199 b 386 62 542 106 481 62 l 378 62 b 160 340 259 62 163 150 l 660 340 l 660 396 b 379 708 662 572 545 710 b 69 349 216 710 66 582 z m 163 416 b 371 632 180 574 277 632 l 385 632 b 570 416 492 632 566 541 z m 602 791 l 425 972 l 334 972 l 157 791 l 240 791 l 379 896 l 518 791 z "},"ë":{"ha":730,"x_min":0,"x_max":0,"o":"m 69 349 b 379 -14 67 117 205 -16 b 562 41 452 -14 512 5 b 659 199 611 78 644 130 l 568 199 b 386 62 542 106 481 62 l 378 62 b 160 340 259 62 163 150 l 660 340 l 660 396 b 379 708 662 572 545 710 b 69 349 216 710 66 582 z m 163 416 b 371 632 180 574 277 632 l 385 632 b 570 416 492 632 566 541 z m 205 819 l 310 819 l 310 930 l 205 930 z m 449 819 l 553 819 l 553 930 l 449 930 z "},"ė":{"ha":730,"x_min":0,"x_max":0,"o":"m 69 349 b 379 -14 67 117 205 -16 b 562 41 452 -14 512 5 b 659 199 611 78 644 130 l 568 199 b 386 62 542 106 481 62 l 378 62 b 160 340 259 62 163 150 l 660 340 l 660 396 b 379 708 662 572 545 710 b 69 349 216 710 66 582 z m 163 416 b 371 632 180 574 277 632 l 385 632 b 570 416 492 632 566 541 z m 326 819 l 431 819 l 431 937 l 326 937 z "},"ẹ":{"ha":730,"x_min":0,"x_max":0,"o":"m 69 349 b 379 -14 67 117 205 -16 b 562 41 452 -14 512 5 b 659 199 611 78 644 130 l 568 199 b 386 62 542 106 481 62 l 378 62 b 160 340 259 62 163 150 l 660 340 l 660 396 b 379 708 662 572 545 710 b 69 349 216 710 66 582 z m 163 416 b 371 632 180 574 277 632 l 385 632 b 570 416 492 632 566 541 z m 334 -229 l 425 -229 l 425 -125 l 334 -125 z "},"è":{"ha":730,"x_min":0,"x_max":0,"o":"m 69 349 b 379 -14 67 117 205 -16 b 562 41 452 -14 512 5 b 659 199 611 78 644 130 l 568 199 b 386 62 542 106 481 62 l 378 62 b 160 340 259 62 163 150 l 660 340 l 660 396 b 379 708 662 572 545 710 b 69 349 216 710 66 582 z m 163 416 b 371 632 180 574 277 632 l 385 632 b 570 416 492 632 566 541 z m 345 791 l 412 791 l 333 972 l 222 972 z "},"ē":{"ha":730,"x_min":0,"x_max":0,"o":"m 69 349 b 379 -14 67 117 205 -16 b 562 41 452 -14 512 5 b 659 199 611 78 644 130 l 568 199 b 386 62 542 106 481 62 l 378 62 b 160 340 259 62 163 150 l 660 340 l 660 396 b 379 708 662 572 545 710 b 69 349 216 710 66 582 z m 163 416 b 371 632 180 574 277 632 l 385 632 b 570 416 492 632 566 541 z m 187 819 l 570 819 l 570 896 l 187 896 z "},"ę":{"ha":730,"x_min":0,"x_max":0,"o":"m 660 396 b 379 708 662 572 545 710 b 69 349 216 710 66 582 b 354 -13 67 128 191 -2 b 267 -153 303 -48 267 -94 b 406 -271 267 -231 321 -271 l 462 -271 l 462 -195 l 425 -195 b 354 -135 385 -195 354 -178 b 477 -1 354 -84 406 -38 b 659 199 571 27 636 96 l 568 199 b 386 62 542 106 481 62 l 378 62 b 160 340 259 62 163 150 l 660 340 z m 163 416 b 371 632 180 574 277 632 l 385 632 b 570 416 492 632 566 541 z "},"f":{"ha":488,"x_min":0,"x_max":0,"o":"m 189 0 l 279 0 l 279 618 l 460 618 l 460 694 l 279 694 l 279 840 b 335 896 279 882 294 896 l 494 896 l 494 972 l 321 972 b 189 847 229 972 189 937 l 189 694 l 29 694 l 29 618 l 189 618 z "},"g":{"ha":802,"x_min":0,"x_max":0,"o":"m 56 -97 b 370 -306 70 -224 176 -306 b 690 5 566 -309 692 -174 l 690 694 l 600 694 l 600 583 b 370 708 557 662 478 708 b 69 347 197 710 67 565 b 370 0 67 130 196 -2 b 600 125 478 0 557 46 l 600 12 b 376 -229 600 -155 500 -229 l 363 -229 b 146 -97 243 -229 164 -184 z m 372 77 b 160 347 246 77 160 176 b 372 632 160 519 247 632 l 386 632 b 600 347 511 632 600 519 b 386 77 600 176 512 77 z "},"ğ":{"ha":802,"x_min":0,"x_max":0,"o":"m 56 -97 b 370 -306 70 -224 176 -306 b 690 5 566 -309 692 -174 l 690 694 l 600 694 l 600 583 b 370 708 557 662 478 708 b 69 347 197 710 67 565 b 370 0 67 130 196 -2 b 600 125 478 0 557 46 l 600 12 b 376 -229 600 -155 500 -229 l 363 -229 b 146 -97 243 -229 164 -184 z m 372 77 b 160 347 246 77 160 176 b 372 632 160 519 247 632 l 386 632 b 600 347 511 632 600 519 b 386 77 600 176 512 77 z m 194 972 b 389 778 194 848 276 778 b 583 972 501 778 583 848 l 513 972 b 389 848 507 891 460 848 b 264 972 317 848 270 891 z "},"ĝ":{"ha":802,"x_min":0,"x_max":0,"o":"m 56 -97 b 370 -306 70 -224 176 -306 b 690 5 566 -309 692 -174 l 690 694 l 600 694 l 600 583 b 370 708 557 662 478 708 b 69 347 197 710 67 565 b 370 0 67 130 196 -2 b 600 125 478 0 557 46 l 600 12 b 376 -229 600 -155 500 -229 l 363 -229 b 146 -97 243 -229 164 -184 z m 372 77 b 160 347 246 77 160 176 b 372 632 160 519 247 632 l 386 632 b 600 347 511 632 600 519 b 386 77 600 176 512 77 z m 611 791 l 435 972 l 343 972 l 166 791 l 250 791 l 389 896 l 528 791 z "},"ģ":{"ha":802,"x_min":0,"x_max":0,"o":"m 56 -97 b 370 -306 70 -224 176 -306 b 690 5 566 -309 692 -174 l 690 694 l 600 694 l 600 583 b 370 708 557 662 478 708 b 69 347 197 710 67 565 b 370 0 67 130 196 -2 b 600 125 478 0 557 46 l 600 12 b 376 -229 600 -155 500 -229 l 363 -229 b 146 -97 243 -229 164 -184 z m 372 77 b 160 347 246 77 160 176 b 372 632 160 519 247 632 l 386 632 b 600 347 511 632 600 519 b 386 77 600 176 512 77 z m 461 1051 l 448 1051 b 343 947 385 1051 343 1011 l 343 829 l 433 829 l 433 933 l 392 933 l 392 947 b 454 1002 392 985 412 1002 l 461 1002 z "},"ġ":{"ha":802,"x_min":0,"x_max":0,"o":"m 56 -97 b 370 -306 70 -224 176 -306 b 690 5 566 -309 692 -174 l 690 694 l 600 694 l 600 583 b 370 708 557 662 478 708 b 69 347 197 710 67 565 b 370 0 67 130 196 -2 b 600 125 478 0 557 46 l 600 12 b 376 -229 600 -155 500 -229 l 363 -229 b 146 -97 243 -229 164 -184 z m 372 77 b 160 347 246 77 160 176 b 372 632 160 519 247 632 l 386 632 b 600 347 511 632 600 519 b 386 77 600 176 512 77 z m 336 819 l 440 819 l 440 937 l 336 937 z "},"h":{"ha":791,"x_min":0,"x_max":0,"o":"m 111 0 l 201 0 l 201 375 b 416 632 199 530 310 634 l 431 632 b 597 431 542 632 597 564 l 597 0 l 688 0 l 688 458 b 452 708 688 606 604 708 b 201 576 337 708 250 660 l 201 972 l 111 972 z "},"ħ":{"ha":791,"x_min":0,"x_max":0,"o":"m 688 458 b 452 708 688 606 604 708 b 201 576 337 708 250 660 l 201 799 l 436 799 l 436 868 l 201 868 l 201 972 l 111 972 l 111 868 l 12 868 l 12 799 l 111 799 l 111 0 l 201 0 l 201 375 b 416 632 199 530 310 634 l 431 632 b 597 431 542 632 597 564 l 597 0 l 688 0 l 688 458 z "},"ĥ":{"ha":791,"x_min":0,"x_max":0,"o":"m 111 0 l 201 0 l 201 375 b 416 632 199 530 310 634 l 431 632 b 597 431 542 632 597 564 l 597 0 l 688 0 l 688 458 b 452 708 688 606 604 708 b 201 576 337 708 250 660 l 201 972 l 111 972 z m 644 1055 l 468 1236 l 376 1236 l 199 1055 l 283 1055 l 422 1160 l 561 1055 z "},"i":{"ha":313,"x_min":0,"x_max":0,"o":"m 104 819 l 208 819 l 208 937 l 104 937 z m 111 0 l 201 0 l 201 694 l 111 694 z "},"ı":{"ha":313,"x_min":0,"x_max":0,"o":"m 111 0 l 201 0 l 201 694 l 111 694 z "},"í":{"ha":313,"x_min":0,"x_max":0,"o":"m 111 0 l 201 0 l 201 694 l 111 694 z m 122 791 l 191 791 l 313 972 l 201 972 z "},"ĭ":{"ha":313,"x_min":0,"x_max":0,"o":"m 111 0 l 201 0 l 201 694 l 111 694 z m -38 972 b 157 778 -38 848 44 778 b 351 972 269 778 351 848 l 281 972 b 157 848 275 891 228 848 b 32 972 85 848 38 891 z "},"î":{"ha":313,"x_min":0,"x_max":0,"o":"m 111 0 l 201 0 l 201 694 l 111 694 z m 379 791 l 203 972 l 111 972 l -66 791 l 18 791 l 157 896 l 296 791 z "},"ï":{"ha":313,"x_min":0,"x_max":0,"o":"m 111 0 l 201 0 l 201 694 l 111 694 z m -17 819 l 87 819 l 87 930 l -17 930 z m 227 819 l 330 819 l 330 930 l 227 930 z "},"ị":{"ha":313,"x_min":0,"x_max":0,"o":"m 104 819 l 208 819 l 208 937 l 104 937 z m 111 0 l 201 0 l 201 694 l 111 694 z m 112 -229 l 203 -229 l 203 -125 l 112 -125 z "},"ì":{"ha":313,"x_min":0,"x_max":0,"o":"m 111 0 l 201 0 l 201 694 l 111 694 z m 123 791 l 191 791 l 111 972 l 0 972 z "},"ĳ":{"ha":660,"x_min":0,"x_max":0,"o":"m 104 819 l 208 819 l 208 937 l 104 937 z m 452 819 l 555 819 l 555 937 l 452 937 z m 111 -229 l 416 -229 b 549 -104 509 -229 549 -194 l 549 694 l 458 694 l 458 -97 b 403 -153 458 -138 444 -153 l 111 -153 z m 111 0 l 201 0 l 201 694 l 111 694 z "},"ī":{"ha":313,"x_min":0,"x_max":0,"o":"m 111 0 l 201 0 l 201 694 l 111 694 z m -35 819 l 347 819 l 347 896 l -35 896 z "},"į":{"ha":313,"x_min":0,"x_max":0,"o":"m 104 937 l 104 819 l 208 819 l 208 937 z m 111 7 b 26 -59 78 -11 50 -33 b -9 -153 2 -85 -9 -117 b 130 -271 -9 -231 45 -271 l 186 -271 l 186 -195 l 149 -195 b 78 -135 109 -195 78 -178 b 201 0 78 -84 130 -37 l 201 694 l 111 694 z "},"ĩ":{"ha":313,"x_min":0,"x_max":0,"o":"m 111 0 l 201 0 l 201 694 l 111 694 z m 154 828 b 265 778 205 791 233 778 b 385 913 331 778 385 836 l 385 945 l 315 945 b 261 854 315 884 297 854 b 199 883 239 854 223 864 l 186 893 l 139 928 b 50 958 113 948 83 958 b -73 823 -22 958 -73 900 l -73 791 l -3 791 b 54 882 -3 852 14 882 b 110 860 76 882 89 874 z "},"j":{"ha":323,"x_min":0,"x_max":0,"o":"m 115 819 l 220 819 l 220 937 l 115 937 z m -114 -229 l 81 -229 b 212 -104 172 -229 212 -193 l 212 694 l 122 694 l 122 -97 b 66 -153 122 -140 109 -153 l -114 -153 z "},"ȷ":{"ha":323,"x_min":0,"x_max":0,"o":"m -114 -229 l 81 -229 b 212 -104 172 -229 212 -193 l 212 694 l 122 694 l 122 -97 b 66 -153 122 -140 109 -153 l -114 -153 z "},"ĵ":{"ha":323,"x_min":0,"x_max":0,"o":"m -114 -229 l 81 -229 b 212 -104 172 -229 212 -193 l 212 694 l 122 694 l 122 -97 b 66 -153 122 -140 109 -153 l -114 -153 z m 391 791 l 214 972 l 123 972 l -54 791 l 29 791 l 168 896 l 307 791 z "},"k":{"ha":728,"x_min":0,"x_max":0,"o":"m 596 0 l 708 0 l 406 418 l 694 694 l 571 694 l 201 336 l 201 972 l 111 972 l 111 0 l 201 0 l 201 222 l 342 356 z "},"ķ":{"ha":728,"x_min":0,"x_max":0,"o":"m 596 0 l 708 0 l 406 418 l 694 694 l 571 694 l 201 336 l 201 972 l 111 972 l 111 0 l 201 0 l 201 222 l 342 356 z m 294 -347 l 308 -347 b 412 -243 370 -347 412 -307 l 412 -125 l 322 -125 l 322 -229 l 363 -229 l 363 -243 b 301 -298 363 -281 344 -298 l 294 -298 z "},"l":{"ha":313,"x_min":0,"x_max":0,"o":"m 111 0 l 201 0 l 201 972 l 111 972 z "},"ĺ":{"ha":313,"x_min":0,"x_max":0,"o":"m 111 0 l 201 0 l 201 972 l 111 972 z m 122 1055 l 191 1055 l 313 1236 l 201 1236 z "},"ľ":{"ha":338,"x_min":0,"x_max":0,"o":"m 111 0 l 201 0 l 201 972 l 111 972 z m 262 750 l 276 750 b 380 854 338 750 380 790 l 380 972 l 290 972 l 290 868 l 332 868 l 332 854 b 269 799 332 817 312 799 l 262 799 z "},"ļ":{"ha":313,"x_min":0,"x_max":0,"o":"m 111 0 l 201 0 l 201 972 l 111 972 z m 83 -347 l 97 -347 b 201 -243 159 -347 201 -307 l 201 -125 l 111 -125 l 111 -229 l 153 -229 l 153 -243 b 90 -298 153 -281 133 -298 l 83 -298 z "},"ŀ":{"ha":359,"x_min":0,"x_max":0,"o":"m 111 0 l 201 0 l 201 972 l 111 972 z m 275 401 l 399 401 l 399 527 l 275 527 z "},"ł":{"ha":387,"x_min":0,"x_max":0,"o":"m 360 690 l 241 623 l 241 972 l 151 972 l 151 572 l 33 506 l 33 414 l 151 481 l 151 0 l 241 0 l 241 532 l 360 600 z "},"m":{"ha":1236,"x_min":0,"x_max":0,"o":"m 111 0 l 201 0 l 201 347 b 408 632 200 500 273 634 l 416 632 b 576 427 524 632 576 565 l 576 0 l 667 0 l 667 347 b 873 632 665 500 739 634 l 882 632 b 1042 427 989 632 1042 565 l 1042 0 l 1132 0 l 1132 454 b 896 708 1132 617 1032 708 b 650 562 784 708 699 657 b 431 708 616 656 534 708 b 201 583 327 708 245 659 l 201 694 l 111 694 z "},"n":{"ha":791,"x_min":0,"x_max":0,"o":"m 111 0 l 201 0 l 201 347 b 422 632 201 500 277 634 l 431 632 b 597 427 542 632 597 565 l 597 0 l 688 0 l 688 454 b 444 708 688 617 585 708 b 296 672 389 708 339 696 b 201 578 254 648 222 617 l 201 694 l 111 694 z "},"ń":{"ha":791,"x_min":0,"x_max":0,"o":"m 111 0 l 201 0 l 201 347 b 422 632 201 500 277 634 l 431 632 b 597 427 542 632 597 565 l 597 0 l 688 0 l 688 454 b 444 708 688 617 585 708 b 296 672 389 708 339 696 b 201 578 254 648 222 617 l 201 694 l 111 694 z m 369 791 l 437 791 l 559 972 l 448 972 z "},"ň":{"ha":791,"x_min":0,"x_max":0,"o":"m 111 0 l 201 0 l 201 347 b 422 632 201 500 277 634 l 431 632 b 597 427 542 632 597 565 l 597 0 l 688 0 l 688 454 b 444 708 688 617 585 708 b 296 672 389 708 339 696 b 201 578 254 648 222 617 l 201 694 l 111 694 z m 543 972 l 404 868 l 265 972 l 182 972 l 359 791 l 450 791 l 627 972 z "},"ņ":{"ha":791,"x_min":0,"x_max":0,"o":"m 111 0 l 201 0 l 201 347 b 422 632 201 500 277 634 l 431 632 b 597 427 542 632 597 565 l 597 0 l 688 0 l 688 454 b 444 708 688 617 585 708 b 296 672 389 708 339 696 b 201 578 254 648 222 617 l 201 694 l 111 694 z m 330 -347 l 344 -347 b 448 -243 406 -347 448 -307 l 448 -125 l 358 -125 l 358 -229 l 399 -229 l 399 -243 b 337 -298 399 -281 380 -298 l 330 -298 z "},"ŋ":{"ha":791,"x_min":0,"x_max":0,"o":"m 416 -229 l 555 -229 b 688 -104 648 -229 688 -194 l 688 454 b 444 708 688 617 585 708 b 296 672 389 708 339 696 b 201 578 254 648 222 617 l 201 694 l 111 694 l 111 0 l 201 0 l 201 347 b 422 632 201 500 277 634 l 431 632 b 597 427 542 632 597 565 l 597 -97 b 542 -153 597 -140 585 -153 l 416 -153 z "},"ñ":{"ha":791,"x_min":0,"x_max":0,"o":"m 111 0 l 201 0 l 201 347 b 422 632 201 500 277 634 l 431 632 b 597 427 542 632 597 565 l 597 0 l 688 0 l 688 454 b 444 708 688 617 585 708 b 296 672 389 708 339 696 b 201 578 254 648 222 617 l 201 694 l 111 694 z m 401 828 b 513 778 453 791 480 778 b 632 913 578 778 632 836 l 632 945 l 563 945 b 509 854 563 884 545 854 b 447 883 487 854 471 864 l 433 893 l 387 928 b 298 958 360 948 330 958 b 175 823 226 958 175 900 l 175 791 l 245 791 b 302 882 245 852 262 882 b 357 860 323 882 336 874 z "},"o":{"ha":775,"x_min":0,"x_max":0,"o":"m 68 347 b 387 -14 64 138 210 -17 b 707 347 565 -17 709 138 b 387 708 709 557 565 711 b 68 347 210 711 64 557 z m 380 62 b 160 347 256 60 158 174 b 380 632 160 522 255 632 l 395 632 b 615 347 520 632 615 522 b 395 62 617 174 519 60 z "},"ó":{"ha":775,"x_min":0,"x_max":0,"o":"m 68 347 b 387 -14 64 138 210 -17 b 707 347 565 -17 709 138 b 387 708 709 557 565 711 b 68 347 210 711 64 557 z m 380 62 b 160 347 256 60 158 174 b 380 632 160 522 255 632 l 395 632 b 615 347 520 632 615 522 b 395 62 617 174 519 60 z m 353 791 l 421 791 l 543 972 l 432 972 z "},"ŏ":{"ha":775,"x_min":0,"x_max":0,"o":"m 68 347 b 387 -14 64 138 210 -17 b 707 347 565 -17 709 138 b 387 708 709 557 565 711 b 68 347 210 711 64 557 z m 380 62 b 160 347 256 60 158 174 b 380 632 160 522 255 632 l 395 632 b 615 347 520 632 615 522 b 395 62 617 174 519 60 z m 193 972 b 387 778 193 848 275 778 b 582 972 500 778 582 848 l 512 972 b 387 848 506 891 458 848 b 262 972 316 848 269 891 z "},"ô":{"ha":775,"x_min":0,"x_max":0,"o":"m 68 347 b 387 -14 64 138 210 -17 b 707 347 565 -17 709 138 b 387 708 709 557 565 711 b 68 347 210 711 64 557 z m 380 62 b 160 347 256 60 158 174 b 380 632 160 522 255 632 l 395 632 b 615 347 520 632 615 522 b 395 62 617 174 519 60 z m 610 791 l 433 972 l 342 972 l 165 791 l 248 791 l 387 896 l 526 791 z "},"ö":{"ha":775,"x_min":0,"x_max":0,"o":"m 68 347 b 387 -14 64 138 210 -17 b 707 347 565 -17 709 138 b 387 708 709 557 565 711 b 68 347 210 711 64 557 z m 380 62 b 160 347 256 60 158 174 b 380 632 160 522 255 632 l 395 632 b 615 347 520 632 615 522 b 395 62 617 174 519 60 z m 214 819 l 318 819 l 318 930 l 214 930 z m 457 819 l 561 819 l 561 930 l 457 930 z "},"ọ":{"ha":775,"x_min":0,"x_max":0,"o":"m 68 347 b 387 -14 64 138 210 -17 b 707 347 565 -17 709 138 b 387 708 709 557 565 711 b 68 347 210 711 64 557 z m 380 62 b 160 347 256 60 158 174 b 380 632 160 522 255 632 l 395 632 b 615 347 520 632 615 522 b 395 62 617 174 519 60 z m 342 -229 l 433 -229 l 433 -125 l 342 -125 z "},"ò":{"ha":775,"x_min":0,"x_max":0,"o":"m 68 347 b 387 -14 64 138 210 -17 b 707 347 565 -17 709 138 b 387 708 709 557 565 711 b 68 347 210 711 64 557 z m 380 62 b 160 347 256 60 158 174 b 380 632 160 522 255 632 l 395 632 b 615 347 520 632 615 522 b 395 62 617 174 519 60 z m 353 791 l 421 791 l 342 972 l 231 972 z "},"ő":{"ha":775,"x_min":0,"x_max":0,"o":"m 68 347 b 387 -14 64 138 210 -17 b 707 347 565 -17 709 138 b 387 708 709 557 565 711 b 68 347 210 711 64 557 z m 380 62 b 160 347 256 60 158 174 b 380 632 160 522 255 632 l 395 632 b 615 347 520 632 615 522 b 395 62 617 174 519 60 z m 214 791 l 282 791 l 404 972 l 293 972 z m 435 791 l 503 791 l 625 972 l 514 972 z "},"ō":{"ha":775,"x_min":0,"x_max":0,"o":"m 68 347 b 387 -14 64 138 210 -17 b 707 347 565 -17 709 138 b 387 708 709 557 565 711 b 68 347 210 711 64 557 z m 380 62 b 160 347 256 60 158 174 b 380 632 160 522 255 632 l 395 632 b 615 347 520 632 615 522 b 395 62 617 174 519 60 z m 195 819 l 578 819 l 578 896 l 195 896 z "},"ø":{"ha":782,"x_min":0,"x_max":0,"o":"m 711 347 b 629 596 711 446 681 533 l 705 696 l 642 741 l 572 650 b 391 708 519 688 458 708 b 72 347 214 711 68 557 b 152 100 72 250 100 163 l 77 3 l 138 -47 l 209 46 b 391 -14 262 6 323 -14 b 711 347 569 -17 713 138 z m 205 170 b 164 347 178 218 164 277 b 385 632 164 522 259 632 l 399 632 b 525 588 447 632 489 617 z m 619 347 b 399 62 621 174 523 60 l 385 62 b 256 109 336 62 294 78 l 576 527 b 619 347 605 477 619 418 z "},"ǿ":{"ha":782,"x_min":0,"x_max":0,"o":"m 711 347 b 629 596 711 446 681 533 l 705 696 l 642 741 l 572 650 b 391 708 519 688 458 708 b 72 347 214 711 68 557 b 152 100 72 250 100 163 l 77 3 l 138 -47 l 209 46 b 391 -14 262 6 323 -14 b 711 347 569 -17 713 138 z m 205 170 b 164 347 178 218 164 277 b 385 632 164 522 259 632 l 399 632 b 525 588 447 632 489 617 z m 619 347 b 399 62 621 174 523 60 l 385 62 b 256 109 336 62 294 78 l 576 527 b 619 347 605 477 619 418 z m 351 791 l 420 791 l 542 972 l 431 972 z "},"õ":{"ha":775,"x_min":0,"x_max":0,"o":"m 68 347 b 387 -14 64 138 210 -17 b 707 347 565 -17 709 138 b 387 708 709 557 565 711 b 68 347 210 711 64 557 z m 380 62 b 160 347 256 60 158 174 b 380 632 160 522 255 632 l 395 632 b 615 347 520 632 615 522 b 395 62 617 174 519 60 z m 385 828 b 496 778 436 791 463 778 b 615 913 562 778 615 836 l 615 945 l 546 945 b 492 854 546 884 528 854 b 430 883 470 854 454 864 l 416 893 l 370 928 b 281 958 343 948 313 958 b 158 823 209 958 158 900 l 158 791 l 228 791 b 285 882 228 852 245 882 b 340 860 307 882 319 874 z "},"œ":{"ha":1278,"x_min":0,"x_max":0,"o":"m 68 347 b 387 -14 64 138 210 -17 b 545 29 445 -14 497 1 b 659 149 593 58 631 98 b 926 -14 712 43 809 -14 b 1109 41 999 -14 1059 5 b 1206 199 1158 78 1191 130 l 1116 199 b 933 62 1089 106 1029 62 l 925 62 b 707 340 806 62 709 150 l 1207 340 l 1207 396 b 926 708 1209 572 1093 710 b 660 546 813 708 714 652 b 387 708 603 648 503 708 b 68 347 210 711 64 557 z m 380 62 b 160 347 256 60 158 174 b 380 632 160 522 255 632 l 395 632 b 615 347 520 632 615 522 b 395 62 617 174 519 60 z m 710 416 b 918 632 728 574 824 632 l 932 632 b 1117 416 1039 633 1113 540 z "},"p":{"ha":812,"x_min":0,"x_max":0,"o":"m 111 -278 l 201 -278 l 201 111 b 433 -14 242 36 342 -14 b 743 347 612 -16 745 130 b 433 708 745 565 612 710 b 201 583 342 708 242 659 l 201 694 l 111 694 z m 424 62 b 201 347 278 60 200 195 b 424 632 200 500 278 634 l 431 632 b 652 347 574 634 653 500 b 431 62 653 195 574 60 z "},"þ":{"ha":812,"x_min":0,"x_max":0,"o":"m 111 -278 l 201 -278 l 201 111 b 433 -14 242 36 342 -14 b 743 347 612 -16 745 130 b 433 708 745 565 612 710 b 201 583 342 708 242 659 l 201 972 l 111 972 z m 424 62 b 201 347 278 60 200 195 b 424 632 200 500 278 634 l 431 632 b 652 347 574 634 653 500 b 431 62 653 195 574 60 z "},"q":{"ha":812,"x_min":0,"x_max":0,"o":"m 611 -278 l 701 -278 l 701 694 l 611 694 l 611 583 b 379 708 570 659 470 708 b 69 347 200 710 67 565 b 379 -14 67 130 200 -16 b 611 111 470 -14 570 36 z m 382 62 b 161 347 239 60 160 195 b 382 632 160 500 239 634 l 389 632 b 611 347 534 634 612 500 b 389 62 612 195 534 60 z "},"r":{"ha":497,"x_min":0,"x_max":0,"o":"m 111 0 l 201 0 l 201 338 b 416 618 201 512 284 618 l 472 618 l 472 701 l 410 701 b 276 659 360 701 315 687 b 195 536 237 631 210 590 l 195 694 l 111 694 z "},"ŕ":{"ha":497,"x_min":0,"x_max":0,"o":"m 111 0 l 201 0 l 201 338 b 416 618 201 512 284 618 l 472 618 l 472 701 l 410 701 b 276 659 360 701 315 687 b 195 536 237 631 210 590 l 195 694 l 111 694 z m 243 791 l 311 791 l 433 972 l 322 972 z "},"ř":{"ha":497,"x_min":0,"x_max":0,"o":"m 111 0 l 201 0 l 201 338 b 416 618 201 512 284 618 l 472 618 l 472 701 l 410 701 b 276 659 360 701 315 687 b 195 536 237 631 210 590 l 195 694 l 111 694 z m 416 972 l 277 868 l 138 972 l 55 972 l 232 791 l 323 791 l 500 972 z "},"ŗ":{"ha":497,"x_min":0,"x_max":0,"o":"m 111 0 l 201 0 l 201 338 b 416 618 201 512 284 618 l 472 618 l 472 701 l 410 701 b 276 659 360 701 315 687 b 195 536 237 631 210 590 l 195 694 l 111 694 z m 82 -347 l 96 -347 b 200 -243 158 -347 200 -307 l 200 -125 l 110 -125 l 110 -229 l 151 -229 l 151 -243 b 89 -298 151 -281 132 -298 l 82 -298 z "},"s":{"ha":663,"x_min":0,"x_max":0,"o":"m 57 208 b 334 -14 64 79 157 -14 b 587 195 486 -14 587 64 b 541 318 587 250 572 290 b 410 378 509 346 466 366 l 301 401 b 175 513 211 421 175 451 b 326 632 175 576 232 632 l 340 632 b 504 486 433 632 496 564 l 595 486 b 334 708 588 604 500 710 b 85 504 198 708 85 632 b 135 378 85 449 102 408 b 273 317 169 350 215 330 l 375 294 b 497 187 465 273 497 243 b 340 62 497 111 437 62 l 326 62 b 147 208 228 62 156 115 l 57 208 z "},"ś":{"ha":663,"x_min":0,"x_max":0,"o":"m 57 208 b 334 -14 64 79 157 -14 b 587 195 486 -14 587 64 b 541 318 587 250 572 290 b 410 378 509 346 466 366 l 301 401 b 175 513 211 421 175 451 b 326 632 175 576 232 632 l 340 632 b 504 486 433 632 496 564 l 595 486 b 334 708 588 604 500 710 b 85 504 198 708 85 632 b 135 378 85 449 102 408 b 273 317 169 350 215 330 l 375 294 b 497 187 465 273 497 243 b 340 62 497 111 437 62 l 326 62 b 147 208 228 62 156 115 z m 292 791 l 360 791 l 482 972 l 371 972 z "},"š":{"ha":663,"x_min":0,"x_max":0,"o":"m 57 208 b 334 -14 64 79 157 -14 b 587 195 486 -14 587 64 b 541 318 587 250 572 290 b 410 378 509 346 466 366 l 301 401 b 175 513 211 421 175 451 b 326 632 175 576 232 632 l 340 632 b 504 486 433 632 496 564 l 595 486 b 334 708 588 604 500 710 b 85 504 198 708 85 632 b 135 378 85 449 102 408 b 273 317 169 350 215 330 l 375 294 b 497 187 465 273 497 243 b 340 62 497 111 437 62 l 326 62 b 147 208 228 62 156 115 z m 465 972 l 326 868 l 187 972 l 104 972 l 281 791 l 372 791 l 549 972 z "},"ş":{"ha":663,"x_min":0,"x_max":0,"o":"m 587 195 b 541 318 587 250 572 290 b 410 378 509 346 466 366 l 301 401 b 175 513 211 421 175 451 b 326 632 175 576 232 632 l 340 632 b 504 486 433 632 496 564 l 595 486 b 334 708 588 604 500 710 b 85 504 198 708 85 632 b 135 378 85 449 102 408 b 273 317 169 350 215 330 l 375 294 b 497 187 465 273 497 243 b 340 62 497 111 437 62 l 326 62 b 147 208 228 62 156 115 l 57 208 b 122 57 60 147 82 97 b 294 -12 163 17 220 -6 l 294 -115 l 333 -115 b 401 -175 374 -115 401 -135 b 333 -236 401 -215 373 -236 l 245 -236 l 245 -313 l 332 -313 b 471 -175 421 -313 471 -253 b 357 -62 471 -107 416 -61 l 357 -13 b 587 195 497 -5 587 70 z "},"ŝ":{"ha":663,"x_min":0,"x_max":0,"o":"m 57 208 b 334 -14 64 79 157 -14 b 587 195 486 -14 587 64 b 541 318 587 250 572 290 b 410 378 509 346 466 366 l 301 401 b 175 513 211 421 175 451 b 326 632 175 576 232 632 l 340 632 b 504 486 433 632 496 564 l 595 486 b 334 708 588 604 500 710 b 85 504 198 708 85 632 b 135 378 85 449 102 408 b 273 317 169 350 215 330 l 375 294 b 497 187 465 273 497 243 b 340 62 497 111 437 62 l 326 62 b 147 208 228 62 156 115 z m 549 791 l 372 972 l 281 972 l 104 791 l 187 791 l 326 896 l 465 791 z "},"ș":{"ha":663,"x_min":0,"x_max":0,"o":"m 57 208 b 334 -14 64 79 157 -14 b 587 195 486 -14 587 64 b 541 318 587 250 572 290 b 410 378 509 346 466 366 l 301 401 b 175 513 211 421 175 451 b 326 632 175 576 232 632 l 340 632 b 504 486 433 632 496 564 l 595 486 b 334 708 588 604 500 710 b 85 504 198 708 85 632 b 135 378 85 449 102 408 b 273 317 169 350 215 330 l 375 294 b 497 187 465 273 497 243 b 340 62 497 111 437 62 l 326 62 b 147 208 228 62 156 115 z m 253 -347 l 267 -347 b 371 -243 329 -347 371 -307 l 371 -125 l 281 -125 l 281 -229 l 322 -229 l 322 -243 b 260 -298 322 -281 302 -298 l 253 -298 z "},"ß":{"ha":750,"x_min":0,"x_max":0,"o":"m 111 -257 l 201 -257 l 201 688 b 376 909 201 847 281 909 l 390 909 b 555 730 490 909 555 829 b 375 551 556 648 494 549 l 306 551 l 306 475 l 389 475 b 590 283 503 475 590 404 b 543 137 590 222 574 173 b 395 83 513 101 463 83 l 306 83 l 306 0 l 386 0 b 681 282 572 0 681 96 b 505 519 683 420 586 507 b 646 737 574 541 646 617 b 383 986 648 879 534 989 b 111 696 212 986 111 881 z "},"t":{"ha":494,"x_min":0,"x_max":0,"o":"m 180 125 b 313 0 180 36 221 0 l 465 0 l 465 77 l 326 77 b 271 132 285 77 271 91 l 271 618 l 444 618 l 444 694 l 271 694 l 271 920 l 180 920 l 180 694 l 21 694 l 21 618 l 180 618 l 180 125 z "},"ŧ":{"ha":519,"x_min":0,"x_max":0,"o":"m 345 77 b 289 132 303 77 289 91 l 289 371 l 463 371 l 463 440 l 289 440 l 289 618 l 463 618 l 463 694 l 289 694 l 289 920 l 199 920 l 199 694 l 39 694 l 39 618 l 199 618 l 199 440 l 39 440 l 39 371 l 199 371 l 199 125 b 331 0 199 36 239 0 l 484 0 l 484 77 z "},"ť":{"ha":494,"x_min":0,"x_max":0,"o":"m 180 125 b 313 0 180 36 221 0 l 465 0 l 465 77 l 326 77 b 271 132 285 77 271 91 l 271 618 l 444 618 l 444 694 l 271 694 l 271 920 l 180 920 l 180 694 l 21 694 l 21 618 l 180 618 z m 403 750 l 416 750 b 521 854 479 750 521 790 l 521 972 l 431 972 l 431 868 l 472 868 l 472 854 b 410 799 472 817 452 799 l 403 799 z "},"ţ":{"ha":494,"x_min":0,"x_max":0,"o":"m 465 0 l 465 77 l 326 77 b 271 132 285 77 271 91 l 271 618 l 444 618 l 444 694 l 271 694 l 271 920 l 180 920 l 180 694 l 21 694 l 21 618 l 180 618 l 180 125 b 254 7 180 57 203 20 l 254 -115 l 293 -115 b 361 -175 334 -115 361 -135 b 293 -236 361 -215 333 -236 l 205 -236 l 205 -313 l 292 -313 b 431 -175 381 -313 431 -253 b 317 -62 431 -107 376 -61 l 317 0 z "},"ț":{"ha":494,"x_min":0,"x_max":0,"o":"m 180 125 b 313 0 180 36 221 0 l 465 0 l 465 77 l 326 77 b 271 132 285 77 271 91 l 271 618 l 444 618 l 444 694 l 271 694 l 271 920 l 180 920 l 180 694 l 21 694 l 21 618 l 180 618 z m 212 -347 l 226 -347 b 330 -243 288 -347 330 -307 l 330 -125 l 240 -125 l 240 -229 l 281 -229 l 281 -243 b 219 -298 281 -281 262 -298 l 212 -298 z "},"u":{"ha":778,"x_min":0,"x_max":0,"o":"m 104 236 b 345 -14 104 89 193 -14 b 576 131 458 -14 541 39 l 576 0 l 667 0 l 667 694 l 576 694 l 576 319 b 375 62 579 165 477 60 l 361 62 b 195 264 250 62 195 131 l 195 694 l 104 694 l 104 236 z "},"ú":{"ha":778,"x_min":0,"x_max":0,"o":"m 104 236 b 345 -14 104 89 193 -14 b 576 131 458 -14 541 39 l 576 0 l 667 0 l 667 694 l 576 694 l 576 319 b 375 62 579 165 477 60 l 361 62 b 195 264 250 62 195 131 l 195 694 l 104 694 z m 347 791 l 416 791 l 538 972 l 427 972 z "},"ŭ":{"ha":778,"x_min":0,"x_max":0,"o":"m 104 236 b 345 -14 104 89 193 -14 b 576 131 458 -14 541 39 l 576 0 l 667 0 l 667 694 l 576 694 l 576 319 b 375 62 579 165 477 60 l 361 62 b 195 264 250 62 195 131 l 195 694 l 104 694 z m 187 972 b 382 778 187 848 269 778 b 576 972 494 778 576 848 l 507 972 b 382 848 500 891 453 848 b 257 972 311 848 263 891 z "},"û":{"ha":778,"x_min":0,"x_max":0,"o":"m 104 236 b 345 -14 104 89 193 -14 b 576 131 458 -14 541 39 l 576 0 l 667 0 l 667 694 l 576 694 l 576 319 b 375 62 579 165 477 60 l 361 62 b 195 264 250 62 195 131 l 195 694 l 104 694 z m 604 791 l 428 972 l 336 972 l 159 791 l 243 791 l 382 896 l 521 791 z "},"ü":{"ha":778,"x_min":0,"x_max":0,"o":"m 104 236 b 345 -14 104 89 193 -14 b 576 131 458 -14 541 39 l 576 0 l 667 0 l 667 694 l 576 694 l 576 319 b 375 62 579 165 477 60 l 361 62 b 195 264 250 62 195 131 l 195 694 l 104 694 z m 208 819 l 313 819 l 313 930 l 208 930 z m 452 819 l 555 819 l 555 930 l 452 930 z "},"ụ":{"ha":778,"x_min":0,"x_max":0,"o":"m 104 236 b 345 -14 104 89 193 -14 b 576 131 458 -14 541 39 l 576 0 l 667 0 l 667 694 l 576 694 l 576 319 b 375 62 579 165 477 60 l 361 62 b 195 264 250 62 195 131 l 195 694 l 104 694 z m 337 -229 l 428 -229 l 428 -125 l 337 -125 z "},"ù":{"ha":778,"x_min":0,"x_max":0,"o":"m 104 236 b 345 -14 104 89 193 -14 b 576 131 458 -14 541 39 l 576 0 l 667 0 l 667 694 l 576 694 l 576 319 b 375 62 579 165 477 60 l 361 62 b 195 264 250 62 195 131 l 195 694 l 104 694 z m 347 791 l 415 791 l 336 972 l 224 972 z "},"ű":{"ha":778,"x_min":0,"x_max":0,"o":"m 104 236 b 345 -14 104 89 193 -14 b 576 131 458 -14 541 39 l 576 0 l 667 0 l 667 694 l 576 694 l 576 319 b 375 62 579 165 477 60 l 361 62 b 195 264 250 62 195 131 l 195 694 l 104 694 z m 208 791 l 277 791 l 399 972 l 288 972 z m 429 791 l 498 791 l 620 972 l 509 972 z "},"ū":{"ha":778,"x_min":0,"x_max":0,"o":"m 104 236 b 345 -14 104 89 193 -14 b 576 131 458 -14 541 39 l 576 0 l 667 0 l 667 694 l 576 694 l 576 319 b 375 62 579 165 477 60 l 361 62 b 195 264 250 62 195 131 l 195 694 l 104 694 z m 190 819 l 572 819 l 572 896 l 190 896 z "},"ų":{"ha":778,"x_min":0,"x_max":0,"o":"m 543 -135 b 667 0 543 -84 595 -37 l 667 694 l 576 694 l 576 319 b 375 62 579 165 477 60 l 361 62 b 195 264 250 62 195 131 l 195 694 l 104 694 l 104 236 b 345 -14 104 89 193 -14 b 576 131 458 -14 541 39 l 576 7 b 491 -59 543 -11 515 -33 b 456 -153 467 -85 456 -117 b 595 -271 456 -231 511 -271 l 651 -271 l 651 -195 l 614 -195 b 543 -135 574 -195 543 -178 z "},"ů":{"ha":778,"x_min":0,"x_max":0,"o":"m 104 236 b 345 -14 104 89 193 -14 b 576 131 458 -14 541 39 l 576 0 l 667 0 l 667 694 l 576 694 l 576 319 b 375 62 579 165 477 60 l 361 62 b 195 264 250 62 195 131 l 195 694 l 104 694 z m 265 901 b 382 785 265 835 321 785 b 499 901 444 785 499 835 b 382 1018 499 968 444 1018 b 265 901 321 1018 265 968 z m 444 901 b 384 839 444 867 417 839 b 322 901 349 839 322 867 b 384 964 322 936 349 964 b 444 901 417 964 444 936 z "},"ũ":{"ha":778,"x_min":0,"x_max":0,"o":"m 104 236 b 345 -14 104 89 193 -14 b 576 131 458 -14 541 39 l 576 0 l 667 0 l 667 694 l 576 694 l 576 319 b 375 62 579 165 477 60 l 361 62 b 195 264 250 62 195 131 l 195 694 l 104 694 z m 379 828 b 490 778 431 791 458 778 b 610 913 556 778 610 836 l 610 945 l 541 945 b 486 854 541 884 522 854 b 425 883 465 854 448 864 l 411 893 l 364 928 b 275 958 338 948 308 958 b 153 823 203 958 153 900 l 153 791 l 222 791 b 279 882 222 852 239 882 b 335 860 301 882 314 874 z "},"v":{"ha":699,"x_min":0,"x_max":0,"o":"m 578 694 l 350 82 l 122 694 l 26 694 l 293 0 l 406 0 l 672 694 z "},"w":{"ha":1064,"x_min":0,"x_max":0,"o":"m 943 694 l 753 71 l 590 694 l 475 694 l 318 80 l 125 694 l 32 694 l 256 0 l 375 0 l 532 600 l 689 0 l 810 0 l 1032 694 z "},"ẃ":{"ha":1064,"x_min":0,"x_max":0,"o":"m 943 694 l 753 71 l 590 694 l 475 694 l 318 80 l 125 694 l 32 694 l 256 0 l 375 0 l 532 600 l 689 0 l 810 0 l 1032 694 z m 498 791 l 567 791 l 689 972 l 578 972 z "},"ŵ":{"ha":1064,"x_min":0,"x_max":0,"o":"m 943 694 l 753 71 l 590 694 l 475 694 l 318 80 l 125 694 l 32 694 l 256 0 l 375 0 l 532 600 l 689 0 l 810 0 l 1032 694 z m 755 791 l 579 972 l 488 972 l 311 791 l 394 791 l 533 896 l 672 791 z "},"ẅ":{"ha":1064,"x_min":0,"x_max":0,"o":"m 943 694 l 753 71 l 590 694 l 475 694 l 318 80 l 125 694 l 32 694 l 256 0 l 375 0 l 532 600 l 689 0 l 810 0 l 1032 694 z m 359 819 l 464 819 l 464 930 l 359 930 z m 603 819 l 707 819 l 707 930 l 603 930 z "},"ẁ":{"ha":1064,"x_min":0,"x_max":0,"o":"m 943 694 l 753 71 l 590 694 l 475 694 l 318 80 l 125 694 l 32 694 l 256 0 l 375 0 l 532 600 l 689 0 l 810 0 l 1032 694 z m 499 791 l 567 791 l 488 972 l 376 972 z "},"x":{"ha":694,"x_min":0,"x_max":0,"o":"m 667 0 l 399 355 l 657 694 l 555 694 l 349 422 l 143 694 l 37 694 l 296 352 l 28 0 l 129 0 l 346 286 l 561 0 z "},"y":{"ha":722,"x_min":0,"x_max":0,"o":"m 703 694 l 608 694 l 370 132 l 131 694 l 32 694 l 326 20 l 326 -97 b 271 -153 326 -140 313 -153 l 74 -153 l 74 -229 l 285 -229 b 416 -109 375 -229 416 -193 l 416 22 z "},"ý":{"ha":722,"x_min":0,"x_max":0,"o":"m 703 694 l 608 694 l 370 132 l 131 694 l 32 694 l 326 20 l 326 -97 b 271 -153 326 -140 313 -153 l 74 -153 l 74 -229 l 285 -229 b 416 -109 375 -229 416 -193 l 416 22 z m 334 791 l 403 791 l 525 972 l 414 972 z "},"ŷ":{"ha":722,"x_min":0,"x_max":0,"o":"m 703 694 l 608 694 l 370 132 l 131 694 l 32 694 l 326 20 l 326 -97 b 271 -153 326 -140 313 -153 l 74 -153 l 74 -229 l 285 -229 b 416 -109 375 -229 416 -193 l 416 22 z m 592 791 l 416 972 l 324 972 l 147 791 l 231 791 l 370 896 l 509 791 z "},"ÿ":{"ha":722,"x_min":0,"x_max":0,"o":"m 703 694 l 608 694 l 370 132 l 131 694 l 32 694 l 326 20 l 326 -97 b 271 -153 326 -140 313 -153 l 74 -153 l 74 -229 l 285 -229 b 416 -109 375 -229 416 -193 l 416 22 z m 195 819 l 300 819 l 300 930 l 195 930 z m 439 819 l 543 819 l 543 930 l 439 930 z "},"ỳ":{"ha":722,"x_min":0,"x_max":0,"o":"m 703 694 l 608 694 l 370 132 l 131 694 l 32 694 l 326 20 l 326 -97 b 271 -153 326 -140 313 -153 l 74 -153 l 74 -229 l 285 -229 b 416 -109 375 -229 416 -193 l 416 22 z m 335 791 l 403 791 l 323 972 l 212 972 z "},"ȳ":{"ha":722,"x_min":0,"x_max":0,"o":"m 703 694 l 608 694 l 370 132 l 131 694 l 32 694 l 326 20 l 326 -97 b 271 -153 326 -140 313 -153 l 74 -153 l 74 -229 l 285 -229 b 416 -109 375 -229 416 -193 l 416 22 z m 178 819 l 560 819 l 560 896 l 178 896 z "},"z":{"ha":656,"x_min":0,"x_max":0,"o":"m 151 77 l 585 612 l 585 694 l 64 694 l 64 618 l 487 618 l 57 85 l 57 0 l 606 0 l 606 77 z "},"ź":{"ha":656,"x_min":0,"x_max":0,"o":"m 151 77 l 585 612 l 585 694 l 64 694 l 64 618 l 487 618 l 57 85 l 57 0 l 606 0 l 606 77 z m 297 791 l 366 791 l 488 972 l 376 972 z "},"ž":{"ha":656,"x_min":0,"x_max":0,"o":"m 151 77 l 585 612 l 585 694 l 64 694 l 64 618 l 487 618 l 57 85 l 57 0 l 606 0 l 606 77 z m 471 972 l 332 868 l 193 972 l 109 972 l 286 791 l 378 791 l 554 972 z "},"ż":{"ha":656,"x_min":0,"x_max":0,"o":"m 151 77 l 585 612 l 585 694 l 64 694 l 64 618 l 487 618 l 57 85 l 57 0 l 606 0 l 606 77 z m 279 819 l 383 819 l 383 937 l 279 937 z "},"ﬁ":{"ha":856,"x_min":0,"x_max":0,"o":"m 189 0 l 279 0 l 279 618 l 654 618 l 654 0 l 745 0 l 745 694 l 279 694 l 279 840 b 335 896 279 882 294 896 l 494 896 l 494 972 l 321 972 b 189 847 229 972 189 937 l 189 694 l 29 694 l 29 618 l 189 618 z m 647 819 l 751 819 l 751 937 l 647 937 z "},"ﬂ":{"ha":856,"x_min":0,"x_max":0,"o":"m 189 0 l 279 0 l 279 618 l 460 618 l 460 694 l 279 694 l 279 840 b 335 896 279 882 294 896 l 654 896 l 654 0 l 745 0 l 745 972 l 321 972 b 189 847 229 972 189 937 l 189 694 l 29 694 l 29 618 l 189 618 z "},"ª":{"ha":497,"x_min":0,"x_max":0,"o":"m 78 688 b 111 602 78 652 89 623 b 196 570 134 581 161 570 b 328 646 258 570 309 597 b 335 576 328 623 330 600 l 404 576 b 400 663 401 596 400 625 l 400 838 b 244 979 400 925 328 979 b 83 846 161 979 87 930 l 160 846 b 184 897 160 867 168 884 b 240 917 201 910 219 917 l 244 917 b 323 840 290 917 323 886 l 323 828 l 199 814 b 78 688 125 806 78 763 z m 216 632 b 154 693 180 632 154 654 b 221 762 154 733 182 758 l 323 774 l 323 729 b 221 632 323 667 279 632 z "},"º":{"ha":503,"x_min":0,"x_max":0,"o":"m 69 774 b 252 570 69 648 141 570 b 433 774 361 570 433 648 b 252 979 433 898 361 979 b 69 774 141 979 69 898 z m 249 632 b 176 671 218 632 194 645 b 149 774 157 698 149 732 b 176 876 149 815 157 850 b 249 917 194 903 218 917 l 254 917 b 327 877 285 917 309 903 b 354 774 345 850 354 816 b 256 632 354 690 316 632 z "},"А":{"ha":940,"x_min":0,"x_max":0,"o":"m 825 0 l 928 0 l 532 972 l 410 972 l 11 0 l 111 0 l 220 268 l 717 268 z m 256 358 l 469 883 l 681 358 z "},"Б":{"ha":890,"x_min":0,"x_max":0,"o":"m 135 0 l 550 0 b 829 292 703 -3 832 125 b 530 574 829 452 733 574 l 232 574 l 232 882 l 766 882 l 766 972 l 135 972 z m 232 90 l 232 484 l 530 484 b 732 288 649 484 732 408 b 529 90 732 168 648 90 z "},"В":{"ha":911,"x_min":0,"x_max":0,"o":"m 135 0 l 550 0 b 829 268 705 -2 832 106 b 653 493 831 406 734 479 b 808 718 736 517 808 610 b 541 972 810 874 693 974 l 135 972 z m 232 538 l 232 882 l 530 882 b 711 710 636 882 711 819 b 530 538 711 600 636 538 z m 232 90 l 232 447 l 530 447 b 677 401 591 447 640 431 b 732 269 713 370 732 327 b 529 90 732 153 648 90 z "},"Г":{"ha":700,"x_min":0,"x_max":0,"o":"m 135 0 l 232 0 l 232 882 l 688 882 l 688 972 l 135 972 z "},"Ѓ":{"ha":700,"x_min":0,"x_max":0,"o":"m 135 0 l 232 0 l 232 882 l 688 882 l 688 972 l 135 972 z m 322 1063 l 406 1063 l 521 1236 l 396 1236 z "},"Ґ":{"ha":700,"x_min":0,"x_max":0,"o":"m 593 1125 l 594 972 l 135 972 l 135 0 l 232 0 l 232 882 l 688 882 l 688 1125 z "},"Д":{"ha":1048,"x_min":0,"x_max":0,"o":"m 868 90 l 868 972 l 224 972 l 224 725 b 219 431 224 625 222 527 b 204 215 216 336 212 263 b 100 90 193 137 176 92 l 20 90 l 20 -208 l 114 -208 l 114 0 l 926 0 l 926 -208 l 1021 -208 l 1021 90 z m 771 90 l 263 90 b 300 208 283 113 295 153 b 313 442 304 258 309 336 b 318 729 316 549 318 645 l 318 882 l 771 882 z "},"Е":{"ha":892,"x_min":0,"x_max":0,"o":"m 135 0 l 828 0 l 828 90 l 232 90 l 232 456 l 730 456 l 730 546 l 232 546 l 232 882 l 814 882 l 814 972 l 135 972 z "},"Ё":{"ha":892,"x_min":0,"x_max":0,"o":"m 135 0 l 828 0 l 828 90 l 232 90 l 232 456 l 730 456 l 730 546 l 232 546 l 232 882 l 814 882 l 814 972 l 135 972 z m 290 1083 l 401 1083 l 401 1194 l 290 1194 z m 549 1083 l 660 1083 l 660 1194 l 549 1194 z "},"Ж":{"ha":1388,"x_min":0,"x_max":0,"o":"m 1250 0 l 1369 0 l 1026 583 l 1344 972 l 1234 972 l 741 391 l 741 972 l 646 972 l 646 393 l 153 972 l 41 972 l 363 581 l 17 0 l 138 0 l 434 508 l 646 267 l 646 0 l 741 0 l 741 267 l 953 509 z "},"З":{"ha":896,"x_min":0,"x_max":0,"o":"m 817 265 b 632 497 817 391 759 467 b 799 720 745 540 799 622 b 464 986 799 888 661 986 b 81 673 214 987 100 840 l 176 673 b 256 833 184 738 210 791 b 464 896 303 875 372 896 b 701 717 618 896 701 819 b 473 538 701 606 611 538 l 330 538 l 330 447 l 478 447 b 717 275 637 447 717 390 b 444 75 717 164 625 75 b 171 298 280 75 182 162 l 74 298 b 444 -16 90 100 218 -16 b 817 265 685 -18 819 109 z "},"И":{"ha":1043,"x_min":0,"x_max":0,"o":"m 765 972 l 232 97 l 232 972 l 135 972 l 135 0 l 278 0 l 811 875 l 811 0 l 908 0 l 908 972 z "},"Й":{"ha":1043,"x_min":0,"x_max":0,"o":"m 765 972 l 232 97 l 232 972 l 135 972 l 135 0 l 278 0 l 811 875 l 811 0 l 908 0 l 908 972 z m 301 1231 b 515 1059 301 1122 379 1059 b 730 1231 650 1059 730 1122 l 646 1231 b 515 1129 637 1161 591 1129 b 386 1231 437 1129 393 1163 z "},"К":{"ha":929,"x_min":0,"x_max":0,"o":"m 791 0 l 913 0 l 511 580 l 907 972 l 778 972 l 232 431 l 232 972 l 135 972 l 135 0 l 232 0 l 232 303 l 441 511 z "},"Ќ":{"ha":929,"x_min":0,"x_max":0,"o":"m 791 0 l 913 0 l 511 580 l 907 972 l 778 972 l 232 431 l 232 972 l 135 972 l 135 0 l 232 0 l 232 303 l 441 511 z m 422 1063 l 505 1063 l 621 1236 l 496 1236 z "},"Л":{"ha":991,"x_min":0,"x_max":0,"o":"m 18 0 l 97 0 b 296 184 239 0 283 63 b 310 438 300 235 305 319 b 317 729 315 557 317 654 l 317 882 l 760 882 l 760 0 l 857 0 l 857 972 l 225 972 l 225 725 b 220 425 225 631 224 531 b 208 203 217 319 213 245 b 97 90 200 124 178 90 l 18 90 z "},"М":{"ha":1276,"x_min":0,"x_max":0,"o":"m 981 972 l 642 73 l 300 972 l 135 972 l 135 0 l 231 0 l 231 895 l 572 0 l 707 0 l 1046 892 l 1046 0 l 1141 0 l 1141 972 z "},"Н":{"ha":1013,"x_min":0,"x_max":0,"o":"m 135 0 l 232 0 l 232 441 l 781 441 l 781 0 l 878 0 l 878 972 l 781 972 l 781 532 l 232 532 l 232 972 l 135 972 z "},"О":{"ha":1039,"x_min":0,"x_max":0,"o":"m 75 486 b 519 -14 73 180 265 -16 b 964 486 774 -16 966 180 b 519 986 966 792 774 989 b 75 486 265 989 73 792 z m 513 77 b 172 486 316 75 170 237 b 513 896 170 735 316 898 l 526 896 b 867 486 723 898 869 735 b 526 77 869 237 723 75 z "},"П":{"ha":1000,"x_min":0,"x_max":0,"o":"m 135 972 l 135 0 l 232 0 l 232 882 l 768 882 l 768 0 l 865 0 l 865 972 z "},"Р":{"ha":880,"x_min":0,"x_max":0,"o":"m 135 0 l 232 0 l 232 400 l 524 400 b 829 685 692 398 831 503 b 524 972 832 867 692 974 l 135 972 z m 232 490 l 232 882 l 503 882 b 669 831 572 882 628 865 b 732 685 711 798 732 749 b 503 490 732 557 644 490 z "},"С":{"ha":964,"x_min":0,"x_max":0,"o":"m 75 486 b 519 -14 73 202 250 -18 b 895 298 730 -16 886 120 l 798 298 b 526 77 783 178 694 77 l 513 77 b 172 486 296 73 170 260 b 513 896 170 712 296 899 l 526 896 b 798 673 694 896 783 793 l 895 673 b 519 986 886 853 730 989 b 75 486 250 990 73 770 z "},"Т":{"ha":847,"x_min":0,"x_max":0,"o":"m 375 0 l 472 0 l 472 882 l 827 882 l 827 972 l 21 972 l 21 882 l 375 882 z "},"У":{"ha":840,"x_min":0,"x_max":0,"o":"m 733 972 l 447 360 l 122 972 l 14 972 l 396 263 l 361 184 b 199 89 330 116 279 89 l 135 89 l 135 0 l 212 0 b 394 73 302 0 358 28 b 449 164 412 96 431 127 l 836 972 z "},"Ў":{"ha":840,"x_min":0,"x_max":0,"o":"m 733 972 l 447 360 l 122 972 l 14 972 l 396 263 l 361 184 b 199 89 330 116 279 89 l 135 89 l 135 0 l 212 0 b 394 73 302 0 358 28 b 449 164 412 96 431 127 l 836 972 z m 212 1231 b 426 1059 212 1122 290 1059 b 642 1231 562 1059 642 1122 l 557 1231 b 426 1129 549 1161 502 1129 b 297 1231 348 1129 304 1163 z "},"Ф":{"ha":1169,"x_min":0,"x_max":0,"o":"m 536 -31 l 633 -31 l 633 69 b 863 119 715 71 792 88 b 1036 257 935 149 992 195 b 1103 486 1080 319 1103 395 b 1036 715 1103 577 1080 653 b 863 854 992 777 935 823 b 633 903 792 884 715 901 l 633 1006 l 536 1006 l 536 903 b 306 854 454 901 377 884 b 132 715 235 823 176 777 b 66 486 88 653 66 577 b 536 69 62 212 294 75 z m 536 153 b 164 486 335 155 162 255 b 536 819 162 718 335 817 z m 1006 486 b 633 153 1008 255 835 155 l 633 819 b 1006 486 835 817 1008 718 z "},"Х":{"ha":865,"x_min":0,"x_max":0,"o":"m 847 0 l 489 498 l 832 972 l 720 972 l 433 576 l 149 972 l 33 972 l 376 496 l 17 0 l 129 0 l 431 418 l 732 0 z "},"Ч":{"ha":918,"x_min":0,"x_max":0,"o":"m 686 0 l 783 0 l 783 972 l 686 972 l 686 468 l 378 468 b 180 631 239 468 180 514 l 179 972 l 82 972 l 83 628 b 367 383 85 447 178 383 l 686 383 z "},"Ц":{"ha":1042,"x_min":0,"x_max":0,"o":"m 1015 -208 l 1014 90 l 860 90 l 860 972 l 762 972 l 762 90 l 232 90 l 232 972 l 135 972 l 135 0 l 921 0 l 921 -208 z "},"Ш":{"ha":1486,"x_min":0,"x_max":0,"o":"m 1254 972 l 1254 90 l 791 90 l 791 972 l 694 972 l 694 90 l 232 90 l 232 972 l 135 972 l 135 0 l 1352 0 l 1352 972 z "},"Щ":{"ha":1544,"x_min":0,"x_max":0,"o":"m 1521 -208 l 1520 89 l 1352 89 l 1352 972 l 1254 972 l 1254 90 l 791 90 l 791 972 l 694 972 l 694 90 l 232 90 l 232 972 l 135 972 l 135 0 l 1426 0 l 1426 -208 z "},"Џ":{"ha":1014,"x_min":0,"x_max":0,"o":"m 879 972 l 782 972 l 782 90 l 232 90 l 232 972 l 135 972 l 135 0 l 460 0 l 460 -208 l 554 -208 l 554 0 l 879 0 z "},"Ь":{"ha":876,"x_min":0,"x_max":0,"o":"m 823 309 b 518 599 825 480 701 601 l 232 599 l 232 972 l 135 972 l 135 0 l 518 0 b 823 309 699 -3 825 136 z m 726 310 b 497 90 726 184 641 90 l 232 90 l 232 509 l 497 509 b 726 310 643 509 726 435 z "},"Ъ":{"ha":1071,"x_min":0,"x_max":0,"o":"m 1018 309 b 713 599 1020 480 895 601 l 427 599 l 427 972 l 16 972 l 16 882 l 330 882 l 330 0 l 713 0 b 1018 309 894 -3 1020 136 z m 921 310 b 692 90 921 184 836 90 l 427 90 l 427 509 l 692 509 b 921 310 838 509 921 435 z "},"Ы":{"ha":1194,"x_min":0,"x_max":0,"o":"m 823 309 b 518 599 825 480 701 601 l 232 599 l 232 972 l 135 972 l 135 0 l 518 0 b 823 309 699 -3 825 136 z m 962 972 l 962 0 l 1060 0 l 1060 972 z m 726 310 b 497 90 726 184 641 90 l 232 90 l 232 509 l 497 509 b 726 310 643 509 726 435 z "},"Љ":{"ha":1495,"x_min":0,"x_max":0,"o":"m 1441 309 b 1136 599 1443 480 1318 601 l 850 599 l 850 972 l 225 972 l 225 725 b 220 425 225 631 224 531 b 208 203 217 319 213 245 b 97 90 200 124 178 90 l 18 90 l 18 0 l 97 0 b 296 184 239 0 283 63 b 310 438 300 235 305 319 b 317 729 315 557 317 654 l 317 882 l 753 882 l 753 0 l 1136 0 b 1441 309 1317 -3 1443 136 z m 1344 310 b 1115 90 1344 184 1259 90 l 850 90 l 850 509 l 1115 509 b 1344 310 1261 509 1344 435 z "},"Њ":{"ha":1504,"x_min":0,"x_max":0,"o":"m 1455 296 b 1150 553 1458 440 1318 555 l 864 553 l 864 972 l 766 972 l 766 553 l 232 553 l 232 971 l 135 971 l 135 0 l 232 0 l 232 463 l 766 463 l 766 0 l 1156 0 b 1455 296 1322 -1 1457 106 z m 1358 286 b 1149 90 1358 164 1273 90 l 864 90 l 864 463 l 1133 463 b 1358 286 1278 463 1358 400 z "},"Ѕ":{"ha":859,"x_min":0,"x_max":0,"o":"m 58 306 b 433 -14 58 104 197 -14 b 772 262 639 -15 774 93 b 521 522 772 402 688 489 l 366 553 b 204 710 263 574 204 625 b 433 896 204 815 300 896 l 447 896 b 690 688 582 896 682 814 l 787 688 b 440 986 783 869 646 988 b 107 708 239 989 104 861 b 339 456 107 572 184 488 l 494 424 b 675 257 617 399 675 347 b 446 77 675 155 591 77 l 432 77 b 155 306 268 77 155 160 l 58 306 z "},"Є":{"ha":958,"x_min":0,"x_max":0,"o":"m 798 298 b 526 77 783 178 694 77 l 513 77 b 173 456 306 74 182 243 l 628 456 l 628 546 l 175 546 b 513 896 193 745 317 898 l 526 896 b 798 673 694 896 783 793 l 895 673 b 519 986 886 853 730 989 b 75 486 250 990 73 770 b 519 -14 73 202 250 -18 b 895 298 730 -16 886 120 l 798 298 z "},"Э":{"ha":956,"x_min":0,"x_max":0,"o":"m 879 505 b 454 986 879 800 736 986 b 65 673 224 986 85 859 l 163 673 b 447 896 178 817 306 897 l 461 896 b 694 802 565 896 643 865 b 781 546 747 739 775 654 l 334 546 l 334 456 l 781 456 b 467 77 768 244 675 76 l 453 77 b 157 298 311 75 170 155 l 60 298 b 454 -14 73 103 248 -16 b 879 505 732 -17 881 211 z "},"І":{"ha":367,"x_min":0,"x_max":0,"o":"m 135 0 l 232 0 l 232 972 l 135 972 z "},"Ї":{"ha":367,"x_min":0,"x_max":0,"o":"m 135 0 l 232 0 l 232 972 l 135 972 z m -1 1083 l 110 1083 l 110 1194 l -1 1194 z m 257 1083 l 368 1083 l 368 1194 l 257 1194 z "},"Ј":{"ha":538,"x_min":0,"x_max":0,"o":"m 36 0 l 189 0 b 410 254 331 0 410 87 l 410 972 l 313 972 l 313 250 b 187 90 313 144 271 90 l 36 90 z "},"Ћ":{"ha":1118,"x_min":0,"x_max":0,"o":"m 368 0 l 465 0 l 465 484 l 742 484 b 939 321 880 484 939 437 l 939 0 l 1036 0 l 1036 323 b 753 568 1036 505 942 568 l 465 568 l 465 882 l 819 882 l 819 972 l 21 972 l 21 882 l 368 882 z "},"Ю":{"ha":1372,"x_min":0,"x_max":0,"o":"m 1297 486 b 853 986 1300 792 1107 989 b 410 532 612 988 425 812 l 232 532 l 232 972 l 135 972 l 135 0 l 232 0 l 232 441 l 410 441 b 853 -14 424 161 611 -16 b 1297 486 1107 -16 1300 180 z m 1200 486 b 860 77 1202 237 1057 75 l 846 77 b 506 486 650 75 504 237 b 846 896 504 735 650 898 l 860 896 b 1200 486 1057 898 1202 735 z "},"Я":{"ha":937,"x_min":0,"x_max":0,"o":"m 122 0 l 220 0 l 220 347 b 282 410 220 389 241 410 l 705 410 l 705 0 l 803 0 l 803 972 l 416 972 b 109 713 245 975 105 859 b 252 479 109 602 165 517 b 122 347 157 479 122 443 z m 424 500 b 205 699 313 498 203 581 b 422 882 205 813 286 882 l 705 882 l 705 500 z "},"Ђ":{"ha":1131,"x_min":0,"x_max":0,"o":"m 368 0 l 465 0 l 465 501 l 755 501 b 966 317 902 501 966 438 l 966 282 b 815 92 966 157 923 92 l 732 92 l 732 0 l 821 0 b 1064 288 978 0 1064 116 l 1064 319 b 766 586 1064 495 961 586 l 465 586 l 465 882 l 819 882 l 819 972 l 21 972 l 21 882 l 368 882 z "},"Ѣ":{"ha":1060,"x_min":0,"x_max":0,"o":"m 1001 309 b 696 599 1003 480 878 601 l 410 599 l 410 772 l 724 772 l 724 856 l 410 856 l 410 972 l 313 972 l 313 856 l 39 856 l 39 772 l 313 772 l 313 0 l 696 0 b 1001 309 877 -3 1003 136 z m 904 310 b 675 90 904 184 819 90 l 410 90 l 410 509 l 675 509 b 904 310 821 509 904 435 z "},"Ѳ":{"ha":1039,"x_min":0,"x_max":0,"o":"m 964 486 b 519 986 966 792 774 989 b 75 486 265 989 73 792 b 519 -14 73 180 265 -16 b 964 486 774 -16 966 180 z m 174 528 b 513 896 186 753 328 898 l 526 896 b 861 574 700 896 832 774 b 707 496 818 522 766 496 b 559 534 667 496 617 509 l 497 564 b 354 603 444 590 396 603 b 174 528 286 603 220 572 z m 867 475 b 526 77 865 232 719 74 l 513 77 b 175 430 332 75 192 214 b 339 511 224 484 279 511 b 471 478 377 511 421 500 l 522 454 b 694 412 579 428 642 412 b 867 475 766 412 820 431 z "},"Ѵ":{"ha":996,"x_min":0,"x_max":0,"o":"m 918 972 b 733 831 821 972 768 920 l 460 109 l 115 972 l 11 972 l 406 0 l 514 0 l 814 766 b 879 869 836 823 849 851 b 939 884 895 879 914 884 l 972 884 l 972 972 z "},"Ғ":{"ha":726,"x_min":0,"x_max":0,"o":"m 710 882 l 710 972 l 157 972 l 157 541 l 18 541 l 18 457 l 157 457 l 157 0 l 254 0 l 254 457 l 511 457 l 511 541 l 254 541 l 254 882 z "},"Җ":{"ha":1475,"x_min":0,"x_max":0,"o":"m 1316 90 l 1026 583 l 1344 972 l 1234 972 l 741 391 l 741 972 l 646 972 l 646 393 l 153 972 l 41 972 l 363 581 l 17 0 l 138 0 l 434 508 l 646 267 l 646 0 l 741 0 l 741 267 l 953 509 l 1250 0 l 1378 0 l 1378 -208 l 1472 -208 l 1472 90 z "},"Қ":{"ha":1019,"x_min":0,"x_max":0,"o":"m 1014 -208 l 1013 90 l 850 90 l 511 580 l 907 972 l 778 972 l 232 431 l 232 972 l 135 972 l 135 0 l 232 0 l 232 303 l 441 511 l 791 0 l 920 0 l 920 -208 z "},"Ң":{"ha":1054,"x_min":0,"x_max":0,"o":"m 1011 -208 l 1010 90 l 878 90 l 878 972 l 781 972 l 781 532 l 232 532 l 232 972 l 135 972 l 135 0 l 232 0 l 232 441 l 781 441 l 781 0 l 917 0 l 917 -208 z "},"Ү":{"ha":825,"x_min":0,"x_max":0,"o":"m 708 972 l 414 492 l 119 972 l 9 972 l 364 403 l 364 0 l 461 0 l 461 403 l 815 972 z "},"Ұ":{"ha":833,"x_min":0,"x_max":0,"o":"m 819 972 l 712 972 l 418 492 l 123 972 l 14 972 l 368 403 l 125 403 l 125 319 l 368 319 l 368 0 l 465 0 l 465 319 l 708 319 l 708 403 l 465 403 z "},"Ҳ":{"ha":970,"x_min":0,"x_max":0,"o":"m 966 -208 l 965 90 l 782 90 l 489 498 l 832 972 l 720 972 l 433 576 l 149 972 l 33 972 l 376 496 l 17 0 l 129 0 l 431 418 l 732 0 l 872 0 l 872 -208 z "},"Ҷ":{"ha":982,"x_min":0,"x_max":0,"o":"m 961 -208 l 960 90 l 783 90 l 783 972 l 686 972 l 686 468 l 378 468 b 180 631 239 468 180 514 l 179 972 l 82 972 l 83 628 b 367 383 85 447 178 383 l 686 383 l 686 0 l 867 0 l 867 -208 z "},"Һ":{"ha":886,"x_min":0,"x_max":0,"o":"m 135 0 l 232 0 l 232 504 l 524 504 b 705 342 660 504 705 461 l 705 0 l 803 0 l 803 345 b 534 589 800 528 730 587 l 232 589 l 232 972 l 135 972 z "},"Ӏ":{"ha":367,"x_min":0,"x_max":0,"o":"m 135 0 l 232 0 l 232 972 l 135 972 z "},"Ә":{"ha":999,"x_min":0,"x_max":0,"o":"m 78 450 b 493 -14 75 186 232 -17 b 922 494 759 -17 924 205 b 493 986 924 787 773 989 b 87 673 285 988 108 866 l 184 673 b 486 896 205 807 311 896 l 500 896 b 825 513 717 898 823 728 l 81 513 b 78 450 79 485 78 464 z m 488 77 b 179 422 302 77 195 210 l 819 422 b 501 77 795 227 672 74 z "},"Ӣ":{"ha":1043,"x_min":0,"x_max":0,"o":"m 765 972 l 232 97 l 232 972 l 135 972 l 135 0 l 278 0 l 811 875 l 811 0 l 908 0 l 908 972 z m 323 1083 l 706 1083 l 706 1160 l 323 1160 z "},"Ө":{"ha":1039,"x_min":0,"x_max":0,"o":"m 964 486 b 519 986 966 792 774 989 b 75 486 265 989 73 792 b 519 -14 73 180 265 -16 b 964 486 774 -16 966 180 z m 174 529 b 513 896 186 753 328 898 l 526 896 b 865 529 711 898 852 753 z m 865 443 b 526 77 852 218 711 75 l 513 77 b 174 443 328 75 186 218 z "},"Ӯ":{"ha":840,"x_min":0,"x_max":0,"o":"m 733 972 l 447 360 l 122 972 l 14 972 l 396 263 l 361 184 b 199 89 330 116 279 89 l 135 89 l 135 0 l 212 0 b 394 73 302 0 358 28 b 449 164 412 96 431 127 l 836 972 z m 236 1083 l 618 1083 l 618 1160 l 236 1160 z "},"а":{"ha":724,"x_min":0,"x_max":0,"o":"m 627 0 b 619 153 622 33 619 83 l 619 444 b 351 708 619 590 526 708 b 85 500 205 710 91 622 l 175 500 b 230 597 180 542 198 574 b 349 632 262 621 302 632 l 355 632 b 529 444 463 632 529 563 l 529 416 l 310 400 b 141 344 244 395 188 376 b 71 192 94 312 71 261 b 290 -14 68 77 170 -16 b 536 111 408 -14 508 47 b 543 0 536 62 538 25 z m 529 250 b 314 62 532 152 408 60 l 300 62 b 161 197 222 62 161 121 b 328 329 161 273 227 321 l 529 343 z "},"б":{"ha":793,"x_min":0,"x_max":0,"o":"m 92 392 b 412 -14 90 137 219 -15 b 725 335 589 -17 728 136 b 422 668 727 540 595 670 b 170 525 312 668 210 600 b 390 821 178 728 227 818 l 566 821 b 726 950 688 821 726 856 l 726 979 l 637 979 l 637 953 b 570 900 637 915 618 900 l 395 900 b 170 808 291 900 216 869 b 97 568 125 751 104 666 b 92 392 94 519 92 460 z m 410 62 b 186 350 279 60 184 185 b 410 595 184 490 279 597 l 416 595 b 633 335 543 597 635 483 b 416 62 635 186 545 60 z "},"в":{"ha":729,"x_min":0,"x_max":0,"o":"m 111 0 l 418 0 b 660 195 561 0 660 84 b 521 354 660 288 591 347 b 639 518 594 376 639 436 b 416 694 639 619 559 694 l 111 694 z m 201 392 l 201 621 l 392 621 b 549 511 495 621 549 581 b 424 392 549 438 500 392 z m 201 74 l 201 315 l 421 315 b 570 201 522 315 570 263 b 412 74 570 119 519 74 z "},"г":{"ha":545,"x_min":0,"x_max":0,"o":"m 526 694 l 111 694 l 111 0 l 201 0 l 201 619 l 526 619 z "},"ѓ":{"ha":545,"x_min":0,"x_max":0,"o":"m 526 694 l 111 694 l 111 0 l 201 0 l 201 619 l 526 619 z m 250 791 l 318 791 l 440 972 l 329 972 z "},"ґ":{"ha":567,"x_min":0,"x_max":0,"o":"m 111 0 l 201 0 l 201 619 l 550 619 l 550 832 l 464 832 l 464 694 l 111 694 z "},"д":{"ha":832,"x_min":0,"x_max":0,"o":"m 679 77 l 679 694 l 180 694 l 180 546 b 170 182 180 378 180 267 b 83 77 160 102 140 77 l 21 77 l 21 -193 l 104 -193 l 104 0 l 717 0 l 717 -193 l 800 -193 l 800 77 z m 589 77 l 231 77 b 257 182 245 99 252 131 b 268 546 264 258 268 380 l 268 619 l 589 619 z "},"е":{"ha":730,"x_min":0,"x_max":0,"o":"m 69 349 b 379 -14 67 117 205 -16 b 562 41 452 -14 512 5 b 659 199 611 78 644 130 l 568 199 b 386 62 542 106 481 62 l 378 62 b 160 340 259 62 163 150 l 660 340 l 660 396 b 379 708 662 572 545 710 b 69 349 216 710 66 582 z m 163 416 b 371 632 180 574 277 632 l 385 632 b 570 416 492 632 566 541 z "},"ё":{"ha":730,"x_min":0,"x_max":0,"o":"m 69 349 b 379 -14 67 117 205 -16 b 562 41 452 -14 512 5 b 659 199 611 78 644 130 l 568 199 b 386 62 542 106 481 62 l 378 62 b 160 340 259 62 163 150 l 660 340 l 660 396 b 379 708 662 572 545 710 b 69 349 216 710 66 582 z m 163 416 b 371 632 180 574 277 632 l 385 632 b 570 416 492 632 566 541 z m 205 819 l 310 819 l 310 930 l 205 930 z m 449 819 l 553 819 l 553 930 l 449 930 z "},"ж":{"ha":1107,"x_min":0,"x_max":0,"o":"m 970 0 l 1080 0 l 819 425 l 1060 694 l 957 694 l 596 290 l 596 694 l 510 694 l 510 291 l 150 694 l 46 694 l 288 425 l 26 0 l 132 0 l 353 363 l 510 186 l 510 0 l 596 0 l 596 190 l 750 359 z "},"з":{"ha":690,"x_min":0,"x_max":0,"o":"m 619 193 b 477 351 619 280 571 334 b 604 521 563 380 604 443 b 351 708 604 630 510 708 b 189 669 286 708 231 695 b 98 576 147 643 117 612 b 68 472 80 540 70 505 l 158 472 b 211 587 163 517 181 556 b 351 633 241 618 288 633 b 514 515 449 633 514 589 b 371 387 514 442 456 387 l 264 387 l 264 311 l 374 311 b 529 196 469 311 529 271 b 346 61 529 113 443 61 b 146 222 220 61 152 109 l 57 222 b 346 -14 68 65 159 -14 b 619 193 503 -16 622 73 z "},"и":{"ha":811,"x_min":0,"x_max":0,"o":"m 585 694 l 201 88 l 201 694 l 111 694 l 111 0 l 239 0 l 610 593 l 610 0 l 700 0 l 700 694 z "},"й":{"ha":811,"x_min":0,"x_max":0,"o":"m 585 694 l 201 88 l 201 694 l 111 694 l 111 0 l 239 0 l 610 593 l 610 0 l 700 0 l 700 694 z m 209 972 b 260 840 209 912 226 868 b 399 799 295 812 341 799 b 589 972 515 799 589 852 l 510 972 b 399 861 504 893 466 861 b 288 972 332 861 295 892 z "},"к":{"ha":728,"x_min":0,"x_max":0,"o":"m 596 0 l 708 0 l 408 420 l 694 694 l 579 694 l 201 328 l 201 694 l 111 694 l 111 0 l 201 0 l 201 222 l 342 356 z "},"ќ":{"ha":728,"x_min":0,"x_max":0,"o":"m 596 0 l 708 0 l 408 420 l 694 694 l 579 694 l 201 328 l 201 694 l 111 694 l 111 0 l 201 0 l 201 222 l 342 356 z m 300 791 l 368 791 l 490 972 l 379 972 z "},"л":{"ha":772,"x_min":0,"x_max":0,"o":"m 21 0 l 60 0 b 254 157 178 1 247 28 b 262 546 260 281 262 411 l 262 619 l 571 619 l 571 0 l 661 0 l 661 694 l 175 694 l 175 546 b 168 168 175 378 174 260 b 53 77 163 98 126 77 l 21 77 z "},"м":{"ha":996,"x_min":0,"x_max":0,"o":"m 743 694 l 500 92 l 253 694 l 111 694 l 111 0 l 195 0 l 195 616 l 449 0 l 543 0 l 798 616 l 798 0 l 885 0 l 885 694 z "},"н":{"ha":798,"x_min":0,"x_max":0,"o":"m 111 0 l 201 0 l 201 325 l 596 325 l 596 0 l 686 0 l 686 694 l 596 694 l 596 400 l 201 400 l 201 694 l 111 694 z "},"о":{"ha":775,"x_min":0,"x_max":0,"o":"m 68 347 b 387 -14 64 138 210 -17 b 707 347 565 -17 709 138 b 387 708 709 557 565 711 b 68 347 210 711 64 557 z m 380 62 b 160 347 256 60 158 174 b 380 632 160 522 255 632 l 395 632 b 615 347 520 632 615 522 b 395 62 617 174 519 60 z "},"п":{"ha":793,"x_min":0,"x_max":0,"o":"m 111 0 l 201 0 l 201 619 l 591 619 l 591 0 l 682 0 l 682 694 l 111 694 z "},"р":{"ha":812,"x_min":0,"x_max":0,"o":"m 111 -278 l 201 -278 l 201 111 b 433 -14 242 36 342 -14 b 743 347 612 -16 745 130 b 433 708 745 565 612 710 b 201 583 342 708 242 659 l 201 694 l 111 694 z m 424 62 b 201 347 278 60 200 195 b 424 632 200 500 278 634 l 431 632 b 652 347 574 634 653 500 b 431 62 653 195 574 60 z "},"с":{"ha":724,"x_min":0,"x_max":0,"o":"m 69 347 b 389 -14 68 142 188 -16 b 570 50 463 -14 524 7 b 660 222 617 92 647 150 l 570 222 b 509 107 560 176 540 138 b 396 62 479 77 441 62 l 382 62 b 160 347 236 60 159 193 b 382 632 159 501 236 634 l 396 632 b 511 588 441 632 480 617 b 570 472 542 559 562 520 l 660 472 b 389 708 646 617 538 708 b 69 347 188 711 68 552 z "},"т":{"ha":612,"x_min":0,"x_max":0,"o":"m 593 694 l 20 694 l 20 619 l 261 619 l 261 0 l 351 0 l 351 619 l 593 619 z "},"у":{"ha":722,"x_min":0,"x_max":0,"o":"m 703 694 l 608 694 l 370 132 l 131 694 l 32 694 l 326 20 l 326 -97 b 271 -153 326 -140 313 -153 l 74 -153 l 74 -229 l 285 -229 b 416 -109 375 -229 416 -193 l 416 22 z "},"ў":{"ha":722,"x_min":0,"x_max":0,"o":"m 703 694 l 608 694 l 370 132 l 131 694 l 32 694 l 326 20 l 326 -97 b 271 -153 326 -140 313 -153 l 74 -153 l 74 -229 l 285 -229 b 416 -109 375 -229 416 -193 l 416 22 z m 172 972 b 224 840 172 912 189 868 b 362 799 258 812 304 799 b 553 972 479 799 553 852 l 473 972 b 362 861 467 893 429 861 b 251 972 295 861 258 892 z "},"ф":{"ha":1173,"x_min":0,"x_max":0,"o":"m 543 -278 l 629 -278 l 629 96 b 711 18 648 66 675 40 b 823 -14 747 -3 784 -14 b 1101 347 1003 -14 1101 123 b 831 708 1103 557 1006 710 b 712 676 788 708 748 697 b 629 597 676 655 649 629 l 629 972 l 543 972 l 543 597 b 460 676 524 629 496 655 b 342 708 424 697 385 708 b 71 347 178 711 69 553 b 349 -14 71 124 170 -14 b 462 18 389 -14 426 -3 b 543 96 498 40 525 66 z m 345 62 b 161 347 220 60 160 192 b 349 632 161 503 228 634 l 355 632 b 543 347 473 632 543 524 b 351 62 543 168 475 62 z m 821 62 b 629 347 696 62 629 168 b 817 632 629 524 699 632 l 823 632 b 966 553 888 632 936 606 b 1011 347 996 500 1011 431 b 828 62 1011 191 953 62 z "},"х":{"ha":694,"x_min":0,"x_max":0,"o":"m 667 0 l 399 355 l 657 694 l 555 694 l 349 422 l 143 694 l 37 694 l 296 352 l 28 0 l 129 0 l 346 286 l 561 0 z "},"ч":{"ha":705,"x_min":0,"x_max":0,"o":"m 504 0 l 595 0 l 595 694 l 504 694 l 504 338 l 300 338 b 157 453 196 338 157 366 l 157 694 l 66 694 l 66 440 b 290 261 69 295 127 262 l 504 261 z "},"ц":{"ha":831,"x_min":0,"x_max":0,"o":"m 715 -192 l 799 -192 l 799 77 l 677 77 l 677 694 l 587 694 l 587 75 l 201 75 l 201 694 l 111 694 l 111 0 l 715 0 z "},"ш":{"ha":1162,"x_min":0,"x_max":0,"o":"m 111 0 l 1051 0 l 1051 694 l 961 694 l 961 75 l 627 75 l 627 694 l 536 694 l 536 75 l 201 75 l 201 694 l 111 694 z "},"щ":{"ha":1203,"x_min":0,"x_max":0,"o":"m 1051 75 l 1051 694 l 961 694 l 961 75 l 627 75 l 627 694 l 536 694 l 536 75 l 201 75 l 201 694 l 111 694 l 111 0 l 1086 0 l 1086 -192 l 1171 -192 l 1171 75 z "},"џ":{"ha":789,"x_min":0,"x_max":0,"o":"m 677 694 l 587 694 l 587 75 l 201 75 l 201 694 l 111 694 l 111 0 l 353 0 l 353 -192 l 436 -192 l 436 0 l 677 0 z "},"ь":{"ha":686,"x_min":0,"x_max":0,"o":"m 111 0 l 390 0 b 642 231 549 0 642 92 b 401 439 644 343 553 441 l 201 439 l 201 694 l 111 694 z m 201 74 l 201 363 l 382 363 b 551 228 490 363 551 307 b 382 74 551 125 487 74 z "},"ъ":{"ha":812,"x_min":0,"x_max":0,"o":"m 768 231 b 528 439 770 343 679 441 l 328 439 l 328 694 l 20 694 l 20 619 l 237 619 l 237 0 l 516 0 b 768 231 675 0 768 92 z m 677 228 b 508 74 677 125 613 74 l 328 74 l 328 363 l 508 363 b 677 228 616 363 677 307 z "},"ы":{"ha":951,"x_min":0,"x_max":0,"o":"m 111 0 l 390 0 b 642 231 549 0 642 92 b 401 439 644 343 553 441 l 201 439 l 201 694 l 111 694 z m 750 0 l 840 0 l 840 694 l 750 694 z m 201 74 l 201 363 l 382 363 b 551 228 490 363 551 307 b 382 74 551 125 487 74 z "},"љ":{"ha":1139,"x_min":0,"x_max":0,"o":"m 1095 231 b 854 439 1097 343 1006 441 l 654 439 l 654 694 l 175 694 l 175 546 b 168 168 175 378 174 260 b 53 77 163 98 126 77 l 21 77 l 21 0 l 60 0 b 254 157 178 1 247 28 b 262 546 260 281 262 411 l 262 619 l 564 619 l 564 0 l 843 0 b 1095 231 1002 0 1095 92 z m 1004 228 b 835 74 1004 125 940 74 l 654 74 l 654 363 l 835 363 b 1004 228 943 363 1004 307 z "},"њ":{"ha":1164,"x_min":0,"x_max":0,"o":"m 111 0 l 201 0 l 201 336 l 589 336 l 589 0 l 872 0 b 1120 215 1030 0 1120 81 b 880 412 1120 348 1032 412 l 679 412 l 679 694 l 589 694 l 589 411 l 201 411 l 201 694 l 111 694 z m 679 74 l 679 336 l 863 336 b 1028 215 971 336 1028 301 b 863 74 1028 117 970 74 z "},"ѕ":{"ha":663,"x_min":0,"x_max":0,"o":"m 57 208 b 334 -14 64 79 157 -14 b 587 195 486 -14 587 64 b 541 318 587 250 572 290 b 410 378 509 346 466 366 l 301 401 b 175 513 211 421 175 451 b 326 632 175 576 232 632 l 340 632 b 504 486 433 632 496 564 l 595 486 b 334 708 588 604 500 710 b 85 504 198 708 85 632 b 135 378 85 449 102 408 b 273 317 169 350 215 330 l 375 294 b 497 187 465 273 497 243 b 340 62 497 111 437 62 l 326 62 b 147 208 228 62 156 115 l 57 208 z "},"є":{"ha":721,"x_min":0,"x_max":0,"o":"m 570 222 b 509 107 560 176 540 138 b 396 62 479 77 441 62 l 382 62 b 161 313 246 62 172 172 l 485 313 l 485 389 l 162 389 b 382 632 174 526 249 632 l 396 632 b 511 588 441 632 480 617 b 570 472 542 559 562 520 l 660 472 b 389 708 646 617 538 708 b 69 347 188 711 68 552 b 389 -14 68 142 188 -16 b 570 50 463 -14 524 7 b 660 222 617 92 647 150 l 570 222 z "},"э":{"ha":720,"x_min":0,"x_max":0,"o":"m 648 347 b 342 708 648 561 549 708 b 58 472 180 708 80 607 l 149 472 b 335 632 162 555 224 632 l 349 632 b 498 565 416 632 465 610 b 557 389 532 521 551 462 l 241 389 l 241 313 l 557 313 b 501 132 553 238 534 178 b 354 62 469 85 420 62 l 340 62 b 149 222 250 62 166 134 l 58 222 b 347 -14 83 80 199 -14 b 648 347 548 -14 648 134 z "},"і":{"ha":313,"x_min":0,"x_max":0,"o":"m 104 819 l 208 819 l 208 937 l 104 937 z m 111 0 l 201 0 l 201 694 l 111 694 z "},"ї":{"ha":313,"x_min":0,"x_max":0,"o":"m 111 0 l 201 0 l 201 694 l 111 694 z m -17 819 l 87 819 l 87 930 l -17 930 z m 227 819 l 330 819 l 330 930 l 227 930 z "},"ј":{"ha":323,"x_min":0,"x_max":0,"o":"m 115 819 l 220 819 l 220 937 l 115 937 z m -114 -229 l 81 -229 b 212 -104 172 -229 212 -193 l 212 694 l 122 694 l 122 -97 b 66 -153 122 -140 109 -153 l -114 -153 z "},"ћ":{"ha":791,"x_min":0,"x_max":0,"o":"m 688 458 b 452 708 688 606 604 708 b 201 576 337 708 250 660 l 201 799 l 436 799 l 436 868 l 201 868 l 201 972 l 111 972 l 111 868 l 12 868 l 12 799 l 111 799 l 111 0 l 201 0 l 201 375 b 416 632 199 530 310 634 l 431 632 b 597 431 542 632 597 564 l 597 0 l 688 0 l 688 458 z "},"ю":{"ha":1022,"x_min":0,"x_max":0,"o":"m 954 347 b 635 708 957 557 812 711 b 319 403 473 710 338 584 l 201 403 l 201 694 l 111 694 l 111 0 l 201 0 l 201 328 l 316 328 b 635 -14 321 127 463 -16 b 954 347 812 -17 957 138 z m 863 347 b 642 62 865 174 766 60 l 628 62 b 408 347 504 60 406 174 b 628 632 408 522 503 632 l 642 632 b 863 347 768 632 863 522 z "},"я":{"ha":754,"x_min":0,"x_max":0,"o":"m 96 0 l 186 0 l 186 215 b 257 277 186 258 203 277 l 553 277 l 553 0 l 643 0 l 643 694 l 361 694 b 103 488 198 694 103 620 b 201 329 103 406 142 351 b 96 222 136 329 96 290 z m 340 353 b 230 390 291 353 254 365 b 193 484 205 415 193 446 b 354 621 193 575 247 621 l 553 621 l 553 353 z "},"ђ":{"ha":791,"x_min":0,"x_max":0,"o":"m 688 458 b 452 708 688 606 604 708 b 201 576 337 708 250 660 l 201 799 l 425 799 l 425 868 l 201 868 l 201 972 l 111 972 l 111 868 l 0 868 l 0 799 l 111 799 l 111 0 l 201 0 l 201 375 b 416 632 199 530 310 634 l 431 632 b 597 431 542 632 597 564 l 597 -97 b 542 -153 597 -138 583 -153 l 400 -153 l 400 -229 l 555 -229 b 688 -104 647 -229 688 -193 l 688 458 z "},"ѣ":{"ha":785,"x_min":0,"x_max":0,"o":"m 737 224 b 505 439 737 363 655 439 l 297 439 l 297 618 l 575 618 l 575 694 l 297 694 l 297 972 l 207 972 l 207 694 l 22 694 l 22 618 l 207 618 l 207 0 l 485 0 b 737 224 645 0 737 90 z m 646 224 b 471 74 646 125 578 74 l 297 74 l 297 363 l 485 363 b 646 224 588 363 646 313 z "},"ѳ":{"ha":775,"x_min":0,"x_max":0,"o":"m 707 347 b 387 708 709 557 565 711 b 68 347 210 711 64 557 b 387 -14 64 138 210 -17 b 707 347 565 -17 709 138 z m 161 382 b 380 632 172 536 264 632 l 395 632 b 611 410 504 632 592 549 b 504 359 586 378 547 359 b 415 383 477 359 455 367 l 372 400 b 273 422 332 415 299 422 b 161 382 235 422 193 407 z m 614 324 b 395 62 606 163 515 62 l 380 62 b 162 304 266 62 176 155 b 267 342 194 330 229 342 b 359 321 291 342 322 335 l 399 306 b 500 283 437 290 467 283 b 614 324 547 283 585 297 z "},"ѵ":{"ha":747,"x_min":0,"x_max":0,"o":"m 671 694 b 513 574 589 694 543 656 l 338 84 l 123 694 l 28 694 l 281 0 l 389 0 l 590 533 b 689 612 612 591 640 612 l 724 612 l 724 694 z "},"ғ":{"ha":562,"x_min":0,"x_max":0,"o":"m 545 619 l 545 694 l 130 694 l 130 376 l 31 376 l 31 307 l 130 307 l 130 0 l 220 0 l 220 307 l 425 307 l 425 376 l 220 376 l 220 619 z "},"җ":{"ha":1168,"x_min":0,"x_max":0,"o":"m 1025 90 l 819 425 l 1060 694 l 957 694 l 596 290 l 596 694 l 510 694 l 510 291 l 150 694 l 46 694 l 288 425 l 26 0 l 132 0 l 353 363 l 510 186 l 510 0 l 596 0 l 596 190 l 750 359 l 970 0 l 1063 0 l 1063 -208 l 1147 -208 l 1147 90 z "},"қ":{"ha":793,"x_min":0,"x_max":0,"o":"m 779 -208 l 778 90 l 644 90 l 408 420 l 694 694 l 579 694 l 201 328 l 201 694 l 111 694 l 111 0 l 201 0 l 201 222 l 342 356 l 596 0 l 694 0 l 694 -208 z "},"ң":{"ha":851,"x_min":0,"x_max":0,"o":"m 821 -208 l 819 90 l 686 90 l 686 694 l 596 694 l 596 400 l 201 400 l 201 694 l 111 694 l 111 0 l 201 0 l 201 325 l 596 325 l 596 0 l 736 0 l 736 -208 z "},"ү":{"ha":711,"x_min":0,"x_max":0,"o":"m 690 694 l 596 694 l 357 132 l 118 694 l 20 694 l 314 20 l 314 -278 l 404 -278 l 404 24 z "},"ұ":{"ha":717,"x_min":0,"x_max":0,"o":"m 693 694 l 599 694 l 360 132 l 121 694 l 22 694 l 295 69 l 107 69 l 107 0 l 317 0 l 317 -278 l 407 -278 l 407 0 l 616 0 l 616 69 l 426 69 z "},"ҳ":{"ha":766,"x_min":0,"x_max":0,"o":"m 745 -208 l 743 90 l 599 90 l 399 355 l 657 694 l 555 694 l 349 422 l 143 694 l 37 694 l 296 352 l 28 0 l 129 0 l 346 286 l 561 0 l 660 0 l 660 -208 z "},"ҷ":{"ha":775,"x_min":0,"x_max":0,"o":"m 747 -208 l 746 90 l 595 90 l 595 694 l 504 694 l 504 338 l 300 338 b 157 453 196 338 157 366 l 157 694 l 66 694 l 66 440 b 290 261 69 295 127 262 l 504 261 l 504 0 l 663 0 l 663 -208 z "},"һ":{"ha":791,"x_min":0,"x_max":0,"o":"m 111 0 l 201 0 l 201 375 b 416 632 199 530 310 634 l 431 632 b 597 431 542 632 597 564 l 597 0 l 688 0 l 688 458 b 452 708 688 606 604 708 b 201 576 337 708 250 660 l 201 972 l 111 972 z "},"ӏ":{"ha":313,"x_min":0,"x_max":0,"o":"m 111 0 l 201 0 l 201 972 l 111 972 z "},"ә":{"ha":730,"x_min":0,"x_max":0,"o":"m 70 326 b 351 -14 70 106 164 -14 b 661 346 515 -16 664 112 b 361 708 661 581 545 708 b 72 496 218 708 102 632 l 163 496 b 354 632 189 586 257 632 l 363 632 b 571 354 491 632 568 543 l 71 354 z m 346 62 b 161 278 237 62 161 154 l 568 278 b 359 62 549 120 454 62 z "},"ӣ":{"ha":811,"x_min":0,"x_max":0,"o":"m 585 694 l 201 88 l 201 694 l 111 694 l 111 0 l 239 0 l 610 593 l 610 0 l 700 0 l 700 694 z m 215 819 l 597 819 l 597 896 l 215 896 z "},"ө":{"ha":775,"x_min":0,"x_max":0,"o":"m 707 347 b 387 708 709 557 565 711 b 68 347 210 711 64 557 b 387 -14 64 138 210 -17 b 707 347 565 -17 709 138 z m 162 392 b 380 632 177 541 266 632 l 395 632 b 613 392 509 632 598 541 z m 614 322 b 395 62 606 162 513 62 l 380 62 b 161 322 262 62 169 162 z "},"ӯ":{"ha":722,"x_min":0,"x_max":0,"o":"m 703 694 l 608 694 l 370 132 l 131 694 l 32 694 l 326 20 l 326 -97 b 271 -153 326 -140 313 -153 l 74 -153 l 74 -229 l 285 -229 b 416 -109 375 -229 416 -193 l 416 22 z m 178 819 l 560 819 l 560 896 l 178 896 z "},"Α":{"ha":940,"x_min":0,"x_max":0,"o":"m 825 0 l 928 0 l 532 972 l 410 972 l 11 0 l 111 0 l 220 268 l 717 268 z m 256 358 l 469 883 l 681 358 z "},"Β":{"ha":911,"x_min":0,"x_max":0,"o":"m 135 0 l 550 0 b 829 268 705 -2 832 106 b 653 493 831 406 734 479 b 808 718 736 517 808 610 b 541 972 810 874 693 974 l 135 972 z m 232 538 l 232 882 l 530 882 b 711 710 636 882 711 819 b 530 538 711 600 636 538 z m 232 90 l 232 447 l 530 447 b 677 401 591 447 640 431 b 732 269 713 370 732 327 b 529 90 732 153 648 90 z "},"Γ":{"ha":772,"x_min":0,"x_max":0,"o":"m 135 0 l 232 0 l 232 882 l 760 882 l 760 972 l 135 972 z "},"Δ":{"ha":943,"x_min":0,"x_max":0,"o":"m 533 972 l 411 972 l 22 46 l 22 0 l 920 0 l 920 46 z m 471 878 l 796 90 l 143 90 z "},"Ε":{"ha":892,"x_min":0,"x_max":0,"o":"m 135 0 l 828 0 l 828 90 l 232 90 l 232 456 l 730 456 l 730 546 l 232 546 l 232 882 l 814 882 l 814 972 l 135 972 z "},"Ζ":{"ha":828,"x_min":0,"x_max":0,"o":"m 57 0 l 772 0 l 772 90 l 163 90 l 758 876 l 758 972 l 71 972 l 71 882 l 648 882 l 57 103 z "},"Η":{"ha":1013,"x_min":0,"x_max":0,"o":"m 135 0 l 232 0 l 232 441 l 781 441 l 781 0 l 878 0 l 878 972 l 781 972 l 781 532 l 232 532 l 232 972 l 135 972 z "},"Θ":{"ha":1039,"x_min":0,"x_max":0,"o":"m 75 486 b 519 -14 73 180 265 -16 b 964 486 774 -16 966 180 b 519 986 966 792 774 989 b 75 486 265 989 73 792 z m 513 77 b 172 486 316 75 170 237 b 513 896 170 735 316 898 l 526 896 b 867 486 723 898 869 735 b 526 77 869 237 723 75 z m 285 456 l 753 456 l 753 546 l 285 546 z "},"Ι":{"ha":367,"x_min":0,"x_max":0,"o":"m 135 0 l 232 0 l 232 972 l 135 972 z "},"Κ":{"ha":929,"x_min":0,"x_max":0,"o":"m 791 0 l 913 0 l 511 580 l 907 972 l 778 972 l 232 431 l 232 972 l 135 972 l 135 0 l 232 0 l 232 303 l 441 511 z "},"Λ":{"ha":933,"x_min":0,"x_max":0,"o":"m 921 0 l 528 972 l 406 972 l 11 0 l 114 0 l 465 869 l 814 0 z "},"Μ":{"ha":1276,"x_min":0,"x_max":0,"o":"m 981 972 l 642 73 l 300 972 l 135 972 l 135 0 l 231 0 l 231 895 l 572 0 l 707 0 l 1046 892 l 1046 0 l 1141 0 l 1141 972 z "},"Ν":{"ha":1026,"x_min":0,"x_max":0,"o":"m 794 972 l 794 149 l 260 972 l 135 972 l 135 0 l 232 0 l 232 837 l 774 0 l 892 0 l 892 972 z "},"Ξ":{"ha":868,"x_min":0,"x_max":0,"o":"m 82 882 l 786 882 l 786 972 l 82 972 z m 150 456 l 718 456 l 718 546 l 150 546 z m 68 0 l 800 0 l 800 90 l 68 90 z "},"Ο":{"ha":1039,"x_min":0,"x_max":0,"o":"m 75 486 b 519 -14 73 180 265 -16 b 964 486 774 -16 966 180 b 519 986 966 792 774 989 b 75 486 265 989 73 792 z m 513 77 b 172 486 316 75 170 237 b 513 896 170 735 316 898 l 526 896 b 867 486 723 898 869 735 b 526 77 869 237 723 75 z "},"Π":{"ha":1007,"x_min":0,"x_max":0,"o":"m 135 0 l 232 0 l 232 882 l 775 882 l 775 0 l 872 0 l 872 972 l 135 972 z "},"Ρ":{"ha":880,"x_min":0,"x_max":0,"o":"m 135 0 l 232 0 l 232 400 l 524 400 b 829 685 692 398 831 503 b 524 972 832 867 692 974 l 135 972 z m 232 490 l 232 882 l 503 882 b 669 831 572 882 628 865 b 732 685 711 798 732 749 b 503 490 732 557 644 490 z "},"Σ":{"ha":828,"x_min":0,"x_max":0,"o":"m 167 90 l 524 513 l 184 882 l 758 882 l 758 972 l 68 972 l 68 876 l 406 511 l 57 103 l 57 0 l 772 0 l 772 90 z "},"Τ":{"ha":847,"x_min":0,"x_max":0,"o":"m 375 0 l 472 0 l 472 882 l 827 882 l 827 972 l 21 972 l 21 882 l 375 882 z "},"Υ":{"ha":825,"x_min":0,"x_max":0,"o":"m 708 972 l 414 492 l 119 972 l 9 972 l 364 403 l 364 0 l 461 0 l 461 403 l 815 972 z "},"Φ":{"ha":1169,"x_min":0,"x_max":0,"o":"m 536 -31 l 633 -31 l 633 69 b 863 119 715 71 792 88 b 1036 257 935 149 992 195 b 1103 486 1080 319 1103 395 b 1036 715 1103 577 1080 653 b 863 854 992 777 935 823 b 633 903 792 884 715 901 l 633 1006 l 536 1006 l 536 903 b 306 854 454 901 377 884 b 132 715 235 823 176 777 b 66 486 88 653 66 577 b 536 69 62 212 294 75 z m 536 153 b 164 486 335 155 162 255 b 536 819 162 718 335 817 z m 1006 486 b 633 153 1008 255 835 155 l 633 819 b 1006 486 835 817 1008 718 z "},"Χ":{"ha":865,"x_min":0,"x_max":0,"o":"m 847 0 l 489 498 l 832 972 l 720 972 l 433 576 l 149 972 l 33 972 l 376 496 l 17 0 l 129 0 l 431 418 l 732 0 z "},"Ψ":{"ha":1022,"x_min":0,"x_max":0,"o":"m 844 972 l 844 623 b 559 338 846 448 726 338 l 559 972 l 463 972 l 463 338 b 178 623 295 338 176 448 l 178 972 l 81 972 l 81 608 b 463 248 78 398 231 248 l 463 0 l 559 0 l 559 248 b 942 608 791 248 944 398 l 942 972 z "},"Ω":{"ha":1072,"x_min":0,"x_max":0,"o":"m 98 0 l 425 0 l 425 92 b 189 486 270 179 189 308 b 529 896 186 726 335 899 l 543 896 b 884 486 738 899 886 726 b 647 92 884 308 802 179 l 647 0 l 974 0 l 974 90 l 785 90 b 981 489 911 183 981 319 b 925 744 981 583 962 669 b 768 922 888 819 836 879 b 536 986 701 964 624 986 b 304 922 449 986 372 964 b 147 744 237 879 184 819 b 92 489 110 669 92 583 b 288 90 92 319 161 183 l 98 90 z "},"Ά":{"ha":970,"x_min":0,"x_max":0,"o":"m 854 0 l 957 0 l 561 972 l 439 972 l 40 0 l 140 0 l 249 268 l 746 268 z m 285 358 l 498 883 l 710 358 z m 84 791 l 153 791 l 275 972 l 163 972 z "},"Έ":{"ha":1028,"x_min":0,"x_max":0,"o":"m 271 0 l 964 0 l 964 90 l 368 90 l 368 456 l 867 456 l 867 546 l 368 546 l 368 882 l 950 882 l 950 972 l 271 972 z m 11 791 l 79 791 l 201 972 l 90 972 z "},"Ή":{"ha":1149,"x_min":0,"x_max":0,"o":"m 271 0 l 368 0 l 368 441 l 917 441 l 917 0 l 1014 0 l 1014 972 l 917 972 l 917 532 l 368 532 l 368 972 l 271 972 z m 11 791 l 79 791 l 201 972 l 90 972 z "},"Ί":{"ha":503,"x_min":0,"x_max":0,"o":"m 271 0 l 368 0 l 368 972 l 271 972 z m 11 791 l 79 791 l 201 972 l 90 972 z "},"Ό":{"ha":1128,"x_min":0,"x_max":0,"o":"m 164 486 b 608 -14 161 180 354 -16 b 1053 486 863 -16 1055 180 b 608 986 1055 792 863 989 b 164 486 354 989 161 792 z m 602 77 b 261 486 405 75 259 237 b 602 896 259 735 405 898 l 615 896 b 956 486 812 898 958 735 b 615 77 958 237 812 75 z m 33 791 l 102 791 l 224 972 l 113 972 z "},"Ύ":{"ha":1071,"x_min":0,"x_max":0,"o":"m 954 972 l 659 492 l 365 972 l 255 972 l 610 403 l 610 0 l 707 0 l 707 403 l 1061 972 z m 37 791 l 106 791 l 228 972 l 117 972 z "},"Ώ":{"ha":1141,"x_min":0,"x_max":0,"o":"m 168 0 l 494 0 l 494 92 b 258 486 339 179 258 308 b 598 896 256 726 404 899 l 612 896 b 953 486 807 899 956 726 b 716 92 953 308 871 179 l 716 0 l 1043 0 l 1043 90 l 854 90 b 1050 489 981 183 1050 319 b 994 744 1050 583 1031 669 b 838 922 957 819 905 879 b 606 986 770 964 693 986 b 373 922 518 986 441 964 b 216 744 306 879 254 819 b 161 489 179 669 161 583 b 357 90 161 319 230 183 l 168 90 z m 31 791 l 99 791 l 221 972 l 110 972 z "},"Ϊ":{"ha":367,"x_min":0,"x_max":0,"o":"m 135 0 l 232 0 l 232 972 l 135 972 z m -1 1083 l 110 1083 l 110 1194 l -1 1194 z m 257 1083 l 368 1083 l 368 1194 l 257 1194 z "},"Ϋ":{"ha":825,"x_min":0,"x_max":0,"o":"m 708 972 l 414 492 l 119 972 l 9 972 l 364 403 l 364 0 l 461 0 l 461 403 l 815 972 z m 229 1083 l 340 1083 l 340 1194 l 229 1194 z m 487 1083 l 598 1083 l 598 1194 l 487 1194 z "},"α":{"ha":836,"x_min":0,"x_max":0,"o":"m 69 347 b 379 -14 67 130 200 -16 b 611 111 470 -14 570 36 b 729 0 616 35 650 0 l 791 0 l 791 77 l 757 77 b 701 139 716 77 701 96 l 701 694 l 611 694 l 611 583 b 379 708 570 659 470 708 b 69 347 200 710 67 565 z m 382 62 b 160 347 237 60 159 195 b 382 632 159 500 237 634 l 389 632 b 611 347 534 634 612 500 b 389 62 612 195 534 60 z "},"β":{"ha":778,"x_min":0,"x_max":0,"o":"m 713 279 b 522 532 713 424 619 509 b 665 750 584 549 667 631 b 399 986 667 870 563 989 b 111 673 214 987 110 850 l 111 -278 l 201 -278 l 201 71 b 404 -14 250 19 322 -14 b 713 279 578 -16 715 118 z m 623 281 b 401 62 624 165 537 60 l 395 62 b 201 180 305 62 240 113 l 201 665 b 392 909 201 820 272 909 l 400 909 b 575 745 507 909 575 834 b 400 566 575 649 517 566 l 347 566 l 347 489 l 406 489 b 562 437 470 489 522 471 b 623 281 602 402 623 351 z "},"γ":{"ha":699,"x_min":0,"x_max":0,"o":"m 578 694 l 350 84 l 122 694 l 26 694 l 304 -28 l 304 -278 l 395 -278 l 395 -28 l 672 694 z "},"δ":{"ha":777,"x_min":0,"x_max":0,"o":"m 708 343 b 551 656 707 486 651 565 l 283 896 l 659 896 l 659 972 l 150 972 l 150 903 l 392 686 b 370 688 382 687 374 688 b 69 345 170 690 68 529 b 386 -14 67 146 198 -17 b 708 343 571 -17 711 145 z m 618 343 b 390 62 620 177 526 60 l 383 62 b 160 345 242 60 159 193 b 221 548 160 431 180 498 b 397 623 262 597 321 623 b 468 618 421 623 444 621 l 500 590 b 618 343 575 525 618 446 z "},"ε":{"ha":718,"x_min":0,"x_max":0,"o":"m 572 208 b 376 62 558 118 486 62 l 363 62 b 158 197 231 62 158 109 b 310 317 158 270 226 317 l 435 317 l 435 393 l 321 393 b 180 504 235 393 180 436 b 359 632 180 571 243 632 l 374 632 b 566 486 490 632 551 579 l 656 486 b 367 708 641 618 540 708 b 90 511 209 709 87 625 b 209 353 90 438 133 377 b 68 186 132 334 68 267 b 367 -14 68 60 169 -14 b 663 208 533 -14 649 76 z "},"ζ":{"ha":619,"x_min":0,"x_max":0,"o":"m 155 264 b 261 533 155 364 193 449 b 397 679 296 575 341 624 l 615 893 l 615 972 l 122 972 l 122 896 l 515 896 l 301 688 b 168 541 246 634 202 585 b 91 408 134 497 109 453 b 65 264 74 363 65 315 b 380 0 65 98 190 0 l 441 0 b 526 -62 502 0 526 -13 b 507 -196 526 -96 518 -149 l 585 -196 b 607 -54 596 -150 607 -92 b 450 77 607 38 558 77 l 383 77 b 155 264 231 77 155 139 z "},"η":{"ha":808,"x_min":0,"x_max":0,"o":"m 614 -278 l 704 -278 l 704 454 b 461 708 704 617 602 708 b 311 672 405 708 355 696 b 214 578 267 648 235 617 b 100 694 214 657 171 694 l 52 694 l 52 618 l 72 618 b 127 562 115 618 127 605 l 127 0 l 218 0 l 218 347 b 439 632 217 500 294 634 l 447 632 b 614 427 558 632 614 565 z "},"θ":{"ha":781,"x_min":0,"x_max":0,"o":"m 696 486 b 390 986 696 789 595 986 b 85 486 186 986 85 789 b 390 -14 85 182 186 -14 b 696 486 595 -14 696 182 z m 174 532 b 382 909 180 779 243 909 l 397 909 b 606 532 536 909 600 778 z m 607 456 b 397 62 602 199 539 62 l 382 62 b 174 456 241 62 178 198 z "},"ι":{"ha":338,"x_min":0,"x_max":0,"o":"m 109 119 b 231 0 109 43 149 0 l 289 0 l 289 77 l 254 77 b 199 134 213 77 199 91 l 199 694 l 109 694 l 109 119 z "},"κ":{"ha":729,"x_min":0,"x_max":0,"o":"m 596 0 l 708 0 l 406 418 l 581 586 b 613 612 595 599 606 608 b 648 618 621 616 633 618 l 681 618 l 681 694 l 624 694 b 518 643 587 694 555 681 l 201 336 l 201 694 l 111 694 l 111 0 l 201 0 l 201 222 l 342 356 z "},"λ":{"ha":750,"x_min":0,"x_max":0,"o":"m 715 77 b 648 129 686 77 663 94 l 338 884 b 197 972 311 948 270 972 l 115 972 l 115 896 l 186 896 b 261 836 234 894 243 880 l 335 658 l 29 0 l 127 0 l 379 552 l 572 85 b 700 0 593 36 629 0 l 734 0 l 734 77 z "},"μ":{"ha":808,"x_min":0,"x_max":0,"o":"m 729 77 b 673 139 688 77 673 96 l 673 694 l 583 694 l 583 319 b 382 62 586 165 484 60 l 368 62 b 201 264 257 62 201 131 l 201 694 l 111 694 l 111 -278 l 201 -278 l 201 62 b 273 7 216 40 240 22 b 372 -14 305 -7 338 -14 b 583 131 475 -14 547 36 l 583 118 b 701 0 583 43 622 0 l 764 0 l 764 77 z "},"ν":{"ha":699,"x_min":0,"x_max":0,"o":"m 578 694 l 350 82 l 122 694 l 26 694 l 293 0 l 406 0 l 672 694 z "},"ξ":{"ha":625,"x_min":0,"x_max":0,"o":"m 526 -62 b 507 -196 526 -96 518 -149 l 585 -196 b 607 -54 596 -150 607 -92 b 464 77 607 37 559 77 l 414 77 b 227 120 337 77 275 91 b 155 264 179 149 155 197 b 419 482 155 389 255 482 l 518 482 l 518 558 l 422 558 b 221 722 292 558 221 631 b 458 896 221 810 298 896 l 579 896 l 579 972 l 104 972 l 104 896 l 272 896 b 131 717 199 880 131 806 b 310 522 131 621 194 547 b 65 257 178 503 63 406 b 403 0 62 86 218 -1 l 456 0 b 526 -62 503 0 526 -14 z "},"ο":{"ha":775,"x_min":0,"x_max":0,"o":"m 68 347 b 387 -14 64 138 210 -17 b 707 347 565 -17 709 138 b 387 708 709 557 565 711 b 68 347 210 711 64 557 z m 380 62 b 160 347 256 60 158 174 b 380 632 160 522 255 632 l 395 632 b 615 347 520 632 615 522 b 395 62 617 174 519 60 z "},"π":{"ha":803,"x_min":0,"x_max":0,"o":"m 143 0 l 233 0 l 233 618 l 559 618 l 559 125 b 692 0 559 36 600 0 l 726 0 l 726 77 l 705 77 b 650 132 664 77 650 91 l 650 618 l 741 618 l 741 694 l 53 694 l 53 618 l 143 618 z "},"ρ":{"ha":800,"x_min":0,"x_max":0,"o":"m 98 -278 l 189 -278 l 189 111 b 421 -14 230 36 330 -14 b 730 347 600 -16 732 130 b 416 708 733 565 596 710 b 273 671 370 708 321 696 b 149 553 224 647 182 608 b 98 345 115 498 98 429 z m 411 62 b 189 347 267 60 188 195 b 411 632 188 500 267 634 l 418 632 b 640 347 564 634 642 500 b 418 62 642 195 564 60 z "},"ς":{"ha":707,"x_min":0,"x_max":0,"o":"m 553 -62 b 533 -196 553 -97 544 -151 l 611 -196 b 633 -54 626 -134 633 -87 b 476 77 633 38 585 77 l 395 77 b 158 347 242 77 158 193 b 378 632 157 502 232 633 l 392 632 b 568 472 483 632 553 566 l 659 472 b 385 708 645 616 534 708 b 68 347 185 711 66 552 b 396 0 66 149 197 -3 l 468 0 b 553 -62 528 0 553 -13 z "},"σ":{"ha":802,"x_min":0,"x_max":0,"o":"m 68 347 b 387 -14 64 138 210 -17 b 707 334 566 -16 709 124 b 575 618 707 461 648 568 l 760 618 l 760 694 l 387 694 b 68 347 210 696 65 557 z m 380 62 b 158 347 255 60 156 174 b 380 618 158 521 252 618 l 395 618 b 616 340 522 618 616 515 b 395 62 616 165 522 62 z "},"τ":{"ha":600,"x_min":0,"x_max":0,"o":"m 235 125 b 367 0 235 36 275 0 l 519 0 l 519 77 l 380 77 b 325 132 339 77 325 91 l 325 618 l 554 618 l 554 694 l 20 694 l 20 618 l 235 618 l 235 125 z "},"υ":{"ha":766,"x_min":0,"x_max":0,"o":"m 103 278 b 383 -14 103 106 201 -14 b 664 278 566 -14 664 106 l 664 694 l 574 694 l 574 283 b 390 62 574 137 512 62 l 376 62 b 193 283 254 62 193 137 l 193 694 l 103 694 l 103 278 z "},"φ":{"ha":1031,"x_min":0,"x_max":0,"o":"m 561 -12 b 962 350 791 -7 965 120 b 606 708 964 571 816 710 b 471 578 517 708 471 667 l 471 64 b 245 135 378 67 302 91 b 158 346 187 179 158 250 b 204 532 158 419 174 481 b 336 629 235 583 279 616 l 336 708 b 68 346 189 690 66 547 b 471 -12 65 117 241 -8 l 471 -278 l 561 -278 z m 872 350 b 785 136 872 253 843 182 b 561 64 728 91 653 67 l 561 568 b 618 632 561 615 576 632 b 872 350 773 632 872 534 z "},"χ":{"ha":676,"x_min":0,"x_max":0,"o":"m -5 -278 l 93 -278 l 332 135 l 503 -205 b 619 -278 528 -255 563 -278 l 669 -278 l 669 -201 l 637 -201 b 568 -140 606 -201 592 -186 l 385 222 l 660 694 l 561 694 l 339 310 l 180 624 b 71 694 154 675 127 694 l 12 694 l 12 618 l 46 618 b 109 576 78 618 92 609 l 286 222 z "},"ψ":{"ha":1063,"x_min":0,"x_max":0,"o":"m 880 694 l 880 389 b 576 65 880 180 782 71 l 576 889 l 486 889 l 486 65 b 182 389 280 71 182 180 l 182 694 l 92 694 l 92 379 b 486 -11 92 149 218 -4 l 486 -278 l 576 -278 l 576 -11 b 971 379 845 -4 971 149 l 971 694 z "},"ω":{"ha":1029,"x_min":0,"x_max":0,"o":"m 69 340 b 323 -14 67 113 182 -16 b 444 24 368 -14 408 -1 b 515 134 479 50 503 86 b 585 24 527 86 550 50 b 705 -14 621 -1 661 -14 b 960 340 846 -16 961 113 b 704 707 962 526 847 686 l 704 629 b 869 340 816 604 870 468 b 696 62 869 150 802 62 b 559 269 612 62 559 130 l 559 488 l 469 488 l 469 269 b 334 62 469 130 418 62 b 160 340 228 62 160 149 b 325 629 159 468 213 604 l 325 707 b 69 340 182 686 66 526 z "},"ί":{"ha":338,"x_min":0,"x_max":0,"o":"m 109 119 b 231 0 109 43 149 0 l 289 0 l 289 77 l 254 77 b 199 134 213 77 199 91 l 199 694 l 109 694 z m 122 791 l 191 791 l 313 972 l 201 972 z "},"ϊ":{"ha":338,"x_min":0,"x_max":0,"o":"m 109 119 b 231 0 109 43 149 0 l 289 0 l 289 77 l 254 77 b 199 134 213 77 199 91 l 199 694 l 109 694 z m -20 819 l 85 819 l 85 930 l -20 930 z m 224 819 l 328 819 l 328 930 l 224 930 z "},"ΐ":{"ha":338,"x_min":0,"x_max":0,"o":"m 109 119 b 231 0 109 43 149 0 l 289 0 l 289 77 l 254 77 b 199 134 213 77 199 91 l 199 694 l 109 694 z m 119 791 l 187 791 l 275 972 l 164 972 z m -17 791 l 87 791 l 87 903 l -17 903 z m 268 791 l 372 791 l 372 903 l 268 903 z "},"ύ":{"ha":766,"x_min":0,"x_max":0,"o":"m 103 278 b 383 -14 103 106 201 -14 b 664 278 566 -14 664 106 l 664 694 l 574 694 l 574 283 b 390 62 574 137 512 62 l 376 62 b 193 283 254 62 193 137 l 193 694 l 103 694 z m 332 791 l 400 791 l 522 972 l 411 972 z "},"ϋ":{"ha":766,"x_min":0,"x_max":0,"o":"m 103 278 b 383 -14 103 106 201 -14 b 664 278 566 -14 664 106 l 664 694 l 574 694 l 574 283 b 390 62 574 137 512 62 l 376 62 b 193 283 254 62 193 137 l 193 694 l 103 694 z m 210 819 l 314 819 l 314 930 l 210 930 z m 453 819 l 557 819 l 557 930 l 453 930 z "},"ΰ":{"ha":766,"x_min":0,"x_max":0,"o":"m 103 278 b 383 -14 103 106 201 -14 b 664 278 566 -14 664 106 l 664 694 l 574 694 l 574 283 b 390 62 574 137 512 62 l 376 62 b 193 283 254 62 193 137 l 193 694 l 103 694 z m 346 791 l 414 791 l 502 972 l 391 972 z m 210 791 l 314 791 l 314 903 l 210 903 z m 494 791 l 599 791 l 599 903 l 494 903 z "},"ό":{"ha":775,"x_min":0,"x_max":0,"o":"m 68 347 b 387 -14 64 138 210 -17 b 707 347 565 -17 709 138 b 387 708 709 557 565 711 b 68 347 210 711 64 557 z m 380 62 b 160 347 256 60 158 174 b 380 632 160 522 255 632 l 395 632 b 615 347 520 632 615 522 b 395 62 617 174 519 60 z m 353 791 l 421 791 l 543 972 l 432 972 z "},"ώ":{"ha":1029,"x_min":0,"x_max":0,"o":"m 69 340 b 323 -14 67 113 182 -16 b 444 24 368 -14 408 -1 b 515 134 479 50 503 86 b 585 24 527 86 550 50 b 705 -14 621 -1 661 -14 b 960 340 846 -16 961 113 b 704 707 962 526 847 686 l 704 629 b 869 340 816 604 870 468 b 696 62 869 150 802 62 b 559 269 612 62 559 130 l 559 488 l 469 488 l 469 269 b 334 62 469 130 418 62 b 160 340 228 62 160 149 b 325 629 159 468 213 604 l 325 707 b 69 340 182 686 66 526 z m 465 791 l 534 791 l 656 972 l 545 972 z "},"ά":{"ha":836,"x_min":0,"x_max":0,"o":"m 69 347 b 379 -14 67 130 200 -16 b 611 111 470 -14 570 36 b 729 0 616 35 650 0 l 791 0 l 791 77 l 757 77 b 701 139 716 77 701 96 l 701 694 l 611 694 l 611 583 b 379 708 570 659 470 708 b 69 347 200 710 67 565 z m 382 62 b 160 347 237 60 159 195 b 382 632 159 500 237 634 l 389 632 b 611 347 534 634 612 500 b 389 62 612 195 534 60 z m 365 791 l 433 791 l 555 972 l 444 972 z "},"έ":{"ha":718,"x_min":0,"x_max":0,"o":"m 572 208 b 376 62 558 118 486 62 l 363 62 b 158 197 231 62 158 109 b 310 317 158 270 226 317 l 435 317 l 435 393 l 321 393 b 180 504 235 393 180 436 b 359 632 180 571 243 632 l 374 632 b 566 486 490 632 551 579 l 656 486 b 367 708 641 618 540 708 b 90 511 209 709 87 625 b 209 353 90 438 133 377 b 68 186 132 334 68 267 b 367 -14 68 60 169 -14 b 663 208 533 -14 649 76 z m 336 791 l 404 791 l 526 972 l 415 972 z "},"ή":{"ha":808,"x_min":0,"x_max":0,"o":"m 614 -278 l 704 -278 l 704 454 b 461 708 704 617 602 708 b 311 672 405 708 355 696 b 214 578 267 648 235 617 b 100 694 214 657 171 694 l 52 694 l 52 618 l 72 618 b 127 562 115 618 127 605 l 127 0 l 218 0 l 218 347 b 439 632 217 500 294 634 l 447 632 b 614 427 558 632 614 565 z m 385 791 l 453 791 l 575 972 l 464 972 z "},"⓿":{"ha":1222,"x_min":0,"x_max":0,"o":"m 69 486 b 142 216 69 389 94 299 b 340 18 191 132 257 66 b 611 -56 424 -31 514 -56 b 882 18 709 -56 799 -31 b 1080 216 965 66 1031 132 b 1153 486 1128 299 1153 389 b 1080 758 1153 584 1128 674 b 882 955 1031 841 966 907 b 611 1028 799 1004 709 1028 b 340 955 514 1028 424 1004 b 142 757 257 906 191 840 b 69 486 94 674 69 584 z m 836 488 b 611 207 836 317 750 207 b 386 488 472 207 386 317 b 611 770 386 658 472 770 b 836 488 750 770 836 658 z m 471 488 b 608 277 470 380 518 275 l 614 277 b 751 488 704 275 752 380 b 614 700 752 594 704 702 l 608 700 b 471 488 518 702 470 594 z "},"❶":{"ha":1222,"x_min":0,"x_max":0,"o":"m 69 486 b 142 216 69 389 94 299 b 340 18 191 132 257 66 b 611 -56 424 -31 514 -56 b 882 18 709 -56 799 -31 b 1080 216 965 66 1031 132 b 1153 486 1128 299 1153 389 b 1080 758 1153 584 1128 674 b 882 955 1031 841 966 907 b 611 1028 799 1004 709 1028 b 340 955 514 1028 424 1004 b 142 757 257 906 191 840 b 69 486 94 674 69 584 z m 591 215 l 591 660 l 429 529 l 429 611 l 618 764 l 671 764 l 671 215 z "},"❷":{"ha":1222,"x_min":0,"x_max":0,"o":"m 69 486 b 142 216 69 389 94 299 b 340 18 191 132 257 66 b 611 -56 424 -31 514 -56 b 882 18 709 -56 799 -31 b 1080 216 965 66 1031 132 b 1153 486 1128 299 1153 389 b 1080 758 1153 584 1128 674 b 882 955 1031 841 966 907 b 611 1028 799 1004 709 1028 b 340 955 514 1028 424 1004 b 142 757 257 906 191 840 b 69 486 94 674 69 584 z m 419 215 l 419 310 l 595 463 b 661 524 625 490 648 510 b 690 564 674 538 684 551 b 699 611 696 577 699 593 b 608 701 699 665 660 701 l 602 701 b 507 606 557 701 507 666 l 422 606 b 607 771 422 705 509 771 b 783 611 707 771 783 711 b 732 489 783 559 760 519 b 673 433 719 475 699 456 l 503 285 l 789 285 l 789 215 z "},"❸":{"ha":1222,"x_min":0,"x_max":0,"o":"m 69 486 b 142 216 69 389 94 299 b 340 18 191 132 257 66 b 611 -56 424 -31 514 -56 b 882 18 709 -56 799 -31 b 1080 216 965 66 1031 132 b 1153 486 1128 299 1153 389 b 1080 758 1153 584 1128 674 b 882 955 1031 841 966 907 b 611 1028 799 1004 709 1028 b 340 955 514 1028 424 1004 b 142 757 257 906 191 840 b 69 486 94 674 69 584 z m 798 366 b 604 208 800 269 702 208 b 418 367 505 208 418 267 l 503 367 b 600 278 505 313 544 278 l 607 278 b 713 374 667 278 713 315 b 619 460 713 427 673 460 l 558 460 l 558 525 l 623 525 b 708 610 675 525 708 555 b 611 701 708 669 671 701 l 604 701 b 511 618 549 701 514 669 l 427 618 b 611 771 427 716 511 771 b 793 618 710 771 793 715 b 717 492 793 561 763 514 b 798 366 768 471 798 425 z "},"❹":{"ha":1222,"x_min":0,"x_max":0,"o":"m 69 486 b 142 216 69 389 94 299 b 340 18 191 132 257 66 b 611 -56 424 -31 514 -56 b 882 18 709 -56 799 -31 b 1080 216 965 66 1031 132 b 1153 486 1128 299 1153 389 b 1080 758 1153 584 1128 674 b 882 955 1031 841 966 907 b 611 1028 799 1004 709 1028 b 340 955 514 1028 424 1004 b 142 757 257 906 191 840 b 69 486 94 674 69 584 z m 629 215 l 629 349 l 372 349 l 372 427 l 621 764 l 707 764 l 707 418 l 782 418 l 782 349 l 707 349 l 707 215 z m 453 418 l 629 418 l 629 663 z "},"❺":{"ha":1222,"x_min":0,"x_max":0,"o":"m 69 486 b 142 216 69 389 94 299 b 340 18 191 132 257 66 b 611 -56 424 -31 514 -56 b 882 18 709 -56 799 -31 b 1080 216 965 66 1031 132 b 1153 486 1128 299 1153 389 b 1080 758 1153 584 1128 674 b 882 955 1031 841 966 907 b 611 1028 799 1004 709 1028 b 340 955 514 1028 424 1004 b 142 757 257 906 191 840 b 69 486 94 674 69 584 z m 785 392 b 595 208 785 280 701 208 b 401 363 483 208 410 263 l 486 363 b 593 278 492 308 536 278 l 599 278 b 671 309 628 278 652 288 b 700 389 690 330 700 356 b 600 490 700 453 660 490 l 596 490 b 497 443 553 490 519 469 l 424 443 l 486 764 l 777 764 l 777 694 l 547 694 l 511 521 b 614 559 538 547 572 559 b 785 392 718 559 785 490 z "},"❻":{"ha":1222,"x_min":0,"x_max":0,"o":"m 69 486 b 142 216 69 389 94 299 b 340 18 191 132 257 66 b 611 -56 424 -31 514 -56 b 882 18 709 -56 799 -31 b 1080 216 965 66 1031 132 b 1153 486 1128 299 1153 389 b 1080 758 1153 584 1128 674 b 882 955 1031 841 966 907 b 611 1028 799 1004 709 1028 b 340 955 514 1028 424 1004 b 142 757 257 906 191 840 b 69 486 94 674 69 584 z m 793 404 b 595 208 793 292 718 208 b 393 473 469 208 393 307 b 616 771 391 654 493 773 b 802 618 736 771 802 694 l 720 618 b 619 700 709 667 671 700 l 611 700 b 468 505 539 700 477 625 b 526 562 479 528 498 547 b 616 583 553 576 583 583 b 793 404 711 583 793 512 z m 486 396 b 516 311 486 361 496 334 b 595 278 536 289 563 278 l 599 278 b 711 396 663 278 711 328 b 602 514 711 465 665 514 l 597 514 b 486 396 533 514 486 465 z "},"❼":{"ha":1222,"x_min":0,"x_max":0,"o":"m 69 486 b 142 216 69 389 94 299 b 340 18 191 132 257 66 b 611 -56 424 -31 514 -56 b 882 18 709 -56 799 -31 b 1080 216 965 66 1031 132 b 1153 486 1128 299 1153 389 b 1080 758 1153 584 1128 674 b 882 955 1031 841 966 907 b 611 1028 799 1004 709 1028 b 340 955 514 1028 424 1004 b 142 757 257 906 191 840 b 69 486 94 674 69 584 z m 525 215 l 525 265 b 581 526 525 368 544 454 b 726 694 619 598 667 654 l 432 694 l 432 764 l 802 764 l 802 690 b 665 521 747 645 702 589 b 610 265 628 454 610 368 l 610 215 z "},"❽":{"ha":1222,"x_min":0,"x_max":0,"o":"m 69 486 b 142 216 69 389 94 299 b 340 18 191 132 257 66 b 611 -56 424 -31 514 -56 b 882 18 709 -56 799 -31 b 1080 216 965 66 1031 132 b 1153 486 1128 299 1153 389 b 1080 758 1153 584 1128 674 b 882 955 1031 841 966 907 b 611 1028 799 1004 709 1028 b 340 955 514 1028 424 1004 b 142 757 257 906 191 840 b 69 486 94 674 69 584 z m 791 355 b 607 208 791 261 706 208 b 424 355 509 208 424 261 b 517 485 424 415 460 460 b 415 618 456 510 415 558 b 610 771 415 714 496 771 b 806 618 724 771 806 713 b 704 485 806 558 766 510 b 791 355 758 460 791 415 z m 500 611 b 530 547 500 583 510 562 b 604 524 551 531 576 524 l 611 524 b 688 547 641 524 667 531 b 721 611 710 562 721 583 b 614 701 721 668 674 701 l 607 701 b 500 611 547 701 500 668 z m 509 368 b 604 278 509 312 550 278 l 611 278 b 707 368 665 278 707 312 b 679 432 707 395 697 416 b 611 457 661 449 637 457 l 604 457 b 536 432 578 457 555 449 b 509 368 518 416 509 395 z "},"❾":{"ha":1222,"x_min":0,"x_max":0,"o":"m 69 486 b 142 216 69 389 94 299 b 340 18 191 132 257 66 b 611 -56 424 -31 514 -56 b 882 18 709 -56 799 -31 b 1080 216 965 66 1031 132 b 1153 486 1128 299 1153 389 b 1080 758 1153 584 1128 674 b 882 955 1031 841 966 907 b 611 1028 799 1004 709 1028 b 340 955 514 1028 424 1004 b 142 757 257 906 191 840 b 69 486 94 674 69 584 z m 822 505 b 599 208 824 326 722 206 b 414 361 478 208 414 286 l 496 361 b 596 279 506 312 544 279 l 604 279 b 747 473 676 279 738 353 b 690 417 736 450 717 431 b 599 396 663 403 632 396 b 422 575 504 396 422 467 b 621 771 422 687 498 771 b 822 505 746 771 822 672 z m 504 583 b 614 465 504 514 551 465 l 618 465 b 729 583 682 465 729 514 b 699 668 729 618 719 646 b 621 701 679 690 652 701 l 616 701 b 504 583 553 701 504 651 z "},"⓪":{"ha":1222,"x_min":0,"x_max":0,"o":"m 69 486 b 142 214 69 388 94 298 b 340 17 191 132 256 66 b 611 -56 423 -31 513 -56 b 882 17 709 -56 799 -31 b 1080 214 966 66 1031 132 b 1153 486 1128 298 1153 388 b 1080 758 1153 584 1128 674 b 882 955 1031 841 966 907 b 611 1028 799 1004 709 1028 b 340 955 513 1028 423 1004 b 142 758 256 907 191 841 b 69 486 94 674 69 584 z m 1080 486 b 1017 250 1080 401 1059 322 b 846 77 975 177 918 120 b 611 14 774 35 696 14 b 376 77 526 14 448 35 b 205 250 304 120 247 177 b 142 486 163 322 142 401 b 205 722 142 572 163 650 b 376 895 247 795 304 852 b 611 958 448 937 526 958 b 846 895 696 958 774 937 b 1017 722 918 852 975 795 b 1080 486 1059 650 1080 572 z m 386 488 b 611 208 386 319 472 208 b 836 488 749 208 836 319 b 611 770 836 658 749 770 b 386 488 472 770 386 658 z m 608 277 b 471 488 517 275 470 381 b 608 701 471 597 517 701 l 614 701 b 751 488 704 701 751 597 b 614 277 751 381 704 275 z "},"①":{"ha":1222,"x_min":0,"x_max":0,"o":"m 69 486 b 142 214 69 388 94 298 b 340 17 191 132 256 66 b 611 -56 423 -31 513 -56 b 882 17 709 -56 799 -31 b 1080 214 966 66 1031 132 b 1153 486 1128 298 1153 388 b 1080 758 1153 584 1128 674 b 882 955 1031 841 966 907 b 611 1028 799 1004 709 1028 b 340 955 513 1028 423 1004 b 142 758 256 907 191 841 b 69 486 94 674 69 584 z m 1080 486 b 1017 250 1080 401 1059 322 b 846 77 975 177 918 120 b 611 14 774 35 696 14 b 376 77 526 14 448 35 b 205 250 304 120 247 177 b 142 486 163 322 142 401 b 205 722 142 572 163 650 b 376 895 247 795 304 852 b 611 958 448 937 526 958 b 846 895 696 958 774 937 b 1017 722 918 852 975 795 b 1080 486 1059 650 1080 572 z m 592 216 l 671 216 l 671 764 l 618 764 l 429 612 l 429 530 l 592 660 z "},"②":{"ha":1222,"x_min":0,"x_max":0,"o":"m 69 486 b 142 214 69 388 94 298 b 340 17 191 132 256 66 b 611 -56 423 -31 513 -56 b 882 17 709 -56 799 -31 b 1080 214 966 66 1031 132 b 1153 486 1128 298 1153 388 b 1080 758 1153 584 1128 674 b 882 955 1031 841 966 907 b 611 1028 799 1004 709 1028 b 340 955 513 1028 423 1004 b 142 758 256 907 191 841 b 69 486 94 674 69 584 z m 1080 486 b 1017 250 1080 401 1059 322 b 846 77 975 177 918 120 b 611 14 774 35 696 14 b 376 77 526 14 448 35 b 205 250 304 120 247 177 b 142 486 163 322 142 401 b 205 722 142 572 163 650 b 376 895 247 795 304 852 b 611 958 448 937 526 958 b 846 895 696 958 774 937 b 1017 722 918 852 975 795 b 1080 486 1059 650 1080 572 z m 420 216 l 789 216 l 789 285 l 503 285 l 674 433 b 732 488 699 455 718 473 b 768 542 747 504 759 522 b 783 612 779 563 783 586 b 607 771 783 711 709 771 b 422 606 509 771 422 705 l 507 606 b 602 702 507 665 557 702 l 608 702 b 672 676 633 702 655 693 b 699 612 690 659 699 638 b 661 524 699 576 688 552 b 595 463 648 510 625 490 l 420 310 z "},"③":{"ha":1222,"x_min":0,"x_max":0,"o":"m 69 486 b 142 214 69 388 94 298 b 340 17 191 132 256 66 b 611 -56 423 -31 513 -56 b 882 17 709 -56 799 -31 b 1080 214 966 66 1031 132 b 1153 486 1128 298 1153 388 b 1080 758 1153 584 1128 674 b 882 955 1031 841 966 907 b 611 1028 799 1004 709 1028 b 340 955 513 1028 423 1004 b 142 758 256 907 191 841 b 69 486 94 674 69 584 z m 1080 486 b 1017 250 1080 401 1059 322 b 846 77 975 177 918 120 b 611 14 774 35 696 14 b 376 77 526 14 448 35 b 205 250 304 120 247 177 b 142 486 163 322 142 401 b 205 722 142 572 163 650 b 376 895 247 795 304 852 b 611 958 448 937 526 958 b 846 895 696 958 774 937 b 1017 722 918 852 975 795 b 1080 486 1059 650 1080 572 z m 418 367 b 604 209 418 267 505 209 b 798 366 702 208 800 271 b 717 492 798 425 768 472 b 793 618 764 514 793 562 b 611 771 793 716 711 771 b 427 618 511 771 427 717 l 511 618 b 604 702 514 669 549 702 l 611 702 b 709 610 671 702 709 670 b 623 526 709 556 675 526 l 559 526 l 559 460 l 620 460 b 713 374 673 460 713 427 b 607 278 713 315 667 278 l 600 278 b 503 367 544 278 506 313 z "},"④":{"ha":1222,"x_min":0,"x_max":0,"o":"m 69 486 b 142 214 69 388 94 298 b 340 17 191 132 256 66 b 611 -56 423 -31 513 -56 b 882 17 709 -56 799 -31 b 1080 214 966 66 1031 132 b 1153 486 1128 298 1153 388 b 1080 758 1153 584 1128 674 b 882 955 1031 841 966 907 b 611 1028 799 1004 709 1028 b 340 955 513 1028 423 1004 b 142 758 256 907 191 841 b 69 486 94 674 69 584 z m 1080 486 b 1017 250 1080 401 1059 322 b 846 77 975 177 918 120 b 611 14 774 35 696 14 b 376 77 526 14 448 35 b 205 250 304 120 247 177 b 142 486 163 322 142 401 b 205 722 142 572 163 650 b 376 895 247 795 304 852 b 611 958 448 937 526 958 b 846 895 696 958 774 937 b 1017 722 918 852 975 795 b 1080 486 1059 650 1080 572 z m 629 216 l 707 216 l 707 349 l 782 349 l 782 418 l 707 418 l 707 764 l 621 764 l 372 427 l 372 349 l 629 349 z m 453 418 l 629 663 l 629 418 z "},"⑤":{"ha":1222,"x_min":0,"x_max":0,"o":"m 69 486 b 142 214 69 388 94 298 b 340 17 191 132 256 66 b 611 -56 423 -31 513 -56 b 882 17 709 -56 799 -31 b 1080 214 966 66 1031 132 b 1153 486 1128 298 1153 388 b 1080 758 1153 584 1128 674 b 882 955 1031 841 966 907 b 611 1028 799 1004 709 1028 b 340 955 513 1028 423 1004 b 142 758 256 907 191 841 b 69 486 94 674 69 584 z m 1080 486 b 1017 250 1080 401 1059 322 b 846 77 975 177 918 120 b 611 14 774 35 696 14 b 376 77 526 14 448 35 b 205 250 304 120 247 177 b 142 486 163 322 142 401 b 205 722 142 572 163 650 b 376 895 247 795 304 852 b 611 958 448 937 526 958 b 846 895 696 958 774 937 b 1017 722 918 852 975 795 b 1080 486 1059 650 1080 572 z m 401 363 b 595 209 410 263 483 209 b 785 392 702 209 785 280 b 614 560 785 489 718 560 b 511 521 573 560 539 547 l 547 694 l 777 694 l 777 764 l 486 764 l 424 444 l 498 444 b 596 490 517 470 553 490 l 600 490 b 701 389 660 490 701 452 b 599 278 701 325 657 278 l 593 278 b 486 363 537 278 494 307 z "},"⑥":{"ha":1222,"x_min":0,"x_max":0,"o":"m 69 486 b 142 214 69 388 94 298 b 340 17 191 132 256 66 b 611 -56 423 -31 513 -56 b 882 17 709 -56 799 -31 b 1080 214 966 66 1031 132 b 1153 486 1128 298 1153 388 b 1080 758 1153 584 1128 674 b 882 955 1031 841 966 907 b 611 1028 799 1004 709 1028 b 340 955 513 1028 423 1004 b 142 758 256 907 191 841 b 69 486 94 674 69 584 z m 1080 486 b 1017 250 1080 401 1059 322 b 846 77 975 177 918 120 b 611 14 774 35 696 14 b 376 77 526 14 448 35 b 205 250 304 120 247 177 b 142 486 163 322 142 401 b 205 722 142 572 163 650 b 376 895 247 795 304 852 b 611 958 448 937 526 958 b 846 895 696 958 774 937 b 1017 722 918 852 975 795 b 1080 486 1059 650 1080 572 z m 393 474 b 595 209 393 308 470 209 b 793 404 718 209 793 292 b 617 584 795 511 709 585 b 468 506 549 584 490 552 b 611 701 477 626 539 701 l 620 701 b 720 618 672 701 709 668 l 802 618 b 617 771 802 694 736 771 b 393 474 491 771 393 655 z m 595 278 b 486 396 532 278 486 328 b 597 514 486 465 534 514 l 602 514 b 711 396 665 514 711 465 b 599 278 711 329 662 278 z "},"⑦":{"ha":1222,"x_min":0,"x_max":0,"o":"m 69 486 b 142 214 69 388 94 298 b 340 17 191 132 256 66 b 611 -56 423 -31 513 -56 b 882 17 709 -56 799 -31 b 1080 214 966 66 1031 132 b 1153 486 1128 298 1153 388 b 1080 758 1153 584 1128 674 b 882 955 1031 841 966 907 b 611 1028 799 1004 709 1028 b 340 955 513 1028 423 1004 b 142 758 256 907 191 841 b 69 486 94 674 69 584 z m 1080 486 b 1017 250 1080 401 1059 322 b 846 77 975 177 918 120 b 611 14 774 35 696 14 b 376 77 526 14 448 35 b 205 250 304 120 247 177 b 142 486 163 322 142 401 b 205 722 142 572 163 650 b 376 895 247 795 304 852 b 611 958 448 937 526 958 b 846 895 696 958 774 937 b 1017 722 918 852 975 795 b 1080 486 1059 650 1080 572 z m 525 216 l 610 216 l 610 266 b 802 690 610 443 673 584 l 802 764 l 432 764 l 432 694 l 726 694 b 581 526 667 654 619 598 b 525 266 544 455 525 368 z "},"⑧":{"ha":1222,"x_min":0,"x_max":0,"o":"m 69 486 b 142 214 69 388 94 298 b 340 17 191 132 256 66 b 611 -56 423 -31 513 -56 b 882 17 709 -56 799 -31 b 1080 214 966 66 1031 132 b 1153 486 1128 298 1153 388 b 1080 758 1153 584 1128 674 b 882 955 1031 841 966 907 b 611 1028 799 1004 709 1028 b 340 955 513 1028 423 1004 b 142 758 256 907 191 841 b 69 486 94 674 69 584 z m 1080 486 b 1017 250 1080 401 1059 322 b 846 77 975 177 918 120 b 611 14 774 35 696 14 b 376 77 526 14 448 35 b 205 250 304 120 247 177 b 142 486 163 322 142 401 b 205 722 142 572 163 650 b 376 895 247 795 304 852 b 611 958 448 937 526 958 b 846 895 696 958 774 937 b 1017 722 918 852 975 795 b 1080 486 1059 650 1080 572 z m 423 356 b 607 209 423 262 508 209 b 791 356 706 209 791 262 b 704 485 791 416 758 460 b 805 618 764 509 805 558 b 610 771 805 714 723 771 b 415 618 496 771 415 714 b 516 485 415 559 456 510 b 423 356 459 460 423 416 z m 604 524 b 530 547 576 524 551 532 b 500 612 510 563 500 584 b 607 702 500 669 547 702 l 614 702 b 720 612 674 702 720 669 b 688 547 720 584 709 563 b 611 524 667 532 641 524 z m 604 278 b 508 368 550 278 508 312 b 536 432 508 395 517 416 b 604 457 555 449 577 457 l 611 457 b 678 432 637 457 660 449 b 707 368 697 416 707 395 b 611 278 707 312 665 278 z "},"⑨":{"ha":1222,"x_min":0,"x_max":0,"o":"m 69 486 b 142 214 69 388 94 298 b 340 17 191 132 256 66 b 611 -56 423 -31 513 -56 b 882 17 709 -56 799 -31 b 1080 214 966 66 1031 132 b 1153 486 1128 298 1153 388 b 1080 758 1153 584 1128 674 b 882 955 1031 841 966 907 b 611 1028 799 1004 709 1028 b 340 955 513 1028 423 1004 b 142 758 256 907 191 841 b 69 486 94 674 69 584 z m 1080 486 b 1017 250 1080 401 1059 322 b 846 77 975 177 918 120 b 611 14 774 35 696 14 b 376 77 526 14 448 35 b 205 250 304 120 247 177 b 142 486 163 322 142 401 b 205 722 142 572 163 650 b 376 895 247 795 304 852 b 611 958 448 937 526 958 b 846 895 696 958 774 937 b 1017 722 918 852 975 795 b 1080 486 1059 650 1080 572 z m 414 361 b 598 209 414 285 479 209 b 822 506 724 209 822 325 b 621 771 822 672 745 771 b 422 575 497 771 422 687 b 598 396 422 467 505 396 b 747 474 666 396 725 428 b 604 279 737 354 677 279 l 595 279 b 496 361 543 279 506 312 z m 614 466 b 504 584 550 466 504 514 b 616 702 504 651 553 702 l 621 702 b 729 584 684 702 729 652 b 618 466 729 514 682 466 z "},"⁰":{"ha":558,"x_min":0,"x_max":0,"o":"m 54 850 b 279 570 54 681 140 570 b 504 850 418 570 504 681 b 279 1132 504 1020 418 1132 b 54 850 140 1132 54 1020 z m 277 639 b 139 850 186 637 138 743 b 277 1063 139 959 185 1063 l 282 1063 b 419 850 372 1063 419 959 b 282 639 420 743 372 637 z "},"¹":{"ha":358,"x_min":0,"x_max":0,"o":"m 193 576 l 272 576 l 272 1125 l 220 1125 l 31 972 l 31 890 l 193 1021 z "},"²":{"ha":476,"x_min":0,"x_max":0,"o":"m 53 576 l 422 576 l 422 646 l 136 646 l 307 794 b 366 849 332 816 351 834 b 401 903 380 865 392 882 b 416 972 412 924 416 947 b 240 1132 416 1072 342 1132 b 56 966 142 1132 56 1066 l 140 966 b 235 1063 140 1026 191 1063 l 241 1063 b 305 1037 267 1063 288 1054 b 332 972 323 1020 332 999 b 294 885 332 937 321 913 b 228 823 281 871 258 850 l 53 671 z "},"³":{"ha":486,"x_min":0,"x_max":0,"o":"m 49 728 b 235 570 49 628 136 570 b 428 726 332 568 430 631 b 347 852 428 785 399 833 b 424 979 394 875 424 922 b 241 1132 424 1077 341 1132 b 57 979 142 1132 57 1078 l 142 979 b 235 1063 144 1030 180 1063 l 241 1063 b 339 971 301 1063 339 1031 b 253 886 339 917 305 886 l 189 886 l 189 821 l 250 821 b 343 734 304 821 343 788 b 237 639 343 675 298 639 l 231 639 b 134 728 174 639 136 673 l 49 728 z "},"⁴":{"ha":485,"x_min":0,"x_max":0,"o":"m 289 576 l 367 576 l 367 710 l 441 710 l 441 779 l 367 779 l 367 1125 l 281 1125 l 32 787 l 32 710 l 289 710 z m 113 779 l 289 1023 l 289 779 z "},"⁵":{"ha":475,"x_min":0,"x_max":0,"o":"m 39 724 b 232 570 47 624 120 570 b 422 753 339 570 422 641 b 252 921 422 850 355 921 b 149 882 210 921 176 908 l 184 1055 l 414 1055 l 414 1125 l 123 1125 l 61 804 l 135 804 b 233 851 155 831 191 851 l 237 851 b 338 750 297 851 338 813 b 236 639 338 686 294 639 l 231 639 b 123 724 174 639 131 667 l 39 724 z "},"⁶":{"ha":514,"x_min":0,"x_max":0,"o":"m 54 835 b 256 570 54 669 131 570 b 454 765 379 570 454 653 b 278 945 456 872 370 946 b 129 867 210 945 151 913 b 272 1061 138 987 200 1061 l 281 1061 b 380 979 333 1061 370 1029 l 463 979 b 278 1132 463 1055 397 1132 b 54 835 152 1132 54 1016 z m 256 639 b 147 757 193 639 147 689 b 258 875 147 826 195 875 l 262 875 b 372 757 326 875 372 826 b 260 639 372 690 323 639 z "},"⁷":{"ha":418,"x_min":0,"x_max":0,"o":"m 118 576 l 203 576 l 203 627 b 395 1051 203 804 267 945 l 395 1125 l 25 1125 l 25 1055 l 319 1055 b 174 887 260 1015 212 959 b 118 627 137 816 118 729 z "},"⁸":{"ha":500,"x_min":0,"x_max":0,"o":"m 64 717 b 248 570 64 623 149 570 b 432 717 347 570 432 623 b 345 846 432 777 399 821 b 446 979 405 870 446 919 b 250 1132 446 1075 363 1132 b 56 979 137 1132 56 1075 b 157 846 56 920 97 871 b 64 717 100 821 64 777 z m 244 885 b 171 908 216 885 192 892 b 140 972 151 924 140 945 b 248 1063 140 1029 187 1063 l 254 1063 b 361 972 315 1063 361 1029 b 328 908 361 945 350 924 b 252 885 307 892 281 885 z m 244 639 b 149 729 191 639 149 673 b 176 793 149 755 158 777 b 244 818 195 810 218 818 l 252 818 b 319 793 278 818 300 810 b 347 729 338 777 347 755 b 252 639 347 673 305 639 z "},"⁹":{"ha":515,"x_min":0,"x_max":0,"o":"m 53 722 b 237 570 53 646 118 570 b 461 867 363 570 461 686 b 260 1132 461 1033 385 1132 b 61 936 136 1132 61 1048 b 237 757 61 828 144 757 b 386 835 305 757 364 789 b 243 640 376 715 316 640 l 235 640 b 135 722 182 640 145 673 z m 253 827 b 143 945 189 827 143 875 b 256 1063 143 1012 193 1063 l 260 1063 b 368 945 323 1063 368 1013 b 257 827 368 875 321 827 z "},"⁄":{"ha":222,"x_min":0,"x_max":0,"o":"m -228 0 l -138 0 l 446 972 l 355 972 z "},"⅟":{"ha":917,"x_min":0,"x_max":0,"o":"m 240 0 l 330 0 l 913 972 l 823 972 z m 192 424 l 271 424 l 271 972 l 218 972 l 29 820 l 29 738 l 192 868 z "},"½":{"ha":1222,"x_min":0,"x_max":0,"o":"m 227 0 l 317 0 l 900 972 l 810 972 z m 208 424 l 287 424 l 287 972 l 235 972 l 45 820 l 45 738 l 208 868 z m 790 0 l 1160 0 l 1160 69 l 873 69 l 1044 218 b 1103 273 1069 239 1088 258 b 1139 326 1117 288 1129 306 b 1154 396 1149 347 1154 370 b 977 555 1154 496 1079 555 b 793 390 879 555 793 490 l 878 390 b 972 486 878 450 928 486 l 979 486 b 1042 460 1004 486 1025 477 b 1069 396 1060 444 1069 422 b 1031 309 1069 360 1058 336 b 965 247 1018 294 996 274 l 790 94 z "},"⅓":{"ha":1206,"x_min":0,"x_max":0,"o":"m 218 0 l 308 0 l 891 972 l 801 972 z m 763 151 b 949 -7 763 52 850 -7 b 1142 150 1046 -8 1144 55 b 1061 276 1142 209 1113 256 b 1138 403 1108 298 1138 346 b 956 555 1138 500 1055 555 b 771 403 856 555 771 501 l 856 403 b 949 486 859 454 894 486 l 956 486 b 1053 395 1015 486 1053 454 b 967 310 1053 340 1019 310 l 903 310 l 903 244 l 964 244 b 1057 158 1018 244 1057 212 b 951 62 1057 99 1012 62 l 945 62 b 848 151 888 62 850 97 z m 207 424 l 286 424 l 286 972 l 233 972 l 44 820 l 44 738 l 207 868 z "},"⅔":{"ha":1291,"x_min":0,"x_max":0,"o":"m 329 0 l 419 0 l 1002 972 l 912 972 z m 71 424 l 441 424 l 441 493 l 155 493 l 326 642 b 384 696 351 663 370 682 b 420 750 398 712 410 730 b 435 820 430 771 435 794 b 258 979 435 920 360 979 b 74 814 160 979 74 913 l 159 814 b 253 910 159 873 209 910 l 260 910 b 323 884 285 910 307 901 b 350 820 341 867 350 846 b 312 732 350 784 339 760 b 246 671 299 718 277 698 l 71 518 z m 850 151 b 1036 -7 850 52 937 -7 b 1230 150 1134 -8 1232 55 b 1149 276 1230 209 1200 256 b 1225 403 1196 298 1225 346 b 1043 555 1225 500 1143 555 b 859 403 943 555 859 501 l 943 403 b 1036 486 946 454 981 486 l 1043 486 b 1141 395 1103 486 1141 454 b 1055 310 1141 340 1107 310 l 991 310 l 991 244 l 1052 244 b 1145 158 1105 244 1145 212 b 1039 62 1145 99 1099 62 l 1032 62 b 935 151 976 62 938 97 z "},"¼":{"ha":1192,"x_min":0,"x_max":0,"o":"m 256 0 l 346 0 l 929 972 l 839 972 z m 207 424 l 286 424 l 286 972 l 233 972 l 44 820 l 44 738 l 207 868 z m 990 0 l 1068 0 l 1068 134 l 1143 134 l 1143 203 l 1068 203 l 1068 549 l 982 549 l 733 211 l 733 134 l 990 134 z m 814 203 l 990 447 l 990 203 z "},"¾":{"ha":1251,"x_min":0,"x_max":0,"o":"m 333 0 l 423 0 l 1006 972 l 916 972 z m 60 575 b 245 417 60 475 146 417 b 439 574 343 416 441 479 b 358 700 439 633 410 680 b 435 827 405 722 435 770 b 252 979 435 924 352 979 b 68 827 153 979 68 925 l 153 827 b 245 910 155 878 191 910 l 252 910 b 350 819 312 910 350 878 b 264 734 350 764 316 734 l 200 734 l 200 668 l 261 668 b 354 582 315 668 354 635 b 248 486 354 523 309 486 l 241 486 b 144 575 185 486 147 521 z m 1051 0 l 1129 0 l 1129 134 l 1204 134 l 1204 203 l 1129 203 l 1129 549 l 1043 549 l 794 211 l 794 134 l 1051 134 z m 875 203 l 1051 447 l 1051 203 z "},"⅕":{"ha":1196,"x_min":0,"x_max":0,"o":"m 214 0 l 304 0 l 887 972 l 797 972 z m 207 424 l 286 424 l 286 972 l 233 972 l 44 820 l 44 738 l 207 868 z m 740 147 b 933 -7 749 47 821 -7 b 1124 176 1040 -7 1124 64 b 953 345 1124 273 1056 345 b 850 305 911 345 878 332 l 886 479 l 1115 479 l 1115 549 l 825 549 l 762 228 l 836 228 b 935 275 856 254 892 275 l 939 275 b 1039 174 998 275 1039 237 b 937 62 1039 109 996 62 l 932 62 b 825 147 876 62 832 91 z "},"⅖":{"ha":1292,"x_min":0,"x_max":0,"o":"m 325 0 l 415 0 l 998 972 l 908 972 z m 71 424 l 441 424 l 441 493 l 155 493 l 326 642 b 384 696 351 663 370 682 b 420 750 398 712 410 730 b 435 820 430 771 435 794 b 258 979 435 920 360 979 b 74 814 160 979 74 913 l 159 814 b 253 910 159 873 209 910 l 260 910 b 323 884 285 910 307 901 b 350 820 341 867 350 846 b 312 732 350 784 339 760 b 246 671 299 718 277 698 l 71 518 z m 839 147 b 1032 -7 848 47 920 -7 b 1223 176 1139 -7 1223 64 b 1052 345 1223 273 1155 345 b 949 305 1010 345 977 332 l 985 479 l 1214 479 l 1214 549 l 924 549 l 861 228 l 935 228 b 1034 275 955 254 991 275 l 1038 275 b 1138 174 1097 275 1138 237 b 1036 62 1138 109 1095 62 l 1031 62 b 924 147 975 62 931 91 z "},"⅗":{"ha":1295,"x_min":0,"x_max":0,"o":"m 314 0 l 404 0 l 987 972 l 897 972 z m 58 575 b 244 417 58 475 145 417 b 437 574 342 416 439 479 b 357 700 437 633 408 680 b 433 827 404 722 433 770 b 251 979 433 924 351 979 b 66 827 151 979 66 925 l 151 827 b 244 910 154 878 189 910 l 251 910 b 349 819 311 910 349 878 b 262 734 349 764 315 734 l 199 734 l 199 668 l 260 668 b 353 582 313 668 353 635 b 247 486 353 523 307 486 l 240 486 b 143 575 184 486 146 521 z m 842 147 b 1035 -7 850 47 923 -7 b 1225 176 1142 -7 1225 64 b 1055 345 1225 273 1158 345 b 951 305 1013 345 979 332 l 987 479 l 1217 479 l 1217 549 l 926 549 l 864 228 l 938 228 b 1036 275 958 254 994 275 l 1040 275 b 1141 174 1100 275 1141 237 b 1039 62 1141 109 1097 62 l 1034 62 b 926 147 977 62 934 91 z "},"⅘":{"ha":1301,"x_min":0,"x_max":0,"o":"m 326 0 l 416 0 l 1000 972 l 909 972 z m 301 424 l 379 424 l 379 557 l 454 557 l 454 627 l 379 627 l 379 972 l 293 972 l 44 635 l 44 557 l 301 557 z m 125 627 l 301 871 l 301 627 z m 844 147 b 1038 -7 853 47 926 -7 b 1228 176 1145 -7 1228 64 b 1057 345 1228 273 1160 345 b 954 305 1016 345 982 332 l 990 479 l 1219 479 l 1219 549 l 929 549 l 867 228 l 941 228 b 1039 275 960 254 996 275 l 1043 275 b 1143 174 1103 275 1143 237 b 1042 62 1143 109 1100 62 l 1036 62 b 929 147 980 62 937 91 z "},"⅙":{"ha":1187,"x_min":0,"x_max":0,"o":"m 212 0 l 302 0 l 886 972 l 795 972 z m 207 424 l 286 424 l 286 972 l 233 972 l 44 820 l 44 738 l 207 868 z m 720 258 b 921 -7 720 92 796 -7 b 1120 189 1044 -7 1120 77 b 943 368 1122 296 1036 370 b 794 290 876 368 817 336 b 937 485 804 410 865 485 l 946 485 b 1046 403 998 485 1036 452 l 1128 403 b 943 555 1128 478 1063 555 b 720 258 817 555 720 439 z m 921 62 b 812 180 858 62 812 113 b 924 298 812 250 860 298 l 928 298 b 1038 180 991 298 1038 250 b 925 62 1038 113 988 62 z "},"⅚":{"ha":1311,"x_min":0,"x_max":0,"o":"m 310 0 l 400 0 l 983 972 l 893 972 z m 47 571 b 240 417 56 471 128 417 b 431 600 347 417 431 488 b 260 768 431 697 363 768 b 157 729 218 768 184 755 l 193 903 l 422 903 l 422 972 l 132 972 l 69 652 l 143 652 b 241 699 163 678 199 699 l 245 699 b 346 597 305 699 346 661 b 244 486 346 533 302 486 l 239 486 b 132 571 182 486 139 515 z m 846 258 b 1047 -7 846 92 922 -7 b 1246 189 1171 -7 1246 77 b 1069 368 1248 296 1162 370 b 920 290 1002 368 943 336 b 1063 485 930 410 991 485 l 1072 485 b 1172 403 1124 485 1162 452 l 1254 403 b 1069 555 1254 478 1189 555 b 846 258 943 555 846 439 z m 1047 62 b 939 180 984 62 939 113 b 1050 298 939 250 986 298 l 1054 298 b 1164 180 1118 298 1164 250 b 1051 62 1164 113 1114 62 z "},"⅛":{"ha":1231,"x_min":0,"x_max":0,"o":"m 215 0 l 305 0 l 888 972 l 798 972 z m 789 140 b 972 -7 789 46 873 -7 b 1157 140 1072 -7 1157 46 b 1069 269 1157 200 1124 244 b 1171 403 1130 294 1171 342 b 975 555 1171 498 1088 555 b 781 403 862 555 781 498 b 882 269 781 343 822 294 b 789 140 825 244 789 200 z m 969 309 b 896 332 941 309 917 316 b 865 396 876 347 865 368 b 972 486 865 453 912 486 l 979 486 b 1086 396 1040 486 1086 453 b 1053 332 1086 368 1075 347 b 977 309 1032 316 1006 309 z m 969 62 b 873 153 916 62 873 96 b 901 216 873 179 883 200 b 969 241 920 233 943 241 l 977 241 b 1044 216 1003 241 1025 233 b 1072 153 1063 200 1072 179 b 977 62 1072 96 1030 62 z m 207 424 l 286 424 l 286 972 l 233 972 l 44 820 l 44 738 l 207 868 z "},"⅜":{"ha":1314,"x_min":0,"x_max":0,"o":"m 317 0 l 407 0 l 990 972 l 900 972 z m 876 140 b 1060 -7 876 46 961 -7 b 1244 140 1159 -7 1244 46 b 1157 269 1244 200 1211 244 b 1258 403 1217 294 1258 342 b 1063 555 1258 498 1176 555 b 868 403 949 555 868 498 b 969 269 868 343 909 294 b 876 140 912 244 876 200 z m 1057 309 b 983 332 1029 309 1004 316 b 953 396 963 347 953 368 b 1060 486 953 453 1000 486 l 1067 486 b 1173 396 1127 486 1173 453 b 1141 332 1173 368 1162 347 b 1064 309 1120 316 1094 309 z m 1057 62 b 961 153 1003 62 961 96 b 989 216 961 179 970 200 b 1057 241 1008 233 1030 241 l 1064 241 b 1131 216 1090 241 1113 233 b 1160 153 1150 200 1160 179 b 1064 62 1160 96 1118 62 z m 58 575 b 244 417 58 475 145 417 b 437 574 342 416 439 479 b 357 700 437 633 408 680 b 433 827 404 722 433 770 b 251 979 433 924 351 979 b 66 827 151 979 66 925 l 151 827 b 244 910 154 878 189 910 l 251 910 b 349 819 311 910 349 878 b 262 734 349 764 315 734 l 199 734 l 199 668 l 260 668 b 353 582 313 668 353 635 b 247 486 353 523 307 486 l 240 486 b 143 575 184 486 146 521 z "},"⅝":{"ha":1311,"x_min":0,"x_max":0,"o":"m 311 0 l 401 0 l 985 972 l 895 972 z m 872 140 b 1056 -7 872 46 957 -7 b 1240 140 1155 -7 1240 46 b 1153 269 1240 200 1207 244 b 1254 403 1213 294 1254 342 b 1059 555 1254 498 1172 555 b 864 403 945 555 864 498 b 965 269 864 343 905 294 b 872 140 908 244 872 200 z m 1053 309 b 979 332 1025 309 1000 316 b 949 396 959 347 949 368 b 1056 486 949 453 996 486 l 1063 486 b 1169 396 1123 486 1169 453 b 1137 332 1169 368 1158 347 b 1060 309 1116 316 1090 309 z m 1053 62 b 957 153 999 62 957 96 b 985 216 957 179 966 200 b 1053 241 1004 233 1026 241 l 1060 241 b 1127 216 1086 241 1109 233 b 1156 153 1146 200 1156 179 b 1060 62 1156 96 1114 62 z m 47 571 b 240 417 56 471 128 417 b 431 600 347 417 431 488 b 260 768 431 697 363 768 b 157 729 218 768 184 755 l 193 903 l 422 903 l 422 972 l 132 972 l 69 652 l 143 652 b 241 699 163 678 199 699 l 245 699 b 346 597 305 699 346 661 b 244 486 346 533 302 486 l 239 486 b 132 571 182 486 139 515 z "},"⅞":{"ha":1186,"x_min":0,"x_max":0,"o":"m 180 0 l 271 0 l 854 972 l 764 972 z m 745 140 b 928 -7 745 46 829 -7 b 1113 140 1027 -7 1113 46 b 1025 269 1113 200 1080 244 b 1126 403 1086 294 1126 342 b 931 555 1126 498 1044 555 b 736 403 818 555 736 498 b 838 269 736 343 778 294 b 745 140 781 244 745 200 z m 925 309 b 852 332 897 309 873 316 b 821 396 831 347 821 368 b 928 486 821 453 868 486 l 935 486 b 1042 396 996 486 1042 453 b 1009 332 1042 368 1031 347 b 932 309 988 316 962 309 z m 925 62 b 829 153 871 62 829 96 b 857 216 829 179 839 200 b 925 241 876 233 899 241 l 932 241 b 1000 216 959 241 981 233 b 1028 153 1019 200 1028 179 b 932 62 1028 96 986 62 z m 138 424 l 222 424 l 222 474 b 414 899 222 651 286 792 l 414 972 l 45 972 l 45 903 l 339 903 b 194 734 280 863 232 806 b 138 474 157 663 138 576 z "},"Ⅰ":{"ha":632,"x_min":0,"x_max":0,"o":"m 62 0 l 570 0 l 570 77 l 361 77 l 361 896 l 570 896 l 570 972 l 62 972 l 62 896 l 271 896 l 271 77 l 62 77 z "},"Ⅱ":{"ha":1028,"x_min":0,"x_max":0,"o":"m 62 0 l 965 0 l 965 77 l 757 77 l 757 896 l 965 896 l 965 972 l 62 972 l 62 896 l 271 896 l 271 77 l 62 77 z m 361 77 l 361 896 l 667 896 l 667 77 z "},"Ⅲ":{"ha":1423,"x_min":0,"x_max":0,"o":"m 62 0 l 1361 0 l 1361 77 l 1153 77 l 1153 896 l 1361 896 l 1361 972 l 62 972 l 62 896 l 271 896 l 271 77 l 62 77 z m 361 77 l 361 896 l 667 896 l 667 77 z m 757 77 l 757 896 l 1063 896 l 1063 77 z "},"Ⅳ":{"ha":1458,"x_min":0,"x_max":0,"o":"m 68 0 l 1232 0 l 1232 77 l 983 77 l 1282 896 l 1414 896 l 1414 972 l 1025 972 l 1025 896 l 1192 896 l 918 147 l 657 896 l 823 896 l 823 972 l 68 972 l 68 896 l 277 896 l 277 77 l 68 77 z m 367 77 l 367 896 l 567 896 l 851 77 z "},"Ⅴ":{"ha":1072,"x_min":0,"x_max":0,"o":"m 1028 896 l 1028 972 l 639 972 l 639 896 l 805 896 l 532 146 l 271 896 l 437 896 l 437 972 l 49 972 l 49 896 l 181 896 l 465 77 l 216 77 l 216 0 l 846 0 l 846 77 l 598 77 l 895 896 z "},"Ⅵ":{"ha":1442,"x_min":0,"x_max":0,"o":"m 212 0 l 1377 0 l 1377 77 l 1168 77 l 1168 896 l 1377 896 l 1377 972 l 635 972 l 635 896 l 802 896 l 528 147 l 267 896 l 433 896 l 433 972 l 45 972 l 45 896 l 176 896 l 461 77 l 212 77 z m 593 77 l 892 896 l 1078 896 l 1078 77 z "},"Ⅶ":{"ha":1839,"x_min":0,"x_max":0,"o":"m 212 0 l 1773 0 l 1773 77 l 1565 77 l 1565 896 l 1773 896 l 1773 972 l 635 972 l 635 896 l 802 896 l 528 147 l 267 896 l 433 896 l 433 972 l 45 972 l 45 896 l 176 896 l 461 77 l 212 77 z m 593 77 l 892 896 l 1079 896 l 1079 77 z m 1169 77 l 1169 896 l 1475 896 l 1475 77 z "},"Ⅷ":{"ha":2235,"x_min":0,"x_max":0,"o":"m 212 0 l 2169 0 l 2169 77 l 1961 77 l 1961 896 l 2169 896 l 2169 972 l 635 972 l 635 896 l 802 896 l 528 147 l 267 896 l 433 896 l 433 972 l 45 972 l 45 896 l 176 896 l 461 77 l 212 77 z m 593 77 l 892 896 l 1079 896 l 1079 77 z m 1169 77 l 1169 896 l 1475 896 l 1475 77 z m 1565 77 l 1565 896 l 1871 896 l 1871 77 z "},"Ⅸ":{"ha":1383,"x_min":0,"x_max":0,"o":"m 1198 77 l 914 492 l 1190 896 l 1312 896 l 1312 972 l 62 972 l 62 896 l 271 896 l 271 77 l 62 77 l 62 0 l 1326 0 l 1326 77 z m 524 77 l 361 77 l 361 896 l 532 896 l 808 492 z m 1084 896 l 861 570 l 637 896 z m 629 77 l 861 415 l 1093 77 z "},"Ⅹ":{"ha":1044,"x_min":0,"x_max":0,"o":"m 57 0 l 987 0 l 987 77 l 860 77 l 575 492 l 851 896 l 974 896 l 974 972 l 71 972 l 71 896 l 193 896 l 469 492 l 184 77 l 57 77 z m 522 570 l 298 896 l 746 896 z m 290 77 l 522 415 l 754 77 z "},"Ⅼ":{"ha":942,"x_min":0,"x_max":0,"o":"m 62 0 l 882 0 l 882 347 l 791 347 l 791 77 l 347 77 l 347 896 l 542 896 l 542 972 l 62 972 l 62 896 l 257 896 l 257 77 l 62 77 z "},"Ⅽ":{"ha":1003,"x_min":0,"x_max":0,"o":"m 77 486 b 521 -14 74 202 251 -18 b 812 121 649 -14 753 34 l 812 0 l 903 0 l 903 298 l 812 298 b 528 62 785 150 668 62 l 514 62 b 167 486 300 58 165 261 b 514 909 165 711 300 913 l 528 909 b 812 673 665 911 785 816 l 903 673 l 903 972 l 812 972 l 812 844 b 521 986 755 935 652 986 b 77 486 251 990 74 770 z "},"Ⅾ":{"ha":1064,"x_min":0,"x_max":0,"o":"m 62 0 l 547 0 b 986 488 808 -3 988 182 b 543 972 989 783 808 975 l 62 972 l 62 896 l 257 896 l 257 77 l 62 77 z m 347 77 l 347 896 l 526 896 b 896 485 762 896 896 747 b 513 77 896 214 753 77 z "},"Ⅿ":{"ha":1455,"x_min":0,"x_max":0,"o":"m 62 0 l 458 0 l 458 77 l 347 77 l 347 889 l 675 0 l 781 0 l 1108 889 l 1108 77 l 997 77 l 997 0 l 1393 0 l 1393 77 l 1198 77 l 1198 896 l 1393 896 l 1393 972 l 1048 972 l 729 107 l 410 974 l 62 972 l 62 896 l 257 896 l 257 77 l 62 77 z "},".":{"ha":334,"x_min":0,"x_max":0,"o":"m 97 0 l 236 0 l 236 139 l 97 139 z "},",":{"ha":334,"x_min":0,"x_max":0,"o":"m 49 -160 l 104 -160 b 236 -28 189 -160 236 -112 l 236 139 l 97 139 l 97 0 l 174 0 l 174 -21 b 90 -104 174 -77 146 -104 l 49 -104 z "},":":{"ha":330,"x_min":0,"x_max":0,"o":"m 96 0 l 235 0 l 235 139 l 96 139 z m 96 555 l 235 555 l 235 694 l 96 694 z "},";":{"ha":376,"x_min":0,"x_max":0,"o":"m 78 -160 l 134 -160 b 265 -28 218 -160 265 -112 l 265 139 l 126 139 l 126 0 l 203 0 l 203 -21 b 119 -104 203 -77 175 -104 l 78 -104 z m 126 555 l 265 555 l 265 694 l 126 694 z "},"…":{"ha":1042,"x_min":0,"x_max":0,"o":"m 97 0 l 236 0 l 236 139 l 97 139 z m 451 0 l 590 0 l 590 139 l 451 139 z m 805 0 l 944 0 l 944 139 l 805 139 z "},"!":{"ha":336,"x_min":0,"x_max":0,"o":"m 147 285 l 189 285 l 216 681 l 216 972 l 119 972 l 119 681 z m 115 0 l 220 0 l 220 118 l 115 118 z "},"¡":{"ha":309,"x_min":0,"x_max":0,"o":"m 207 694 l 102 694 l 102 576 l 207 576 z m 175 410 l 133 410 l 106 14 l 106 -278 l 203 -278 l 203 14 z "},"?":{"ha":629,"x_min":0,"x_max":0,"o":"m 191 285 l 281 285 l 281 435 b 328 482 281 471 292 482 b 576 732 480 482 576 583 b 335 972 578 868 471 975 l 50 972 l 50 882 l 315 882 b 482 730 423 882 482 816 b 329 572 482 644 431 572 l 301 572 b 191 461 218 572 191 545 z m 183 0 l 288 0 l 288 118 l 183 118 z "},"¿":{"ha":615,"x_min":0,"x_max":0,"o":"m 439 694 l 335 694 l 335 576 l 439 576 z m 432 410 l 342 410 l 342 260 b 295 212 342 224 331 212 b 46 -37 142 212 46 111 b 288 -278 44 -174 152 -280 l 572 -278 l 572 -187 l 307 -187 b 140 -36 199 -187 140 -121 b 294 122 140 51 192 122 l 321 122 b 432 233 405 122 432 150 z "},"·":{"ha":317,"x_min":0,"x_max":0,"o":"m 96 403 l 220 403 l 220 528 l 96 528 z "},"•":{"ha":677,"x_min":0,"x_max":0,"o":"m 103 486 b 339 250 100 361 214 248 b 575 486 463 248 578 361 b 339 722 578 610 463 726 b 103 486 214 726 100 610 z "},"*":{"ha":596,"x_min":0,"x_max":0,"o":"m 214 597 l 297 742 l 380 597 l 441 632 l 358 777 l 525 777 l 525 846 l 358 846 l 441 990 l 382 1025 l 298 880 l 215 1025 l 154 990 l 237 846 l 71 846 l 71 777 l 237 777 l 154 632 z "},"#":{"ha":932,"x_min":0,"x_max":0,"o":"m 876 632 l 876 708 l 726 708 l 781 972 l 690 972 l 635 708 l 391 708 l 447 972 l 357 972 l 300 708 l 115 708 l 115 632 l 284 632 l 221 340 l 56 340 l 56 264 l 205 264 l 149 0 l 239 0 l 295 264 l 544 264 l 489 0 l 579 0 l 634 264 l 818 264 l 818 340 l 650 340 l 710 632 z m 559 340 l 311 340 l 374 632 l 620 632 z "},"/":{"ha":568,"x_min":0,"x_max":0,"o":"m 47 0 l 144 0 l 519 972 l 422 972 z "},"\\":{"ha":568,"x_min":0,"x_max":0,"o":"m 424 0 l 521 0 l 146 972 l 49 972 z "},"(":{"ha":472,"x_min":0,"x_max":0,"o":"m 72 486 b 118 138 72 357 87 241 b 248 -106 149 35 193 -47 b 440 -201 304 -167 368 -198 l 440 -125 b 295 -39 385 -121 337 -92 b 197 178 253 15 220 87 b 163 486 174 270 163 372 b 197 793 163 600 174 703 b 295 1010 220 885 253 957 b 440 1097 337 1064 385 1093 l 440 1174 b 248 1079 368 1171 304 1139 b 118 834 193 1019 149 938 b 72 486 87 731 72 615 z "},")":{"ha":472,"x_min":0,"x_max":0,"o":"m 400 486 b 353 834 400 615 385 731 b 223 1079 323 938 279 1019 b 32 1174 168 1139 104 1171 l 32 1097 b 177 1011 87 1093 135 1065 b 275 794 219 958 252 886 b 309 486 298 703 309 600 b 275 178 309 372 298 270 b 177 -38 252 87 219 16 b 32 -125 135 -92 87 -121 l 32 -201 b 223 -106 104 -198 168 -167 b 353 138 279 -47 323 35 b 400 486 385 241 400 357 z "},"{":{"ha":453,"x_min":0,"x_max":0,"o":"m 164 14 b 323 -201 164 -135 210 -201 l 414 -201 l 414 -125 l 338 -125 b 254 -14 269 -125 254 -98 l 254 354 b 143 472 254 433 217 472 l 143 500 b 254 618 217 500 254 539 l 254 986 b 338 1097 254 1071 269 1097 l 414 1097 l 414 1174 l 323 1174 b 164 958 210 1174 164 1107 l 164 673 b 94 576 164 597 150 576 l 60 576 l 60 396 l 94 396 b 164 298 150 396 164 374 l 164 14 z "},"}":{"ha":453,"x_min":0,"x_max":0,"o":"m 289 960 b 130 1175 289 1109 243 1175 l 39 1175 l 39 1099 l 115 1099 b 199 987 184 1099 199 1072 l 199 620 b 310 502 199 541 236 502 l 310 474 b 199 356 236 474 199 435 l 199 -12 b 115 -123 199 -97 184 -123 l 39 -123 l 39 -200 l 130 -200 b 289 16 243 -200 289 -133 l 289 300 b 359 397 289 376 303 397 l 393 397 l 393 578 l 359 578 b 289 675 303 578 289 600 l 289 960 z "},"[":{"ha":441,"x_min":0,"x_max":0,"o":"m 127 -201 l 406 -201 l 406 -125 l 218 -125 l 218 1097 l 406 1097 l 406 1174 l 127 1174 z "},"]":{"ha":441,"x_min":0,"x_max":0,"o":"m 314 1174 l 36 1174 l 36 1097 l 223 1097 l 223 -125 l 36 -125 l 36 -201 l 314 -201 z "},"":{"ha":496,"x_min":0,"x_max":0,"o":"m 147 -28 b 328 -201 144 -128 232 -203 l 453 -201 l 453 -125 l 338 -125 b 237 -33 277 -125 237 -87 l 237 -22 b 338 69 237 32 277 69 l 363 69 l 363 146 l 296 146 b 175 268 215 146 175 186 l 175 704 b 296 827 175 786 215 827 l 363 827 l 363 903 l 338 903 b 237 994 277 903 237 940 l 237 1006 b 338 1097 237 1060 277 1097 l 453 1097 l 453 1174 l 328 1174 b 147 1000 231 1174 147 1101 b 197 882 147 957 161 922 b 85 724 113 865 85 805 l 85 249 b 197 90 85 167 113 109 b 147 -28 161 52 147 16 z "},"":{"ha":496,"x_min":0,"x_max":0,"o":"m 349 1000 b 168 1174 351 1101 264 1175 l 43 1174 l 43 1097 l 158 1097 b 258 1006 218 1097 258 1060 l 258 995 b 158 903 258 941 218 903 l 133 903 l 133 827 l 200 827 b 321 705 281 827 321 786 l 321 269 b 200 146 321 186 281 146 l 133 146 l 133 70 l 158 70 b 258 -22 218 70 258 33 l 258 -33 b 158 -125 258 -87 218 -125 l 43 -125 l 43 -201 l 168 -201 b 349 -28 265 -201 349 -128 b 298 91 349 16 334 51 b 411 249 382 108 411 168 l 411 724 b 298 882 411 806 382 864 b 349 1000 334 921 349 957 z "},"〈":{"ha":507,"x_min":0,"x_max":0,"o":"m 358 -118 l 457 -118 l 140 488 l 457 1090 l 358 1090 l 41 486 z "},"〉":{"ha":507,"x_min":0,"x_max":0,"o":"m 149 1090 l 50 1090 l 367 485 l 50 -118 l 149 -118 l 466 486 z "},"【":{"ha":496,"x_min":0,"x_max":0,"o":"m 127 -201 l 485 -201 b 284 123 395 -104 328 4 b 218 488 240 243 218 364 b 284 852 218 612 240 734 b 485 1174 328 971 395 1078 l 127 1174 z "},"】":{"ha":494,"x_min":0,"x_max":0,"o":"m 367 1175 l 9 1175 b 210 850 100 1078 166 970 b 276 486 254 731 276 610 b 210 121 276 362 254 240 b 9 -200 165 3 99 -104 l 367 -200 z "},"「":{"ha":406,"x_min":0,"x_max":0,"o":"m 102 539 l 189 539 l 189 1097 l 379 1097 l 379 1174 l 102 1174 z "},"」":{"ha":403,"x_min":0,"x_max":0,"o":"m 302 433 l 215 433 l 215 -125 l 25 -125 l 25 -201 l 302 -201 z "},"《":{"ha":762,"x_min":0,"x_max":0,"o":"m 358 -118 l 457 -118 l 140 488 l 457 1090 l 358 1090 l 41 486 z m 614 -118 l 713 -118 l 396 488 l 713 1090 l 614 1090 l 297 486 z "},"》":{"ha":762,"x_min":0,"x_max":0,"o":"m 149 1090 l 50 1090 l 366 485 l 50 -118 l 149 -118 l 465 486 z m 404 1090 l 305 1090 l 622 485 l 305 -118 l 404 -118 l 721 486 z "},"〔":{"ha":418,"x_min":0,"x_max":0,"o":"m 294 -201 l 408 -201 l 184 53 l 184 921 l 407 1174 l 294 1174 l 94 949 l 94 24 z "},"〕":{"ha":418,"x_min":0,"x_max":0,"o":"m 123 1175 l 9 1175 l 233 921 l 233 53 l 11 -200 l 123 -200 l 323 25 l 323 950 z "},"『":{"ha":607,"x_min":0,"x_max":0,"o":"m 104 463 l 367 463 l 367 945 l 557 945 l 557 1174 l 104 1174 z m 192 539 l 192 1097 l 469 1097 l 469 1021 l 279 1021 l 279 539 z "},"』":{"ha":610,"x_min":0,"x_max":0,"o":"m 503 510 l 240 510 l 240 28 l 50 28 l 50 -201 l 503 -201 z m 415 433 l 415 -125 l 138 -125 l 138 -48 l 328 -48 l 328 433 z "},"-":{"ha":539,"x_min":0,"x_max":0,"o":"m 96 382 l 443 382 l 443 458 l 96 458 z "},"­":{"ha":539,"x_min":0,"x_max":0,"o":"m 96 382 l 443 382 l 443 458 l 96 458 z "},"–":{"ha":789,"x_min":0,"x_max":0,"o":"m 96 382 l 693 382 l 693 458 l 96 458 z "},"—":{"ha":1234,"x_min":0,"x_max":0,"o":"m 96 382 l 1137 382 l 1137 458 l 96 458 z "},"―":{"ha":1234,"x_min":0,"x_max":0,"o":"m 96 382 l 1137 382 l 1137 458 l 96 458 z "},"_":{"ha":681,"x_min":0,"x_max":0,"o":"m 41 -77 l 639 -77 l 639 0 l 41 0 z "},"‚":{"ha":334,"x_min":0,"x_max":0,"o":"m 49 -160 l 104 -160 b 236 -28 189 -160 236 -112 l 236 139 l 97 139 l 97 0 l 174 0 l 174 -21 b 90 -104 174 -77 146 -104 l 49 -104 z "},"„":{"ha":618,"x_min":0,"x_max":0,"o":"m 49 -160 l 104 -160 b 236 -28 189 -160 236 -112 l 236 139 l 97 139 l 97 0 l 174 0 l 174 -21 b 90 -104 174 -77 146 -104 l 49 -104 z m 334 -160 l 389 -160 b 521 -28 473 -160 521 -112 l 521 139 l 382 139 l 382 0 l 458 0 l 458 -21 b 375 -104 458 -77 431 -104 l 334 -104 z "},"“":{"ha":629,"x_min":0,"x_max":0,"o":"m 277 972 l 222 972 b 90 840 138 972 90 924 l 90 673 l 229 673 l 229 812 l 153 812 l 153 833 b 236 917 153 889 180 917 l 277 917 z m 562 972 l 507 972 b 375 840 422 972 375 924 l 375 673 l 514 673 l 514 812 l 437 812 l 437 833 b 521 917 437 889 465 917 l 562 917 z "},"”":{"ha":631,"x_min":0,"x_max":0,"o":"m 78 673 l 134 673 b 265 806 218 673 265 722 l 265 972 l 126 972 l 126 833 l 203 833 l 203 812 b 119 729 203 757 175 729 l 78 729 z m 363 673 l 418 673 b 550 806 502 673 550 722 l 550 972 l 411 972 l 411 833 l 488 833 l 488 812 b 404 729 488 757 460 729 l 363 729 z "},"‘":{"ha":345,"x_min":0,"x_max":0,"o":"m 277 972 l 222 972 b 90 840 138 972 90 924 l 90 673 l 229 673 l 229 812 l 153 812 l 153 833 b 236 917 153 889 180 917 l 277 917 z "},"’":{"ha":346,"x_min":0,"x_max":0,"o":"m 78 673 l 134 673 b 265 806 218 673 265 722 l 265 972 l 126 972 l 126 833 l 203 833 l 203 812 b 119 729 203 757 175 729 l 78 729 z "},"«":{"ha":681,"x_min":0,"x_max":0,"o":"m 361 694 l 258 694 l 57 396 l 258 97 l 364 97 l 161 398 z m 418 397 l 618 694 l 515 694 l 314 396 l 515 97 l 621 97 z "},"»":{"ha":679,"x_min":0,"x_max":0,"o":"m 163 694 l 58 694 l 260 394 l 61 97 l 163 97 l 365 395 z m 420 694 l 315 694 l 517 393 l 318 97 l 420 97 l 622 395 z "},"‹":{"ha":424,"x_min":0,"x_max":0,"o":"m 161 398 l 361 694 l 258 694 l 57 396 l 258 97 l 364 97 z "},"›":{"ha":424,"x_min":0,"x_max":0,"o":"m 165 694 l 63 694 l 262 398 l 60 97 l 165 97 l 367 396 z "},"\"":{"ha":475,"x_min":0,"x_max":0,"o":"m 113 681 l 143 681 l 176 861 l 176 972 l 86 972 l 86 861 z m 328 681 l 358 681 l 392 861 l 392 972 l 301 972 l 301 861 z "},"'":{"ha":260,"x_min":0,"x_max":0,"o":"m 113 681 l 143 681 l 176 861 l 176 972 l 86 972 l 86 861 z "},"·":{"ha":317,"x_min":0,"x_max":0,"o":"m 96 403 l 220 403 l 220 528 l 96 528 z "},";":{"ha":376,"x_min":0,"x_max":0,"o":"m 78 -160 l 134 -160 b 265 -28 218 -160 265 -112 l 265 139 l 126 139 l 126 0 l 203 0 l 203 -21 b 119 -104 203 -77 175 -104 l 78 -104 z m 126 555 l 265 555 l 265 694 l 126 694 z "}," ":{"ha":104,"x_min":0,"x_max":0,"o":""}," ":{"ha":174,"x_min":0,"x_max":0,"o":""}," ":{"ha":347,"x_min":0,"x_max":0,"o":""}," ":{"ha":694,"x_min":0,"x_max":0,"o":""}," ":{"ha":1389,"x_min":0,"x_max":0,"o":""},"¢":{"ha":730,"x_min":0,"x_max":0,"o":"m 566 222 b 507 117 557 180 537 145 b 395 77 476 90 439 77 l 380 77 l 379 77 l 468 602 b 562 472 519 578 553 532 l 657 472 b 483 694 646 583 581 663 l 511 861 l 427 861 l 401 708 l 387 708 b 68 347 186 711 66 552 b 281 2 68 181 145 45 l 253 -167 l 338 -167 l 363 -13 b 387 -14 369 -14 377 -14 b 570 50 462 -14 523 7 b 660 222 617 92 647 149 z m 297 92 b 197 189 253 111 219 143 b 163 347 174 235 163 288 b 380 618 161 494 237 620 l 385 618 z "},"¤":{"ha":985,"x_min":0,"x_max":0,"o":"m 778 214 b 838 424 816 274 838 346 b 779 628 838 500 817 570 l 905 754 l 844 815 l 721 697 b 490 785 659 753 578 785 b 262 700 404 785 324 754 l 142 815 l 81 754 l 203 631 b 143 424 165 572 143 500 b 205 211 143 345 165 271 l 81 86 l 142 25 l 264 142 b 490 56 326 86 404 56 b 720 144 577 56 657 87 l 844 25 l 905 86 z m 743 424 b 497 146 745 264 633 143 l 490 146 b 237 424 355 143 235 266 b 484 694 235 582 347 696 l 497 694 b 743 424 633 696 745 582 z "},"$":{"ha":850,"x_min":0,"x_max":0,"o":"m 768 262 b 517 529 768 409 680 496 l 488 534 l 545 879 b 689 688 629 848 683 779 l 783 688 b 720 868 781 759 760 819 b 560 970 682 918 628 951 l 589 1139 l 503 1139 l 477 985 b 436 986 458 985 445 986 b 103 708 235 989 100 861 b 335 463 103 576 180 494 l 387 452 l 326 89 b 149 306 216 117 149 194 l 54 306 b 311 -3 54 140 145 31 l 283 -167 l 370 -167 l 395 -13 b 429 -14 403 -14 414 -14 b 768 262 635 -15 770 93 z m 361 559 b 197 710 257 581 197 629 b 429 896 195 814 296 897 l 443 896 b 462 895 452 896 458 896 l 404 551 z m 673 257 b 441 77 673 155 588 77 l 428 77 l 410 77 l 471 435 l 490 431 b 673 257 614 406 673 351 z "},"€":{"ha":929,"x_min":0,"x_max":0,"o":"m 757 285 b 546 77 743 151 669 77 l 532 77 b 288 302 413 77 326 159 l 500 350 l 500 433 l 273 382 b 267 486 269 415 267 450 l 267 494 l 558 559 l 558 643 l 271 578 b 532 896 293 777 390 896 l 546 896 b 757 688 669 896 743 821 l 851 688 b 541 986 835 874 720 986 b 175 556 331 986 194 824 l 60 530 l 60 447 l 172 473 b 180 362 173 434 176 397 l 60 335 l 60 252 l 197 282 b 541 -14 245 94 369 -14 b 851 285 720 -14 835 97 l 757 285 z "},"ƒ":{"ha":576,"x_min":0,"x_max":0,"o":"m 342 715 b 497 882 362 839 387 879 l 546 882 l 546 972 l 490 972 b 250 720 335 970 282 911 l 235 618 l 66 618 l 66 534 l 222 534 l 136 -21 b -24 -187 116 -144 89 -184 l -72 -187 l -72 -278 l -17 -278 b 231 -14 140 -276 199 -206 l 314 534 l 507 534 l 507 618 l 327 618 l 342 715 z "},"₴":{"ha":885,"x_min":0,"x_max":0,"o":"m 730 659 b 741 737 737 682 741 708 b 447 986 743 886 614 987 b 279 945 380 986 324 972 b 178 848 234 919 201 886 b 142 741 157 811 144 775 l 250 741 b 443 896 254 804 314 897 l 452 896 b 650 732 564 896 650 840 b 635 651 650 702 645 675 l 52 602 l 52 519 l 833 586 l 833 668 z m 79 328 l 144 333 b 131 248 135 308 131 279 b 460 -14 128 101 267 -16 b 765 243 648 -16 753 112 l 660 243 b 472 77 646 155 583 77 l 453 77 b 221 257 319 77 221 149 b 239 342 221 289 227 317 l 796 390 l 796 472 l 79 410 z "},"₽":{"ha":888,"x_min":0,"x_max":0,"o":"m 543 443 b 848 707 716 443 848 525 b 543 972 848 889 716 972 l 210 972 l 210 532 l 56 532 l 56 443 l 210 443 l 210 340 l 57 340 l 57 257 l 210 257 l 210 0 l 307 0 l 307 257 l 636 257 l 636 340 l 307 340 l 307 443 z m 307 882 l 522 882 b 751 707 669 882 751 832 b 522 532 751 582 668 532 l 307 532 z "},"£":{"ha":774,"x_min":0,"x_max":0,"o":"m 232 90 b 282 142 256 104 272 121 b 301 228 292 163 298 192 l 317 429 l 518 473 l 518 557 l 323 513 l 336 675 b 518 882 347 811 396 882 l 657 882 l 657 972 l 522 972 b 241 682 343 972 256 874 l 227 492 l 66 456 l 66 372 l 221 407 l 207 215 b 94 90 201 132 164 90 l 66 90 l 66 0 l 726 0 l 726 90 z "},"¥":{"ha":888,"x_min":0,"x_max":0,"o":"m 847 972 l 741 972 l 446 484 l 151 972 l 41 972 l 355 461 l 151 415 l 151 332 l 396 387 l 396 275 l 193 229 l 193 146 l 396 191 l 396 0 l 493 0 l 493 213 l 696 258 l 696 342 l 493 296 l 493 396 l 503 411 l 737 464 l 737 547 l 562 508 z "},"∙":{"ha":603,"x_min":0,"x_max":0,"o":"m 66 486 b 302 250 63 361 177 248 b 538 486 426 248 541 361 b 302 722 541 610 426 726 b 66 486 177 726 63 610 z "},"∕":{"ha":497,"x_min":0,"x_max":0,"o":"m 12 0 l 109 0 l 484 972 l 387 972 z "},"+":{"ha":812,"x_min":0,"x_max":0,"o":"m 361 21 l 452 21 l 452 317 l 750 317 l 750 400 l 452 400 l 452 694 l 361 694 l 361 400 l 62 400 l 62 317 l 361 317 z "},"−":{"ha":889,"x_min":0,"x_max":0,"o":"m 102 313 l 787 313 l 787 403 l 102 403 z "},"×":{"ha":743,"x_min":0,"x_max":0,"o":"m 147 68 l 372 293 l 596 68 l 661 134 l 437 358 l 661 582 l 596 647 l 372 424 l 147 647 l 82 582 l 307 358 l 82 134 z "},"÷":{"ha":892,"x_min":0,"x_max":0,"o":"m 395 528 l 498 528 l 498 646 l 395 646 z m 103 313 l 789 313 l 789 403 l 103 403 z m 395 69 l 498 69 l 498 187 l 395 187 z "},"=":{"ha":892,"x_min":0,"x_max":0,"o":"m 103 437 l 789 437 l 789 528 l 103 528 z m 103 186 l 789 186 l 789 277 l 103 277 z "},"≠":{"ha":892,"x_min":0,"x_max":0,"o":"m 789 437 l 789 528 l 549 528 l 600 694 l 501 694 l 450 528 l 103 528 l 103 437 l 422 437 l 372 277 l 103 277 l 103 186 l 344 186 l 293 21 l 392 21 l 443 186 l 789 186 l 789 277 l 471 277 l 521 437 z "},">":{"ha":750,"x_min":0,"x_max":0,"o":"m 98 640 l 98 534 l 557 353 l 98 172 l 98 71 l 689 317 l 689 395 z "},"<":{"ha":750,"x_min":0,"x_max":0,"o":"m 652 642 l 61 396 l 61 318 l 652 73 l 652 178 l 193 359 l 652 541 z "},"≥":{"ha":879,"x_min":0,"x_max":0,"o":"m 100 708 l 100 606 l 685 444 l 100 281 l 100 180 l 786 392 l 786 497 z m 100 35 l 786 35 l 786 125 l 100 125 z "},"≤":{"ha":879,"x_min":0,"x_max":0,"o":"m 779 708 l 93 497 l 93 392 l 779 180 l 779 283 l 195 446 l 779 608 z m 93 35 l 779 35 l 779 125 l 93 125 z "},"±":{"ha":886,"x_min":0,"x_max":0,"o":"m 399 208 l 488 208 l 488 403 l 786 403 l 786 493 l 488 493 l 488 694 l 399 694 l 399 493 l 100 493 l 100 403 l 399 403 z m 100 0 l 786 0 l 786 90 l 100 90 z "},"≈":{"ha":857,"x_min":0,"x_max":0,"o":"m 399 452 b 589 386 487 410 543 386 b 755 539 697 386 755 446 l 755 574 l 665 574 b 578 482 665 516 643 482 b 458 528 556 482 524 496 b 269 595 371 571 315 595 b 103 435 167 595 103 526 l 103 400 l 193 400 b 281 498 193 460 216 498 b 399 452 302 498 337 483 z m 399 189 b 589 122 487 146 543 122 b 755 275 697 122 755 181 l 755 310 l 665 310 b 578 218 665 252 643 218 b 458 264 556 218 526 231 b 269 330 371 307 315 330 b 103 171 167 330 103 262 l 103 136 l 193 136 b 281 235 193 195 216 235 b 399 189 302 235 337 219 z "},"¬":{"ha":827,"x_min":0,"x_max":0,"o":"m 627 180 l 721 180 l 721 472 l 103 472 l 103 382 l 627 382 z "},"~":{"ha":679,"x_min":0,"x_max":0,"o":"m 353 518 b 457 482 390 497 419 482 b 581 628 532 482 581 536 l 581 642 l 511 642 b 454 554 511 581 490 554 b 392 579 435 554 422 561 l 336 612 b 237 648 303 634 275 648 b 109 503 161 648 109 598 l 109 489 l 178 489 b 235 576 178 549 199 576 b 300 549 254 576 267 568 l 353 518 z "},"^":{"ha":717,"x_min":0,"x_max":0,"o":"m 660 396 l 412 972 l 302 972 l 57 396 l 147 396 l 357 890 l 567 396 z "},"∞":{"ha":1179,"x_min":0,"x_max":0,"o":"m 79 500 b 322 236 77 345 186 234 b 512 317 409 236 469 269 b 590 416 534 340 560 374 b 668 316 621 374 647 340 b 746 258 690 292 715 273 b 857 236 777 243 814 236 b 1100 500 993 234 1102 345 b 857 764 1102 655 993 766 b 669 681 770 764 711 729 b 590 578 648 657 622 623 b 511 680 559 622 533 656 b 433 740 490 705 464 724 b 322 764 403 755 366 764 b 79 500 186 765 77 656 z m 322 326 b 174 500 229 326 174 389 b 322 673 174 610 229 673 l 329 673 b 471 595 386 673 431 644 b 538 500 491 570 513 538 b 406 347 489 422 453 375 b 329 326 383 333 357 326 z m 850 326 b 707 405 793 326 747 356 b 642 500 688 429 666 461 b 772 652 690 578 726 625 b 850 673 795 667 821 673 l 857 673 b 1006 500 950 673 1006 610 b 857 326 1006 389 950 326 z "},"∫":{"ha":543,"x_min":0,"x_max":0,"o":"m 21 -139 l 77 -139 b 318 125 233 -139 318 -57 l 318 715 b 472 882 318 835 357 882 l 521 882 l 521 972 l 465 972 b 224 708 309 972 224 890 l 224 118 b 69 -49 224 -2 184 -49 l 21 -49 z "},"Ω":{"ha":1064,"x_min":0,"x_max":0,"o":"m 94 0 l 421 0 l 421 83 b 244 217 345 103 286 147 b 182 486 203 287 182 376 b 525 896 180 741 315 898 l 539 896 b 882 486 749 898 884 743 b 819 217 882 376 861 287 b 643 83 778 147 719 103 l 643 0 l 970 0 l 970 90 l 796 90 b 977 486 913 155 977 297 b 532 986 980 792 788 989 b 87 486 277 989 84 792 b 268 90 87 297 151 155 l 94 90 z "},"∆":{"ha":947,"x_min":0,"x_max":0,"o":"m 525 972 l 422 972 l 47 97 l 47 0 l 900 0 l 900 97 z m 473 860 l 803 90 l 143 90 z "},"∏":{"ha":945,"x_min":0,"x_max":0,"o":"m 189 0 l 283 0 l 283 882 l 661 882 l 661 0 l 755 0 l 755 882 l 899 882 l 899 972 l 45 972 l 45 882 l 189 882 z "},"∑":{"ha":728,"x_min":0,"x_max":0,"o":"m 657 972 l 66 972 l 66 885 l 351 486 l 66 92 l 66 0 l 657 0 l 657 90 l 184 90 l 469 486 l 184 882 l 657 882 z "},"√":{"ha":932,"x_min":0,"x_max":0,"o":"m 885 972 l 533 972 l 332 109 l 132 694 l 37 694 l 281 0 l 390 0 l 605 886 l 885 886 z "},"∂":{"ha":791,"x_min":0,"x_max":0,"o":"m 69 335 b 385 -14 69 124 189 -14 b 704 419 576 -14 704 124 b 300 986 705 744 567 989 b 160 965 245 986 189 976 l 160 875 b 289 896 192 886 245 896 b 595 608 429 896 565 804 l 599 576 b 372 673 551 640 469 673 b 69 335 194 676 67 531 z m 382 77 b 164 335 254 77 164 165 b 221 526 164 419 183 483 b 375 590 259 568 311 590 l 389 590 b 610 334 517 590 610 503 b 389 77 610 165 511 77 z "},"µ":{"ha":815,"x_min":0,"x_max":0,"o":"m 599 694 l 599 319 b 397 62 602 165 499 60 l 383 62 b 216 264 272 62 216 131 l 216 694 l 126 694 l 126 -278 l 216 -278 l 216 32 b 367 -14 256 1 307 -14 b 599 131 480 -14 562 38 l 599 0 l 689 0 l 689 694 z "},"%":{"ha":1258,"x_min":0,"x_max":0,"o":"m 292 0 l 382 0 l 965 972 l 875 972 z m 758 273 b 983 -7 758 104 844 -7 b 1208 273 1122 -7 1208 104 b 983 555 1208 444 1122 555 b 758 273 844 555 758 444 z m 981 62 b 843 273 890 60 842 167 b 981 486 843 382 889 486 l 986 486 b 1123 273 1076 486 1123 382 b 986 62 1124 167 1076 60 z m 52 697 b 277 417 52 528 138 417 b 501 697 415 417 501 528 b 277 979 501 867 415 979 b 52 697 138 979 52 867 z m 274 486 b 136 697 183 484 136 591 b 274 910 136 806 182 910 l 279 910 b 416 697 370 910 416 806 b 279 486 417 591 370 484 z "},"‰":{"ha":1622,"x_min":0,"x_max":0,"o":"m 277 417 b 501 697 415 417 501 528 b 277 979 501 867 415 979 b 52 697 138 979 52 867 b 277 417 52 528 138 417 z m 875 972 l 292 0 l 382 0 l 965 972 z m 416 697 b 279 486 417 591 370 484 l 274 486 b 136 697 183 484 136 591 b 274 910 136 806 182 910 l 279 910 b 416 697 370 910 416 806 z m 1573 273 b 1349 555 1573 444 1487 555 b 1166 452 1267 555 1204 519 b 983 555 1128 519 1064 555 b 758 273 844 555 758 444 b 983 -7 758 104 844 -7 b 1166 96 1064 -7 1127 31 b 1349 -7 1204 31 1267 -7 b 1573 273 1487 -7 1573 104 z m 1123 273 b 986 62 1124 167 1076 60 l 981 62 b 843 273 890 60 842 167 b 981 486 843 382 889 486 l 986 486 b 1123 273 1076 486 1123 382 z m 1489 273 b 1352 62 1489 167 1442 60 l 1346 62 b 1208 273 1255 60 1208 167 b 1346 486 1208 382 1255 486 l 1352 486 b 1489 273 1442 486 1489 382 z "},"↑":{"ha":1031,"x_min":0,"x_max":0,"o":"m 468 0 l 562 0 l 562 847 l 880 529 l 947 596 l 515 1028 l 83 596 l 150 529 l 468 847 z "},"↗":{"ha":921,"x_min":0,"x_max":0,"o":"m 70 279 l 136 212 l 735 811 l 735 361 l 830 361 l 830 972 l 219 972 l 219 878 l 669 878 z "},"→":{"ha":1083,"x_min":0,"x_max":0,"o":"m 35 534 l 35 439 l 882 439 l 564 121 l 631 54 l 1063 486 l 631 918 l 564 852 l 882 534 z "},"↘":{"ha":920,"x_min":0,"x_max":0,"o":"m 137 760 l 71 693 l 669 94 l 220 94 l 220 -1 l 830 -1 l 830 610 l 736 610 l 736 161 z "},"↓":{"ha":1031,"x_min":0,"x_max":0,"o":"m 563 972 l 469 972 l 469 125 l 151 444 l 83 376 l 515 -56 l 947 376 l 881 444 l 563 125 z "},"↙":{"ha":921,"x_min":0,"x_max":0,"o":"m 848 692 l 782 758 l 183 159 l 183 609 l 88 609 l 88 -1 l 699 -1 l 699 93 l 250 93 z "},"←":{"ha":1083,"x_min":0,"x_max":0,"o":"m 1048 439 l 1048 533 l 201 533 l 519 851 l 452 918 l 20 486 l 452 54 l 519 121 l 201 439 z "},"↖":{"ha":920,"x_min":0,"x_max":0,"o":"m 781 212 l 848 278 l 249 877 l 699 877 l 699 972 l 88 972 l 88 361 l 182 361 l 182 810 z "},"↤":{"ha":1146,"x_min":0,"x_max":0,"o":"m 965 833 l 965 533 l 208 533 l 526 851 l 460 918 l 28 486 l 460 54 l 526 121 l 208 439 l 965 439 l 965 139 l 1055 139 l 1055 833 z "}}}
